<?xml version="1.0" encoding="utf-8" standalone="no"?>
<!DOCTYPE svg PUBLIC "-//W3C//DTD SVG 1.1//EN"
  "http://www.w3.org/Graphics/SVG/1.1/DTD/svg11.dtd">
<svg xmlns:xlink="http://www.w3.org/1999/xlink" width="720pt" height="288pt" viewBox="0 0 720 288" xmlns="http://www.w3.org/2000/svg" version="1.1">
 <metadata>
  <rdf:RDF xmlns:dc="http://purl.org/dc/elements/1.1/" xmlns:cc="http://creativecommons.org/ns#" xmlns:rdf="http://www.w3.org/1999/02/22-rdf-syntax-ns#">
   <cc:Work>
    <dc:type rdf:resource="http://purl.org/dc/dcmitype/StillImage"/>
    <dc:date>2024-01-15T10:22:15.258663</dc:date>
    <dc:format>image/svg+xml</dc:format>
    <dc:creator>
     <cc:Agent>
      <dc:title>Matplotlib v3.5.3, https://matplotlib.org/</dc:title>
     </cc:Agent>
    </dc:creator>
   </cc:Work>
  </rdf:RDF>
 </metadata>
 <defs>
  <style type="text/css">*{stroke-linejoin: round; stroke-linecap: butt}</style>
 </defs>
 <g id="figure_1">
  <g id="patch_1">
   <path d="M 0 288 
L 720 288 
L 720 0 
L 0 0 
L 0 288 
z
" style="fill: none"/>
  </g>
  <g id="axes_1">
   <g id="patch_2">
    <path d="M 90 252 
L 648 252 
L 648 34.56 
L 90 34.56 
z
" style="fill: #ffffff"/>
   </g>
   <g id="matplotlib.axis_1">
    <g id="xtick_1">
     <g id="line2d_1">
      <defs>
       <path id="m17cb0efa4f" d="M 0 0 
L 0 3.5 
" style="stroke: #000000; stroke-width: 0.8"/>
      </defs>
      <g>
       <use xlink:href="#m17cb0efa4f" x="115.363636" y="252" style="stroke: #000000; stroke-width: 0.8"/>
      </g>
     </g>
     <g id="text_1">
      <!-- 0 -->
      <g transform="translate(112.182386 266.598437)scale(0.1 -0.1)">
       <defs>
        <path id="DejaVuSans-30" d="M 2034 4250 
Q 1547 4250 1301 3770 
Q 1056 3291 1056 2328 
Q 1056 1369 1301 889 
Q 1547 409 2034 409 
Q 2525 409 2770 889 
Q 3016 1369 3016 2328 
Q 3016 3291 2770 3770 
Q 2525 4250 2034 4250 
z
M 2034 4750 
Q 2819 4750 3233 4129 
Q 3647 3509 3647 2328 
Q 3647 1150 3233 529 
Q 2819 -91 2034 -91 
Q 1250 -91 836 529 
Q 422 1150 422 2328 
Q 422 3509 836 4129 
Q 1250 4750 2034 4750 
z
" transform="scale(0.015625)"/>
       </defs>
       <use xlink:href="#DejaVuSans-30"/>
      </g>
     </g>
    </g>
    <g id="xtick_2">
     <g id="line2d_2">
      <g>
       <use xlink:href="#m17cb0efa4f" x="207.595041" y="252" style="stroke: #000000; stroke-width: 0.8"/>
      </g>
     </g>
     <g id="text_2">
      <!-- 10 -->
      <g transform="translate(201.232541 266.598437)scale(0.1 -0.1)">
       <defs>
        <path id="DejaVuSans-31" d="M 794 531 
L 1825 531 
L 1825 4091 
L 703 3866 
L 703 4441 
L 1819 4666 
L 2450 4666 
L 2450 531 
L 3481 531 
L 3481 0 
L 794 0 
L 794 531 
z
" transform="scale(0.015625)"/>
       </defs>
       <use xlink:href="#DejaVuSans-31"/>
       <use xlink:href="#DejaVuSans-30" x="63.623047"/>
      </g>
     </g>
    </g>
    <g id="xtick_3">
     <g id="line2d_3">
      <g>
       <use xlink:href="#m17cb0efa4f" x="299.826446" y="252" style="stroke: #000000; stroke-width: 0.8"/>
      </g>
     </g>
     <g id="text_3">
      <!-- 20 -->
      <g transform="translate(293.463946 266.598437)scale(0.1 -0.1)">
       <defs>
        <path id="DejaVuSans-32" d="M 1228 531 
L 3431 531 
L 3431 0 
L 469 0 
L 469 531 
Q 828 903 1448 1529 
Q 2069 2156 2228 2338 
Q 2531 2678 2651 2914 
Q 2772 3150 2772 3378 
Q 2772 3750 2511 3984 
Q 2250 4219 1831 4219 
Q 1534 4219 1204 4116 
Q 875 4013 500 3803 
L 500 4441 
Q 881 4594 1212 4672 
Q 1544 4750 1819 4750 
Q 2544 4750 2975 4387 
Q 3406 4025 3406 3419 
Q 3406 3131 3298 2873 
Q 3191 2616 2906 2266 
Q 2828 2175 2409 1742 
Q 1991 1309 1228 531 
z
" transform="scale(0.015625)"/>
       </defs>
       <use xlink:href="#DejaVuSans-32"/>
       <use xlink:href="#DejaVuSans-30" x="63.623047"/>
      </g>
     </g>
    </g>
    <g id="xtick_4">
     <g id="line2d_4">
      <g>
       <use xlink:href="#m17cb0efa4f" x="392.057851" y="252" style="stroke: #000000; stroke-width: 0.8"/>
      </g>
     </g>
     <g id="text_4">
      <!-- 30 -->
      <g transform="translate(385.695351 266.598437)scale(0.1 -0.1)">
       <defs>
        <path id="DejaVuSans-33" d="M 2597 2516 
Q 3050 2419 3304 2112 
Q 3559 1806 3559 1356 
Q 3559 666 3084 287 
Q 2609 -91 1734 -91 
Q 1441 -91 1130 -33 
Q 819 25 488 141 
L 488 750 
Q 750 597 1062 519 
Q 1375 441 1716 441 
Q 2309 441 2620 675 
Q 2931 909 2931 1356 
Q 2931 1769 2642 2001 
Q 2353 2234 1838 2234 
L 1294 2234 
L 1294 2753 
L 1863 2753 
Q 2328 2753 2575 2939 
Q 2822 3125 2822 3475 
Q 2822 3834 2567 4026 
Q 2313 4219 1838 4219 
Q 1578 4219 1281 4162 
Q 984 4106 628 3988 
L 628 4550 
Q 988 4650 1302 4700 
Q 1616 4750 1894 4750 
Q 2613 4750 3031 4423 
Q 3450 4097 3450 3541 
Q 3450 3153 3228 2886 
Q 3006 2619 2597 2516 
z
" transform="scale(0.015625)"/>
       </defs>
       <use xlink:href="#DejaVuSans-33"/>
       <use xlink:href="#DejaVuSans-30" x="63.623047"/>
      </g>
     </g>
    </g>
    <g id="xtick_5">
     <g id="line2d_5">
      <g>
       <use xlink:href="#m17cb0efa4f" x="484.289256" y="252" style="stroke: #000000; stroke-width: 0.8"/>
      </g>
     </g>
     <g id="text_5">
      <!-- 40 -->
      <g transform="translate(477.926756 266.598437)scale(0.1 -0.1)">
       <defs>
        <path id="DejaVuSans-34" d="M 2419 4116 
L 825 1625 
L 2419 1625 
L 2419 4116 
z
M 2253 4666 
L 3047 4666 
L 3047 1625 
L 3713 1625 
L 3713 1100 
L 3047 1100 
L 3047 0 
L 2419 0 
L 2419 1100 
L 313 1100 
L 313 1709 
L 2253 4666 
z
" transform="scale(0.015625)"/>
       </defs>
       <use xlink:href="#DejaVuSans-34"/>
       <use xlink:href="#DejaVuSans-30" x="63.623047"/>
      </g>
     </g>
    </g>
    <g id="xtick_6">
     <g id="line2d_6">
      <g>
       <use xlink:href="#m17cb0efa4f" x="576.520661" y="252" style="stroke: #000000; stroke-width: 0.8"/>
      </g>
     </g>
     <g id="text_6">
      <!-- 50 -->
      <g transform="translate(570.158161 266.598437)scale(0.1 -0.1)">
       <defs>
        <path id="DejaVuSans-35" d="M 691 4666 
L 3169 4666 
L 3169 4134 
L 1269 4134 
L 1269 2991 
Q 1406 3038 1543 3061 
Q 1681 3084 1819 3084 
Q 2600 3084 3056 2656 
Q 3513 2228 3513 1497 
Q 3513 744 3044 326 
Q 2575 -91 1722 -91 
Q 1428 -91 1123 -41 
Q 819 9 494 109 
L 494 744 
Q 775 591 1075 516 
Q 1375 441 1709 441 
Q 2250 441 2565 725 
Q 2881 1009 2881 1497 
Q 2881 1984 2565 2268 
Q 2250 2553 1709 2553 
Q 1456 2553 1204 2497 
Q 953 2441 691 2322 
L 691 4666 
z
" transform="scale(0.015625)"/>
       </defs>
       <use xlink:href="#DejaVuSans-35"/>
       <use xlink:href="#DejaVuSans-30" x="63.623047"/>
      </g>
     </g>
    </g>
    <g id="text_7">
     <!-- Frequency (Hz) -->
     <g transform="translate(331.295313 280.276563)scale(0.1 -0.1)">
      <defs>
       <path id="DejaVuSans-46" d="M 628 4666 
L 3309 4666 
L 3309 4134 
L 1259 4134 
L 1259 2759 
L 3109 2759 
L 3109 2228 
L 1259 2228 
L 1259 0 
L 628 0 
L 628 4666 
z
" transform="scale(0.015625)"/>
       <path id="DejaVuSans-72" d="M 2631 2963 
Q 2534 3019 2420 3045 
Q 2306 3072 2169 3072 
Q 1681 3072 1420 2755 
Q 1159 2438 1159 1844 
L 1159 0 
L 581 0 
L 581 3500 
L 1159 3500 
L 1159 2956 
Q 1341 3275 1631 3429 
Q 1922 3584 2338 3584 
Q 2397 3584 2469 3576 
Q 2541 3569 2628 3553 
L 2631 2963 
z
" transform="scale(0.015625)"/>
       <path id="DejaVuSans-65" d="M 3597 1894 
L 3597 1613 
L 953 1613 
Q 991 1019 1311 708 
Q 1631 397 2203 397 
Q 2534 397 2845 478 
Q 3156 559 3463 722 
L 3463 178 
Q 3153 47 2828 -22 
Q 2503 -91 2169 -91 
Q 1331 -91 842 396 
Q 353 884 353 1716 
Q 353 2575 817 3079 
Q 1281 3584 2069 3584 
Q 2775 3584 3186 3129 
Q 3597 2675 3597 1894 
z
M 3022 2063 
Q 3016 2534 2758 2815 
Q 2500 3097 2075 3097 
Q 1594 3097 1305 2825 
Q 1016 2553 972 2059 
L 3022 2063 
z
" transform="scale(0.015625)"/>
       <path id="DejaVuSans-71" d="M 947 1747 
Q 947 1113 1208 752 
Q 1469 391 1925 391 
Q 2381 391 2643 752 
Q 2906 1113 2906 1747 
Q 2906 2381 2643 2742 
Q 2381 3103 1925 3103 
Q 1469 3103 1208 2742 
Q 947 2381 947 1747 
z
M 2906 525 
Q 2725 213 2448 61 
Q 2172 -91 1784 -91 
Q 1150 -91 751 415 
Q 353 922 353 1747 
Q 353 2572 751 3078 
Q 1150 3584 1784 3584 
Q 2172 3584 2448 3432 
Q 2725 3281 2906 2969 
L 2906 3500 
L 3481 3500 
L 3481 -1331 
L 2906 -1331 
L 2906 525 
z
" transform="scale(0.015625)"/>
       <path id="DejaVuSans-75" d="M 544 1381 
L 544 3500 
L 1119 3500 
L 1119 1403 
Q 1119 906 1312 657 
Q 1506 409 1894 409 
Q 2359 409 2629 706 
Q 2900 1003 2900 1516 
L 2900 3500 
L 3475 3500 
L 3475 0 
L 2900 0 
L 2900 538 
Q 2691 219 2414 64 
Q 2138 -91 1772 -91 
Q 1169 -91 856 284 
Q 544 659 544 1381 
z
M 1991 3584 
L 1991 3584 
z
" transform="scale(0.015625)"/>
       <path id="DejaVuSans-6e" d="M 3513 2113 
L 3513 0 
L 2938 0 
L 2938 2094 
Q 2938 2591 2744 2837 
Q 2550 3084 2163 3084 
Q 1697 3084 1428 2787 
Q 1159 2491 1159 1978 
L 1159 0 
L 581 0 
L 581 3500 
L 1159 3500 
L 1159 2956 
Q 1366 3272 1645 3428 
Q 1925 3584 2291 3584 
Q 2894 3584 3203 3211 
Q 3513 2838 3513 2113 
z
" transform="scale(0.015625)"/>
       <path id="DejaVuSans-63" d="M 3122 3366 
L 3122 2828 
Q 2878 2963 2633 3030 
Q 2388 3097 2138 3097 
Q 1578 3097 1268 2742 
Q 959 2388 959 1747 
Q 959 1106 1268 751 
Q 1578 397 2138 397 
Q 2388 397 2633 464 
Q 2878 531 3122 666 
L 3122 134 
Q 2881 22 2623 -34 
Q 2366 -91 2075 -91 
Q 1284 -91 818 406 
Q 353 903 353 1747 
Q 353 2603 823 3093 
Q 1294 3584 2113 3584 
Q 2378 3584 2631 3529 
Q 2884 3475 3122 3366 
z
" transform="scale(0.015625)"/>
       <path id="DejaVuSans-79" d="M 2059 -325 
Q 1816 -950 1584 -1140 
Q 1353 -1331 966 -1331 
L 506 -1331 
L 506 -850 
L 844 -850 
Q 1081 -850 1212 -737 
Q 1344 -625 1503 -206 
L 1606 56 
L 191 3500 
L 800 3500 
L 1894 763 
L 2988 3500 
L 3597 3500 
L 2059 -325 
z
" transform="scale(0.015625)"/>
       <path id="DejaVuSans-20" transform="scale(0.015625)"/>
       <path id="DejaVuSans-28" d="M 1984 4856 
Q 1566 4138 1362 3434 
Q 1159 2731 1159 2009 
Q 1159 1288 1364 580 
Q 1569 -128 1984 -844 
L 1484 -844 
Q 1016 -109 783 600 
Q 550 1309 550 2009 
Q 550 2706 781 3412 
Q 1013 4119 1484 4856 
L 1984 4856 
z
" transform="scale(0.015625)"/>
       <path id="DejaVuSans-48" d="M 628 4666 
L 1259 4666 
L 1259 2753 
L 3553 2753 
L 3553 4666 
L 4184 4666 
L 4184 0 
L 3553 0 
L 3553 2222 
L 1259 2222 
L 1259 0 
L 628 0 
L 628 4666 
z
" transform="scale(0.015625)"/>
       <path id="DejaVuSans-7a" d="M 353 3500 
L 3084 3500 
L 3084 2975 
L 922 459 
L 3084 459 
L 3084 0 
L 275 0 
L 275 525 
L 2438 3041 
L 353 3041 
L 353 3500 
z
" transform="scale(0.015625)"/>
       <path id="DejaVuSans-29" d="M 513 4856 
L 1013 4856 
Q 1481 4119 1714 3412 
Q 1947 2706 1947 2009 
Q 1947 1309 1714 600 
Q 1481 -109 1013 -844 
L 513 -844 
Q 928 -128 1133 580 
Q 1338 1288 1338 2009 
Q 1338 2731 1133 3434 
Q 928 4138 513 4856 
z
" transform="scale(0.015625)"/>
      </defs>
      <use xlink:href="#DejaVuSans-46"/>
      <use xlink:href="#DejaVuSans-72" x="50.269531"/>
      <use xlink:href="#DejaVuSans-65" x="89.132812"/>
      <use xlink:href="#DejaVuSans-71" x="150.65625"/>
      <use xlink:href="#DejaVuSans-75" x="214.132812"/>
      <use xlink:href="#DejaVuSans-65" x="277.511719"/>
      <use xlink:href="#DejaVuSans-6e" x="339.035156"/>
      <use xlink:href="#DejaVuSans-63" x="402.414062"/>
      <use xlink:href="#DejaVuSans-79" x="457.394531"/>
      <use xlink:href="#DejaVuSans-20" x="516.574219"/>
      <use xlink:href="#DejaVuSans-28" x="548.361328"/>
      <use xlink:href="#DejaVuSans-48" x="587.375"/>
      <use xlink:href="#DejaVuSans-7a" x="662.570312"/>
      <use xlink:href="#DejaVuSans-29" x="715.060547"/>
     </g>
    </g>
   </g>
   <g id="matplotlib.axis_2"/>
   <g id="line2d_7">
    <path d="M 115.363636 72.639879 
L 124.586777 72.265632 
L 133.809917 71.951814 
L 143.033058 71.809788 
L 152.256198 71.707011 
L 161.479339 71.832789 
L 170.702479 73.327105 
L 179.92562 79.053762 
L 189.14876 94.360959 
L 198.371901 122.500403 
L 207.595041 146.380817 
L 216.818182 143.126419 
L 226.041322 126.872275 
L 235.264463 112.366256 
L 244.487603 104.045754 
L 253.710744 104.848328 
L 262.933884 113.753645 
L 272.157025 123.162003 
L 281.380165 125.093858 
L 290.603306 120.216261 
L 299.826446 116.321568 
L 309.049587 120.592756 
L 318.272727 134.700072 
L 327.495868 154.184448 
L 336.719008 178.384332 
L 345.942149 210.713021 
L 355.165289 232.29222 
L 364.38843 231.05406 
L 373.61157 223.912735 
L 382.834711 219.418239 
L 392.057851 215.789224 
L 401.280992 212.891737 
L 410.504132 213.547007 
L 419.727273 216.468074 
L 428.950413 206.592691 
L 438.173554 173.749499 
L 447.396694 157.240393 
L 456.619835 163.855773 
L 465.842975 163.149029 
L 475.066116 168.831789 
L 484.289256 158.084812 
L 493.512397 129.224734 
L 502.735537 102.9662 
L 511.958678 88.451288 
L 521.181818 85.219814 
L 530.404959 92.006596 
L 539.628099 109.121171 
L 548.85124 134.844983 
L 558.07438 159.839571 
L 567.297521 173.63936 
L 576.520661 179.444729 
L 585.743802 177.841421 
L 594.966942 166.841858 
L 604.190083 151.36193 
L 613.413223 135.422006 
L 622.636364 120.091831 
" clip-path="url(#p067d5328ad)" style="fill: none; stroke: #d3d3d3; stroke-width: 1.5; stroke-linecap: square"/>
   </g>
   <g id="line2d_8">
    <path d="M 115.363636 204.944995 
L 124.586777 207.593356 
L 133.809917 192.500854 
L 143.033058 168.936801 
L 152.256198 149.798031 
L 161.479339 140.891537 
L 170.702479 141.488923 
L 179.92562 147.131452 
L 189.14876 153.765955 
L 198.371901 166.246796 
L 207.595041 192.706731 
L 216.818182 217.74977 
L 226.041322 225.412221 
L 235.264463 221.961715 
L 244.487603 216.872918 
L 253.710744 211.968222 
L 262.933884 200.908183 
L 272.157025 180.936746 
L 281.380165 164.076523 
L 290.603306 162.535844 
L 299.826446 173.427964 
L 309.049587 185.719453 
L 318.272727 187.269368 
L 327.495868 165.809731 
L 336.719008 125.311829 
L 345.942149 104.319885 
L 355.165289 119.5597 
L 364.38843 140.60331 
L 373.61157 148.985116 
L 382.834711 147.442308 
L 392.057851 144.973496 
L 401.280992 150.747875 
L 410.504132 170.78444 
L 419.727273 201.982546 
L 428.950413 225.477768 
L 438.173554 225.843106 
L 447.396694 213.18348 
L 456.619835 195.009939 
L 465.842975 192.489242 
L 475.066116 203.167083 
L 484.289256 213.024894 
L 493.512397 216.196518 
L 502.735537 211.43118 
L 511.958678 200.073793 
L 521.181818 187.615116 
L 530.404959 180.837824 
L 539.628099 184.582952 
L 548.85124 199.198063 
L 558.07438 211.380048 
L 567.297521 200.550238 
L 576.520661 189.484348 
L 585.743802 197.473399 
L 594.966942 200.207843 
L 604.190083 191.039537 
L 613.413223 175.105207 
L 622.636364 156.48378 
" clip-path="url(#p067d5328ad)" style="fill: none; stroke: #d3d3d3; stroke-width: 1.5; stroke-linecap: square"/>
   </g>
   <g id="line2d_9">
    <path d="M 115.363636 68.207579 
L 124.586777 63.013349 
L 133.809917 59.002457 
L 143.033058 58.164395 
L 152.256198 59.887089 
L 161.479339 63.067026 
L 170.702479 67.571026 
L 179.92562 74.702645 
L 189.14876 87.090341 
L 198.371901 104.723744 
L 207.595041 115.694204 
L 216.818182 111.22956 
L 226.041322 102.30486 
L 235.264463 93.347049 
L 244.487603 85.375097 
L 253.710744 80.74105 
L 262.933884 78.473689 
L 272.157025 74.874129 
L 281.380165 68.618474 
L 290.603306 63.541875 
L 299.826446 64.078098 
L 309.049587 71.770609 
L 318.272727 86.972818 
L 327.495868 108.779314 
L 336.719008 127.769454 
L 345.942149 129.651274 
L 355.165289 134.495641 
L 364.38843 145.532904 
L 373.61157 155.474434 
L 382.834711 164.228117 
L 392.057851 171.682281 
L 401.280992 177.120799 
L 410.504132 178.930856 
L 419.727273 175.014208 
L 428.950413 167.818742 
L 438.173554 171.913325 
L 447.396694 195.016523 
L 456.619835 186.141807 
L 465.842975 148.338127 
L 475.066116 120.886576 
L 484.289256 95.065308 
L 493.512397 76.293341 
L 502.735537 65.374619 
L 511.958678 60.43664 
L 521.181818 60.446018 
L 530.404959 65.449144 
L 539.628099 74.477259 
L 548.85124 83.957222 
L 558.07438 92.47701 
L 567.297521 112.185702 
L 576.520661 146.749465 
L 585.743802 164.373372 
L 594.966942 161.04909 
L 604.190083 150.906286 
L 613.413223 141.529958 
L 622.636364 133.631172 
" clip-path="url(#p067d5328ad)" style="fill: none; stroke: #d3d3d3; stroke-width: 1.5; stroke-linecap: square"/>
   </g>
   <g id="line2d_10">
    <path d="M 115.363636 70.973464 
L 124.586777 62.781732 
L 133.809917 56.756275 
L 143.033058 55.530508 
L 152.256198 57.655039 
L 161.479339 61.263823 
L 170.702479 65.896285 
L 179.92562 72.723085 
L 189.14876 84.322694 
L 198.371901 101.601469 
L 207.595041 115.915829 
L 216.818182 118.161336 
L 226.041322 114.593233 
L 235.264463 108.093507 
L 244.487603 98.652239 
L 253.710744 89.135829 
L 262.933884 80.666146 
L 272.157025 72.982836 
L 281.380165 66.331198 
L 290.603306 61.146701 
L 299.826446 57.897926 
L 309.049587 57.377928 
L 318.272727 60.925951 
L 327.495868 70.002812 
L 336.719008 84.35298 
L 345.942149 99.69349 
L 355.165289 111.127788 
L 364.38843 118.088478 
L 373.61157 121.969478 
L 382.834711 125.347377 
L 392.057851 130.436346 
L 401.280992 137.480916 
L 410.504132 144.730892 
L 419.727273 150.185558 
L 428.950413 154.943331 
L 438.173554 163.566641 
L 447.396694 173.975109 
L 456.619835 169.574963 
L 465.842975 142.126918 
L 475.066116 108.251357 
L 484.289256 81.993402 
L 493.512397 66.47734 
L 502.735537 59.930524 
L 511.958678 58.772341 
L 521.181818 59.778352 
L 530.404959 61.345384 
L 539.628099 63.554682 
L 548.85124 67.343015 
L 558.07438 74.42972 
L 567.297521 92.653319 
L 576.520661 124.245283 
L 585.743802 140.724818 
L 594.966942 134.836091 
L 604.190083 121.083923 
L 613.413223 108.62817 
L 622.636364 98.978568 
" clip-path="url(#p067d5328ad)" style="fill: none; stroke: #d3d3d3; stroke-width: 1.5; stroke-linecap: square"/>
   </g>
   <g id="line2d_11">
    <path d="M 115.363636 73.379292 
L 124.586777 72.07816 
L 133.809917 69.778526 
L 143.033058 67.527578 
L 152.256198 66.128116 
L 161.479339 65.986408 
L 170.702479 67.971207 
L 179.92562 74.32129 
L 189.14876 88.83308 
L 198.371901 111.509533 
L 207.595041 126.678535 
L 216.818182 124.894004 
L 226.041322 118.184243 
L 235.264463 107.83773 
L 244.487603 96.764032 
L 253.710744 90.153878 
L 262.933884 87.935298 
L 272.157025 85.691493 
L 281.380165 79.3977 
L 290.603306 71.345015 
L 299.826446 68.324807 
L 309.049587 75.505183 
L 318.272727 95.44878 
L 327.495868 128.780479 
L 336.719008 171.279522 
L 345.942149 207.84838 
L 355.165289 216.959603 
L 364.38843 208.734159 
L 373.61157 203.481209 
L 382.834711 202.409743 
L 392.057851 201.737944 
L 401.280992 201.447109 
L 410.504132 204.435692 
L 419.727273 208.736474 
L 428.950413 199.448528 
L 438.173554 175.832729 
L 447.396694 190.466749 
L 456.619835 219.856909 
L 465.842975 205.443973 
L 475.066116 175.488477 
L 484.289256 138.433616 
L 493.512397 106.08786 
L 502.735537 84.810752 
L 511.958678 73.503852 
L 521.181818 69.499026 
L 530.404959 71.100921 
L 539.628099 77.409153 
L 548.85124 87.174824 
L 558.07438 100.796755 
L 567.297521 128.195107 
L 576.520661 167.811824 
L 585.743802 189.74673 
L 594.966942 190.684601 
L 604.190083 181.439077 
L 613.413223 168.534433 
L 622.636364 153.781641 
" clip-path="url(#p067d5328ad)" style="fill: none; stroke: #d3d3d3; stroke-width: 1.5; stroke-linecap: square"/>
   </g>
   <g id="line2d_12">
    <path d="M 115.363636 69.978806 
L 124.586777 76.010506 
L 133.809917 84.686689 
L 143.033058 91.629605 
L 152.256198 95.811154 
L 161.479339 101.041475 
L 170.702479 109.383985 
L 179.92562 119.17514 
L 189.14876 128.064386 
L 198.371901 136.487665 
L 207.595041 150.64838 
L 216.818182 168.817333 
L 226.041322 176.212315 
L 235.264463 173.51418 
L 244.487603 169.1522 
L 253.710744 167.009576 
L 262.933884 165.829202 
L 272.157025 161.658497 
L 281.380165 154.081281 
L 290.603306 148.451973 
L 299.826446 150.16714 
L 309.049587 162.356721 
L 318.272727 185.434413 
L 327.495868 210.882755 
L 336.719008 219.526365 
L 345.942149 208.487697 
L 355.165289 198.457879 
L 364.38843 194.168269 
L 373.61157 185.832465 
L 382.834711 170.22829 
L 392.057851 154.91725 
L 401.280992 145.584771 
L 410.504132 137.743387 
L 419.727273 126.873658 
L 428.950413 124.608816 
L 438.173554 148.827633 
L 447.396694 185.73796 
L 456.619835 202.9895 
L 465.842975 205.527306 
L 475.066116 190.267297 
L 484.289256 159.603767 
L 493.512397 132.031086 
L 502.735537 115.414846 
L 511.958678 106.924503 
L 521.181818 101.509571 
L 530.404959 95.623883 
L 539.628099 87.943588 
L 548.85124 80.190045 
L 558.07438 81.256189 
L 567.297521 113.150204 
L 576.520661 170.260663 
L 585.743802 206.771539 
L 594.966942 217.856298 
L 604.190083 213.193321 
L 613.413223 199.523964 
L 622.636364 181.023434 
" clip-path="url(#p067d5328ad)" style="fill: none; stroke: #d3d3d3; stroke-width: 1.5; stroke-linecap: square"/>
   </g>
   <g id="line2d_13">
    <path d="M 115.363636 124.691477 
L 124.586777 132.309617 
L 133.809917 141.66522 
L 143.033058 147.026943 
L 152.256198 144.647746 
L 161.479339 136.135177 
L 170.702479 127.520535 
L 179.92562 123.721038 
L 189.14876 125.757905 
L 198.371901 136.313248 
L 207.595041 159.659023 
L 216.818182 184.631715 
L 226.041322 195.080399 
L 235.264463 195.156004 
L 244.487603 197.775809 
L 253.710744 206.494271 
L 262.933884 213.933973 
L 272.157025 212.547222 
L 281.380165 204.202951 
L 290.603306 197.784036 
L 299.826446 196.961073 
L 309.049587 200.697402 
L 318.272727 205.805558 
L 327.495868 203.474717 
L 336.719008 181.639978 
L 345.942149 153.1257 
L 355.165289 149.815905 
L 364.38843 156.937981 
L 373.61157 147.346378 
L 382.834711 128.522359 
L 392.057851 117.540914 
L 401.280992 121.163179 
L 410.504132 138.044918 
L 419.727273 159.171911 
L 428.950413 173.001737 
L 438.173554 178.344574 
L 447.396694 164.13661 
L 456.619835 148.221774 
L 465.842975 158.788877 
L 475.066116 152.393845 
L 484.289256 130.821437 
L 493.512397 109.307295 
L 502.735537 94.228559 
L 511.958678 88.317421 
L 521.181818 92.497362 
L 530.404959 103.467798 
L 539.628099 114.013526 
L 548.85124 119.884764 
L 558.07438 128.008202 
L 567.297521 156.940405 
L 576.520661 197.393372 
L 585.743802 218.137803 
L 594.966942 224.562289 
L 604.190083 223.111593 
L 613.413223 213.886247 
L 622.636364 198.280053 
" clip-path="url(#p067d5328ad)" style="fill: none; stroke: #d3d3d3; stroke-width: 1.5; stroke-linecap: square"/>
   </g>
   <g id="line2d_14">
    <path d="M 115.363636 198.009691 
L 124.586777 181.752126 
L 133.809917 157.565339 
L 143.033058 135.284284 
L 152.256198 122.706608 
L 161.479339 122.66886 
L 170.702479 134.054117 
L 179.92562 152.768896 
L 189.14876 173.051565 
L 198.371901 191.271131 
L 207.595041 206.308055 
L 216.818182 217.883066 
L 226.041322 229.392877 
L 235.264463 237.415661 
L 244.487603 237.074357 
L 253.710744 230.647664 
L 262.933884 221.45786 
L 272.157025 203.76258 
L 281.380165 169.449291 
L 290.603306 136.13798 
L 299.826446 128.219054 
L 309.049587 133.36209 
L 318.272727 124.914924 
L 327.495868 112.599719 
L 336.719008 130.83972 
L 345.942149 177.551934 
L 355.165289 220.081421 
L 364.38843 239.139824 
L 373.61157 240.418372 
L 382.834711 235.316503 
L 392.057851 229.206127 
L 401.280992 224.456323 
L 410.504132 223.253094 
L 419.727273 225.666087 
L 428.950413 221.089547 
L 438.173554 194.848353 
L 447.396694 181.068324 
L 456.619835 175.988697 
L 465.842975 151.169514 
L 475.066116 136.384522 
L 484.289256 154.36463 
L 493.512397 187.201146 
L 502.735537 210.469604 
L 511.958678 216.836175 
L 521.181818 211.821389 
L 530.404959 203.498483 
L 539.628099 197.336266 
L 548.85124 195.034944 
L 558.07438 190.075868 
L 567.297521 177.0844 
L 576.520661 164.122253 
L 585.743802 158.062774 
L 594.966942 149.253671 
L 604.190083 129.990553 
L 613.413223 106.543988 
L 622.636364 85.857821 
" clip-path="url(#p067d5328ad)" style="fill: none; stroke: #d3d3d3; stroke-width: 1.5; stroke-linecap: square"/>
   </g>
   <g id="line2d_15">
    <path d="M 115.363636 46.278556 
L 124.586777 46.490461 
L 133.809917 46.738244 
L 143.033058 46.944933 
L 152.256198 47.171194 
L 161.479339 47.634855 
L 170.702479 48.702573 
L 179.92562 50.912201 
L 189.14876 54.852423 
L 198.371901 60.372699 
L 207.595041 65.226313 
L 216.818182 66.426513 
L 226.041322 64.973752 
L 235.264463 64.770705 
L 244.487603 67.454649 
L 253.710744 72.444472 
L 262.933884 79.314542 
L 272.157025 88.011313 
L 281.380165 97.702494 
L 290.603306 107.28074 
L 299.826446 117.610745 
L 309.049587 130.957232 
L 318.272727 146.650975 
L 327.495868 158.468117 
L 336.719008 162.455128 
L 345.942149 169.377598 
L 355.165289 162.965536 
L 364.38843 135.523588 
L 373.61157 118.12839 
L 382.834711 115.610892 
L 392.057851 120.124198 
L 401.280992 125.710579 
L 410.504132 130.043828 
L 419.727273 133.274178 
L 428.950413 135.36069 
L 438.173554 131.0275 
L 447.396694 111.166884 
L 456.619835 105.16282 
L 465.842975 131.437484 
L 475.066116 133.56982 
L 484.289256 122.365449 
L 493.512397 107.178791 
L 502.735537 94.231515 
L 511.958678 85.478737 
L 521.181818 80.452445 
L 530.404959 79.908854 
L 539.628099 85.945249 
L 548.85124 99.941593 
L 558.07438 120.732925 
L 567.297521 143.109893 
L 576.520661 159.09628 
L 585.743802 162.041472 
L 594.966942 150.824015 
L 604.190083 131.666512 
L 613.413223 112.896555 
L 622.636364 98.484657 
" clip-path="url(#p067d5328ad)" style="fill: none; stroke: #d3d3d3; stroke-width: 1.5; stroke-linecap: square"/>
   </g>
   <g id="line2d_16">
    <path d="M 115.363636 47.746655 
L 124.586777 48.446925 
L 133.809917 48.997765 
L 143.033058 49.070659 
L 152.256198 48.842163 
L 161.479339 48.752039 
L 170.702479 49.371516 
L 179.92562 51.586833 
L 189.14876 56.826366 
L 198.371901 66.368555 
L 207.595041 77.559623 
L 216.818182 81.100267 
L 226.041322 73.39418 
L 235.264463 63.429436 
L 244.487603 59.818973 
L 253.710744 64.730722 
L 262.933884 76.273876 
L 272.157025 88.553864 
L 281.380165 94.967853 
L 290.603306 95.974538 
L 299.826446 98.257675 
L 309.049587 107.180151 
L 318.272727 122.645493 
L 327.495868 139.993341 
L 336.719008 158.213694 
L 345.942149 178.620178 
L 355.165289 185.832282 
L 364.38843 179.035046 
L 373.61157 175.417068 
L 382.834711 178.880827 
L 392.057851 183.957474 
L 401.280992 185.454345 
L 410.504132 181.203362 
L 419.727273 173.69299 
L 428.950413 171.107926 
L 438.173554 184.89748 
L 447.396694 217.568958 
L 456.619835 233.007549 
L 465.842975 208.143064 
L 475.066116 174.60472 
L 484.289256 144.218893 
L 493.512397 115.452274 
L 502.735537 92.294871 
L 511.958678 77.427282 
L 521.181818 70.012438 
L 530.404959 69.183481 
L 539.628099 75.772739 
L 548.85124 91.169326 
L 558.07438 113.84572 
L 567.297521 137.516263 
L 576.520661 153.961658 
L 585.743802 156.987755 
L 594.966942 145.90753 
L 604.190083 126.605819 
L 613.413223 106.771645 
L 622.636364 90.623275 
" clip-path="url(#p067d5328ad)" style="fill: none; stroke: #d3d3d3; stroke-width: 1.5; stroke-linecap: square"/>
   </g>
   <g id="line2d_17">
    <path d="M 115.363636 45.225089 
L 124.586777 46.028053 
L 133.809917 46.359775 
L 143.033058 46.209057 
L 152.256198 45.949814 
L 161.479339 45.886961 
L 170.702479 46.241778 
L 179.92562 47.29955 
L 189.14876 49.562548 
L 198.371901 53.656421 
L 207.595041 58.901312 
L 216.818182 61.299702 
L 226.041322 59.056051 
L 235.264463 56.119521 
L 244.487603 55.570017 
L 253.710744 57.675734 
L 262.933884 61.66398 
L 272.157025 66.104878 
L 281.380165 68.718153 
L 290.603306 68.712393 
L 299.826446 69.166535 
L 309.049587 74.838959 
L 318.272727 87.86704 
L 327.495868 104.328163 
L 336.719008 116.985911 
L 345.942149 121.022276 
L 355.165289 113.434848 
L 364.38843 97.023381 
L 373.61157 81.678425 
L 382.834711 72.470973 
L 392.057851 68.908806 
L 401.280992 69.883774 
L 410.504132 75.492316 
L 419.727273 87.222907 
L 428.950413 107.021841 
L 438.173554 132.834523 
L 447.396694 151.185869 
L 456.619835 148.273742 
L 465.842975 130.557524 
L 475.066116 111.581847 
L 484.289256 99.290494 
L 493.512397 93.353659 
L 502.735537 90.402348 
L 511.958678 88.042474 
L 521.181818 85.269742 
L 530.404959 82.54313 
L 539.628099 81.975155 
L 548.85124 86.317876 
L 558.07438 96.117286 
L 567.297521 107.827181 
L 576.520661 115.491393 
L 585.743802 114.404471 
L 594.966942 104.939918 
L 604.190083 92.178199 
L 613.413223 80.717281 
L 622.636364 71.961712 
" clip-path="url(#p067d5328ad)" style="fill: none; stroke: #d3d3d3; stroke-width: 1.5; stroke-linecap: square"/>
   </g>
   <g id="line2d_18">
    <path d="M 115.363636 82.716388 
L 124.586777 98.811164 
L 133.809917 111.84103 
L 143.033058 113.909839 
L 152.256198 107.987053 
L 161.479339 103.57605 
L 170.702479 106.786758 
L 179.92562 118.900985 
L 189.14876 141.482703 
L 198.371901 176.506562 
L 207.595041 212.700803 
L 216.818182 223.630781 
L 226.041322 215.999538 
L 235.264463 203.142864 
L 244.487603 188.490748 
L 253.710744 184.191664 
L 262.933884 196.275393 
L 272.157025 217.714418 
L 281.380165 233.401989 
L 290.603306 238.740526 
L 299.826446 237.855512 
L 309.049587 231.868851 
L 318.272727 216.200273 
L 327.495868 189.224141 
L 336.719008 170.776339 
L 345.942149 178.65365 
L 355.165289 197.474656 
L 364.38843 210.239337 
L 373.61157 217.574473 
L 382.834711 219.871281 
L 392.057851 216.303928 
L 401.280992 211.467505 
L 410.504132 212.80426 
L 419.727273 224.031299 
L 428.950413 236.425687 
L 438.173554 232.442069 
L 447.396694 206.910296 
L 456.619835 182.654473 
L 465.842975 178.279338 
L 475.066116 180.726296 
L 484.289256 177.036287 
L 493.512397 166.792959 
L 502.735537 153.856273 
L 511.958678 141.129635 
L 521.181818 130.450099 
L 530.404959 124.765932 
L 539.628099 129.760567 
L 548.85124 150.336111 
L 558.07438 180.231917 
L 567.297521 202.628255 
L 576.520661 208.991713 
L 585.743802 202.513632 
L 594.966942 182.991452 
L 604.190083 151.85127 
L 613.413223 120.07848 
L 622.636364 95.855347 
" clip-path="url(#p067d5328ad)" style="fill: none; stroke: #d3d3d3; stroke-width: 1.5; stroke-linecap: square"/>
   </g>
   <g id="line2d_19">
    <path d="M 115.363636 137.464904 
L 124.586777 148.893384 
L 133.809917 158.736359 
L 143.033058 160.695242 
L 152.256198 152.920194 
L 161.479339 139.061016 
L 170.702479 128.582481 
L 179.92562 131.531096 
L 189.14876 152.150519 
L 198.371901 187.340192 
L 207.595041 221.272093 
L 216.818182 236.035724 
L 226.041322 235.703878 
L 235.264463 224.853032 
L 244.487603 210.807221 
L 253.710744 206.478709 
L 262.933884 218.035454 
L 272.157025 236.403572 
L 281.380165 242.116364 
L 290.603306 240.408105 
L 299.826446 240.798777 
L 309.049587 235.708892 
L 318.272727 213.694698 
L 327.495868 170.67646 
L 336.719008 125.671708 
L 345.942149 117.560095 
L 355.165289 162.018565 
L 364.38843 214.241993 
L 373.61157 234.632852 
L 382.834711 233.987301 
L 392.057851 227.395892 
L 401.280992 219.086267 
L 410.504132 211.040776 
L 419.727273 207.826963 
L 428.950413 214.808999 
L 438.173554 228.49368 
L 447.396694 230.290114 
L 456.619835 209.463378 
L 465.842975 180.847562 
L 475.066116 156.799455 
L 484.289256 142.521742 
L 493.512397 132.961436 
L 502.735537 122.300455 
L 511.958678 110.989345 
L 521.181818 103.172321 
L 530.404959 103.73753 
L 539.628099 117.077938 
L 548.85124 144.818 
L 558.07438 179.588382 
L 567.297521 206.18939 
L 576.520661 215.99351 
L 585.743802 213.400756 
L 594.966942 203.173369 
L 604.190083 180.652781 
L 613.413223 148.736918 
L 622.636364 120.715896 
" clip-path="url(#p067d5328ad)" style="fill: none; stroke: #d3d3d3; stroke-width: 1.5; stroke-linecap: square"/>
   </g>
   <g id="line2d_20">
    <path d="M 115.363636 194.350009 
L 124.586777 185.61764 
L 133.809917 165.436412 
L 143.033058 144.118375 
L 152.256198 130.867155 
L 161.479339 129.315129 
L 170.702479 139.280643 
L 179.92562 158.325819 
L 189.14876 182.33395 
L 198.371901 206.714256 
L 207.595041 225.838318 
L 216.818182 235.146908 
L 226.041322 239.514546 
L 235.264463 239.30591 
L 244.487603 228.320968 
L 253.710744 208.626042 
L 262.933884 186.24436 
L 272.157025 164.047562 
L 281.380165 147.869445 
L 290.603306 150.846661 
L 299.826446 172.170782 
L 309.049587 192.57914 
L 318.272727 194.757984 
L 327.495868 169.977178 
L 336.719008 122.739235 
L 345.942149 114.711194 
L 355.165289 177.387007 
L 364.38843 213.453135 
L 373.61157 221.980138 
L 382.834711 220.883101 
L 392.057851 217.35168 
L 401.280992 214.90843 
L 410.504132 215.160583 
L 419.727273 217.261684 
L 428.950413 218.83447 
L 438.173554 215.565036 
L 447.396694 194.972992 
L 456.619835 150.457803 
L 465.842975 154.308121 
L 475.066116 188.781766 
L 484.289256 210.365047 
L 493.512397 219.99421 
L 502.735537 221.454124 
L 511.958678 216.714947 
L 521.181818 209.08069 
L 530.404959 203.62932 
L 539.628099 203.296335 
L 548.85124 206.38789 
L 558.07438 208.463759 
L 567.297521 206.449745 
L 576.520661 198.723776 
L 585.743802 183.096765 
L 594.966942 159.460328 
L 604.190083 133.322403 
L 613.413223 110.824637 
L 622.636364 94.148712 
" clip-path="url(#p067d5328ad)" style="fill: none; stroke: #d3d3d3; stroke-width: 1.5; stroke-linecap: square"/>
   </g>
   <g id="line2d_21">
    <path d="M 115.363636 193.929042 
L 124.586777 188.766026 
L 133.809917 168.439183 
L 143.033058 145.325357 
L 152.256198 131.253027 
L 161.479339 130.346506 
L 170.702479 141.66716 
L 179.92562 161.835563 
L 189.14876 186.47509 
L 198.371901 211.811724 
L 207.595041 231.244579 
L 216.818182 236.85657 
L 226.041322 237.919966 
L 235.264463 240.550825 
L 244.487603 232.151044 
L 253.710744 208.158771 
L 262.933884 174.769109 
L 272.157025 141.36324 
L 281.380165 121.074309 
L 290.603306 123.063885 
L 299.826446 140.90017 
L 309.049587 158.383357 
L 318.272727 159.175193 
L 327.495868 133.507144 
L 336.719008 103.954448 
L 345.942149 127.668474 
L 355.165289 182.593565 
L 364.38843 214.828583 
L 373.61157 225.718557 
L 382.834711 227.091718 
L 392.057851 226.230808 
L 401.280992 228.867818 
L 410.504132 236.323586 
L 419.727273 241.575069 
L 428.950413 235.798601 
L 438.173554 228.642905 
L 447.396694 234.917726 
L 456.619835 234.172561 
L 465.842975 227.431357 
L 475.066116 224.959707 
L 484.289256 226.1046 
L 493.512397 227.633718 
L 502.735537 227.078316 
L 511.958678 222.946683 
L 521.181818 215.050276 
L 530.404959 205.424455 
L 539.628099 198.101994 
L 548.85124 196.420331 
L 558.07438 199.254155 
L 567.297521 202.270292 
L 576.520661 201.607303 
L 585.743802 192.809046 
L 594.966942 172.955221 
L 604.190083 146.853643 
L 613.413223 121.866393 
L 622.636364 101.562527 
" clip-path="url(#p067d5328ad)" style="fill: none; stroke: #d3d3d3; stroke-width: 1.5; stroke-linecap: square"/>
   </g>
   <g id="line2d_22">
    <path d="M 115.363636 199.690963 
L 124.586777 179.044093 
L 133.809917 153.470762 
L 143.033058 133.863121 
L 152.256198 126.097007 
L 161.479339 131.370173 
L 170.702479 148.022978 
L 179.92562 171.677734 
L 189.14876 195.500169 
L 198.371901 214.726852 
L 207.595041 228.393227 
L 216.818182 234.431484 
L 226.041322 237.038084 
L 235.264463 237.080975 
L 244.487603 228.987667 
L 253.710744 214.71965 
L 262.933884 200.810406 
L 272.157025 186.125133 
L 281.380165 163.234783 
L 290.603306 142.441162 
L 299.826446 140.724665 
L 309.049587 150.456307 
L 318.272727 152.566239 
L 327.495868 141.883357 
L 336.719008 137.513661 
L 345.942149 164.280605 
L 355.165289 206.022956 
L 364.38843 229.505899 
L 373.61157 233.397198 
L 382.834711 227.141402 
L 392.057851 217.207079 
L 401.280992 208.417115 
L 410.504132 204.920522 
L 419.727273 209.018599 
L 428.950413 217.745382 
L 438.173554 221.042351 
L 447.396694 210.480395 
L 456.619835 180.82028 
L 465.842975 163.933403 
L 475.066116 174.40288 
L 484.289256 190.992382 
L 493.512397 200.240086 
L 502.735537 199.860999 
L 511.958678 192.530986 
L 521.181818 184.623319 
L 530.404959 182.734486 
L 539.628099 189.124723 
L 548.85124 198.349931 
L 558.07438 200.88222 
L 567.297521 195.366654 
L 576.520661 187.448326 
L 585.743802 177.34398 
L 594.966942 159.530956 
L 604.190083 135.712397 
L 613.413223 112.587172 
L 622.636364 93.296045 
" clip-path="url(#p067d5328ad)" style="fill: none; stroke: #d3d3d3; stroke-width: 1.5; stroke-linecap: square"/>
   </g>
   <g id="line2d_23">
    <path d="M 115.363636 162.102687 
L 124.586777 200.964648 
L 133.809917 221.846283 
L 143.033058 217.778488 
L 152.256198 201.125202 
L 161.479339 190.954298 
L 170.702479 193.487663 
L 179.92562 200.153663 
L 189.14876 203.545142 
L 198.371901 206.031157 
L 207.595041 206.018728 
L 216.818182 185.675805 
L 226.041322 151.744307 
L 235.264463 146.917496 
L 244.487603 166.10111 
L 253.710744 188.282049 
L 262.933884 206.358078 
L 272.157025 216.906183 
L 281.380165 222.153884 
L 290.603306 228.323311 
L 299.826446 233.294303 
L 309.049587 229.603897 
L 318.272727 211.812212 
L 327.495868 184.051074 
L 336.719008 165.915115 
L 345.942149 171.341341 
L 355.165289 190.432519 
L 364.38843 206.723823 
L 373.61157 207.807061 
L 382.834711 188.394558 
L 392.057851 160.15605 
L 401.280992 145.454026 
L 410.504132 157.498358 
L 419.727273 192.441005 
L 428.950413 227.781594 
L 438.173554 229.806191 
L 447.396694 203.458134 
L 456.619835 188.095428 
L 465.842975 192.938993 
L 475.066116 207.281321 
L 484.289256 219.089526 
L 493.512397 223.924775 
L 502.735537 221.800296 
L 511.958678 214.281136 
L 521.181818 205.670619 
L 530.404959 199.280568 
L 539.628099 194.197925 
L 548.85124 190.677831 
L 558.07438 191.252287 
L 567.297521 192.330068 
L 576.520661 183.613796 
L 585.743802 162.078273 
L 594.966942 137.364208 
L 604.190083 117.415775 
L 613.413223 102.270932 
L 622.636364 90.339187 
" clip-path="url(#p067d5328ad)" style="fill: none; stroke: #d3d3d3; stroke-width: 1.5; stroke-linecap: square"/>
   </g>
   <g id="line2d_24">
    <path d="M 115.363636 149.268648 
L 124.586777 183.836409 
L 133.809917 213.873564 
L 143.033058 230.497006 
L 152.256198 233.505294 
L 161.479339 227.69453 
L 170.702479 220.306309 
L 179.92562 215.676499 
L 189.14876 214.569248 
L 198.371901 215.753493 
L 207.595041 207.513997 
L 216.818182 176.038046 
L 226.041322 136.680708 
L 235.264463 120.602748 
L 244.487603 131.155548 
L 253.710744 154.378259 
L 262.933884 181.759476 
L 272.157025 206.29338 
L 281.380165 220.135014 
L 290.603306 222.39901 
L 299.826446 212.996309 
L 309.049587 193.359251 
L 318.272727 168.765595 
L 327.495868 147.449167 
L 336.719008 135.958064 
L 345.942149 132.855502 
L 355.165289 133.110724 
L 364.38843 135.120297 
L 373.61157 137.924509 
L 382.834711 138.92372 
L 392.057851 139.461351 
L 401.280992 145.648039 
L 410.504132 164.308703 
L 419.727273 198.70842 
L 428.950413 234.600183 
L 438.173554 225.13525 
L 447.396694 172.526268 
L 456.619835 151.613054 
L 465.842975 165.72834 
L 475.066116 183.5666 
L 484.289256 196.762918 
L 493.512397 205.457475 
L 502.735537 208.849959 
L 511.958678 204.959939 
L 521.181818 194.336667 
L 530.404959 180.711129 
L 539.628099 168.094559 
L 548.85124 159.682183 
L 558.07438 155.486142 
L 567.297521 151.836642 
L 576.520661 145.565986 
L 585.743802 138.552453 
L 594.966942 135.154935 
L 604.190083 133.441145 
L 613.413223 127.688046 
L 622.636364 117.720108 
" clip-path="url(#p067d5328ad)" style="fill: none; stroke: #d3d3d3; stroke-width: 1.5; stroke-linecap: square"/>
   </g>
   <g id="line2d_25">
    <path d="M 115.363636 44.443636 
L 124.586777 44.857062 
L 133.809917 45.144639 
L 143.033058 45.260235 
L 152.256198 45.34065 
L 161.479339 45.493095 
L 170.702479 45.772618 
L 179.92562 46.224631 
L 189.14876 46.909208 
L 198.371901 47.88666 
L 207.595041 48.973487 
L 216.818182 49.442364 
L 226.041322 49.031031 
L 235.264463 48.51322 
L 244.487603 48.514343 
L 253.710744 49.38398 
L 262.933884 51.264015 
L 272.157025 53.018012 
L 281.380165 53.451459 
L 290.603306 53.805922 
L 299.826446 55.93892 
L 309.049587 60.170787 
L 318.272727 66.235197 
L 327.495868 73.469782 
L 336.719008 77.464864 
L 345.942149 82.256358 
L 355.165289 97.991088 
L 364.38843 101.291435 
L 373.61157 98.857012 
L 382.834711 96.531326 
L 392.057851 93.566912 
L 401.280992 88.032316 
L 410.504132 79.97814 
L 419.727273 74.157398 
L 428.950413 80.301916 
L 438.173554 109.756884 
L 447.396694 162.895522 
L 456.619835 195.914003 
L 465.842975 152.738338 
L 475.066116 100.979544 
L 484.289256 72.703774 
L 493.512397 59.506231 
L 502.735537 54.41628 
L 511.958678 53.158111 
L 521.181818 53.310284 
L 530.404959 53.963913 
L 539.628099 54.904243 
L 548.85124 55.693892 
L 558.07438 55.811593 
L 567.297521 55.146256 
L 576.520661 53.880341 
L 585.743802 52.666162 
L 594.966942 52.248255 
L 604.190083 52.362479 
L 613.413223 52.426338 
L 622.636364 52.220807 
" clip-path="url(#p067d5328ad)" style="fill: none; stroke: #d3d3d3; stroke-width: 1.5; stroke-linecap: square"/>
   </g>
   <g id="line2d_26">
    <path d="M 115.363636 45.60694 
L 124.586777 46.179457 
L 133.809917 46.542754 
L 143.033058 46.67843 
L 152.256198 46.863987 
L 161.479339 47.381963 
L 170.702479 48.478369 
L 179.92562 50.386396 
L 189.14876 53.203817 
L 198.371901 56.522765 
L 207.595041 59.392397 
L 216.818182 61.059794 
L 226.041322 61.797598 
L 235.264463 63.039047 
L 244.487603 65.080455 
L 253.710744 67.08434 
L 262.933884 68.59008 
L 272.157025 69.557587 
L 281.380165 69.985735 
L 290.603306 70.098813 
L 299.826446 70.828422 
L 309.049587 73.683768 
L 318.272727 79.968289 
L 327.495868 89.674726 
L 336.719008 101.104932 
L 345.942149 116.836576 
L 355.165289 120.742634 
L 364.38843 107.700989 
L 373.61157 98.471613 
L 382.834711 94.784295 
L 392.057851 92.764362 
L 401.280992 89.672242 
L 410.504132 84.947421 
L 419.727273 80.371013 
L 428.950413 79.376757 
L 438.173554 85.976953 
L 447.396694 100.549787 
L 456.619835 113.311826 
L 465.842975 111.454342 
L 475.066116 96.975321 
L 484.289256 83.85992 
L 493.512397 75.026195 
L 502.735537 69.149104 
L 511.958678 64.775932 
L 521.181818 61.078774 
L 530.404959 57.868374 
L 539.628099 55.534198 
L 548.85124 55.032032 
L 558.07438 57.24179 
L 567.297521 61.938099 
L 576.520661 67.692334 
L 585.743802 72.032773 
L 594.966942 72.758503 
L 604.190083 70.213155 
L 613.413223 66.323535 
L 622.636364 62.486846 
" clip-path="url(#p067d5328ad)" style="fill: none; stroke: #d3d3d3; stroke-width: 1.5; stroke-linecap: square"/>
   </g>
   <g id="line2d_27">
    <path d="M 115.363636 75.265169 
L 124.586777 91.375152 
L 133.809917 103.797852 
L 143.033058 105.844819 
L 152.256198 102.008745 
L 161.479339 101.572307 
L 170.702479 108.393324 
L 179.92562 120.526331 
L 189.14876 136.034706 
L 198.371901 155.998655 
L 207.595041 178.508443 
L 216.818182 188.651187 
L 226.041322 188.11436 
L 235.264463 188.188602 
L 244.487603 180.825259 
L 253.710744 172.041386 
L 262.933884 168.942537 
L 272.157025 171.31206 
L 281.380165 173.369977 
L 290.603306 170.961624 
L 299.826446 167.673665 
L 309.049587 171.885027 
L 318.272727 189.578936 
L 327.495868 216.22108 
L 336.719008 231.913635 
L 345.942149 216.188654 
L 355.165289 197.093369 
L 364.38843 196.632168 
L 373.61157 205.381593 
L 382.834711 219.846623 
L 392.057851 234.424244 
L 401.280992 241.718077 
L 410.504132 240.337221 
L 419.727273 235.231933 
L 428.950413 230.599635 
L 438.173554 225.978232 
L 447.396694 217.845042 
L 456.619835 195.176979 
L 465.842975 160.167456 
L 475.066116 132.247792 
L 484.289256 113.166287 
L 493.512397 100.73577 
L 502.735537 91.138449 
L 511.958678 81.855077 
L 521.181818 73.282109 
L 530.404959 68.578858 
L 539.628099 71.1276 
L 548.85124 80.481299 
L 558.07438 92.059741 
L 567.297521 101.260132 
L 576.520661 106.674922 
L 585.743802 109.759001 
L 594.966942 110.523413 
L 604.190083 107.318653 
L 613.413223 101.658492 
L 622.636364 96.562984 
" clip-path="url(#p067d5328ad)" style="fill: none; stroke: #d3d3d3; stroke-width: 1.5; stroke-linecap: square"/>
   </g>
   <g id="line2d_28">
    <path d="M 115.363636 140.96255 
L 124.586777 150.890765 
L 133.809917 158.57456 
L 143.033058 158.344202 
L 152.256198 148.784599 
L 161.479339 133.457476 
L 170.702479 120.670722 
L 179.92562 117.92027 
L 189.14876 127.414364 
L 198.371901 149.325902 
L 207.595041 180.08467 
L 216.818182 207.685836 
L 226.041322 221.769815 
L 235.264463 218.585514 
L 244.487603 207.863688 
L 253.710744 204.307112 
L 262.933884 211.79293 
L 272.157025 222.066723 
L 281.380165 222.26756 
L 290.603306 213.472647 
L 299.826446 203.272344 
L 309.049587 196.762386 
L 318.272727 196.925025 
L 327.495868 199.754446 
L 336.719008 189.631915 
L 345.942149 172.969914 
L 355.165289 201.684817 
L 364.38843 228.341036 
L 373.61157 233.609657 
L 382.834711 232.179434 
L 392.057851 232.197473 
L 401.280992 234.977409 
L 410.504132 238.389634 
L 419.727273 238.703154 
L 428.950413 233.857754 
L 438.173554 224.695773 
L 447.396694 215.234697 
L 456.619835 190.51783 
L 465.842975 129.974529 
L 475.066116 105.965571 
L 484.289256 100.652198 
L 493.512397 94.248225 
L 502.735537 83.278924 
L 511.958678 70.621378 
L 521.181818 62.345281 
L 530.404959 64.037016 
L 539.628099 76.089253 
L 548.85124 93.545448 
L 558.07438 110.814537 
L 567.297521 125.012367 
L 576.520661 135.628589 
L 585.743802 142.377658 
L 594.966942 143.945076 
L 604.190083 140.286417 
L 613.413223 134.352952 
L 622.636364 128.889109 
" clip-path="url(#p067d5328ad)" style="fill: none; stroke: #d3d3d3; stroke-width: 1.5; stroke-linecap: square"/>
   </g>
   <g id="line2d_29">
    <path d="M 115.363636 47.255618 
L 124.586777 48.904295 
L 133.809917 49.685417 
L 143.033058 49.426482 
L 152.256198 48.827109 
L 161.479339 48.496581 
L 170.702479 48.874199 
L 179.92562 50.518063 
L 189.14876 54.310216 
L 198.371901 61.071797 
L 207.595041 69.653942 
L 216.818182 75.046772 
L 226.041322 73.395682 
L 235.264463 68.457964 
L 244.487603 65.392688 
L 253.710744 65.435414 
L 262.933884 68.00834 
L 272.157025 70.509802 
L 281.380165 69.381963 
L 290.603306 65.020049 
L 299.826446 61.77034 
L 309.049587 63.986118 
L 318.272727 75.723509 
L 327.495868 102.547263 
L 336.719008 145.782715 
L 345.942149 182.617553 
L 355.165289 189.69235 
L 364.38843 183.300605 
L 373.61157 179.117779 
L 382.834711 178.045781 
L 392.057851 176.00073 
L 401.280992 168.370866 
L 410.504132 152.144624 
L 419.727273 128.65269 
L 428.950413 105.480741 
L 438.173554 98.351748 
L 447.396694 133.340993 
L 456.619835 200.818725 
L 465.842975 215.765106 
L 475.066116 177.762035 
L 484.289256 135.370741 
L 493.512397 106.424017 
L 502.735537 90.300753 
L 511.958678 81.941593 
L 521.181818 76.794892 
L 530.404959 72.333866 
L 539.628099 68.476909 
L 548.85124 66.794386 
L 558.07438 68.195718 
L 567.297521 71.974188 
L 576.520661 76.993953 
L 585.743802 81.780835 
L 594.966942 84.106663 
L 604.190083 82.746367 
L 613.413223 78.557486 
L 622.636364 73.014351 
" clip-path="url(#p067d5328ad)" style="fill: none; stroke: #d3d3d3; stroke-width: 1.5; stroke-linecap: square"/>
   </g>
   <g id="line2d_30">
    <path d="M 115.363636 72.70511 
L 124.586777 85.474291 
L 133.809917 95.472467 
L 143.033058 96.432062 
L 152.256198 91.968884 
L 161.479339 90.623476 
L 170.702479 95.990621 
L 179.92562 106.096848 
L 189.14876 119.038956 
L 198.371901 136.324447 
L 207.595041 157.870566 
L 216.818182 169.449214 
L 226.041322 174.01644 
L 235.264463 187.948878 
L 244.487603 192.424691 
L 253.710744 190.034952 
L 262.933884 189.436891 
L 272.157025 190.012146 
L 281.380165 188.391099 
L 290.603306 184.696366 
L 299.826446 183.204988 
L 309.049587 189.783644 
L 318.272727 207.000511 
L 327.495868 224.841116 
L 336.719008 222.157491 
L 345.942149 203.017497 
L 355.165289 190.288536 
L 364.38843 182.15048 
L 373.61157 175.065987 
L 382.834711 174.546828 
L 392.057851 186.920428 
L 401.280992 208.511939 
L 410.504132 225.543641 
L 419.727273 227.727673 
L 428.950413 223.445717 
L 438.173554 227.356557 
L 447.396694 237.490629 
L 456.619835 240.654807 
L 465.842975 233.441359 
L 475.066116 205.254866 
L 484.289256 164.276324 
L 493.512397 129.927794 
L 502.735537 109.84048 
L 511.958678 100.154987 
L 521.181818 94.947962 
L 530.404959 91.403143 
L 539.628099 89.676712 
L 548.85124 90.584605 
L 558.07438 94.176881 
L 567.297521 100.49585 
L 576.520661 109.672721 
L 585.743802 119.152624 
L 594.966942 123.58962 
L 604.190083 121.193429 
L 613.413223 114.819777 
L 622.636364 107.505168 
" clip-path="url(#p067d5328ad)" style="fill: none; stroke: #d3d3d3; stroke-width: 1.5; stroke-linecap: square"/>
   </g>
   <g id="line2d_31">
    <path d="M 115.363636 140.465706 
L 124.586777 147.701905 
L 133.809917 153.311553 
L 143.033058 151.965542 
L 152.256198 141.545 
L 161.479339 124.976453 
L 170.702479 110.29863 
L 179.92562 105.012149 
L 189.14876 111.468722 
L 198.371901 130.390959 
L 207.595041 160.11009 
L 216.818182 191.610221 
L 226.041322 215.450646 
L 235.264463 221.953442 
L 244.487603 215.168003 
L 253.710744 212.774255 
L 262.933884 220.566085 
L 272.157025 230.488609 
L 281.380165 232.843257 
L 290.603306 228.340121 
L 299.826446 223.36469 
L 309.049587 221.288745 
L 318.272727 220.072926 
L 327.495868 208.632479 
L 336.719008 176.84794 
L 345.942149 161.539915 
L 355.165289 190.968394 
L 364.38843 216.203753 
L 373.61157 218.933676 
L 382.834711 211.146509 
L 392.057851 203.933331 
L 401.280992 203.643422 
L 410.504132 210.258244 
L 419.727273 217.629176 
L 428.950413 219.481512 
L 438.173554 211.544727 
L 447.396694 197.54247 
L 456.619835 192.832718 
L 465.842975 178.63179 
L 475.066116 153.603139 
L 484.289256 129.943783 
L 493.512397 111.097881 
L 502.735537 97.131385 
L 511.958678 88.085945 
L 521.181818 84.801031 
L 530.404959 87.72907 
L 539.628099 95.582386 
L 548.85124 106.653388 
L 558.07438 120.353818 
L 567.297521 136.224792 
L 576.520661 152.166945 
L 585.743802 163.6954 
L 594.966942 166.581894 
L 604.190083 161.233914 
L 613.413223 152.077927 
L 622.636364 142.667317 
" clip-path="url(#p067d5328ad)" style="fill: none; stroke: #d3d3d3; stroke-width: 1.5; stroke-linecap: square"/>
   </g>
   <g id="line2d_32">
    <path d="M 115.363636 88.362051 
L 124.586777 109.181068 
L 133.809917 123.329183 
L 143.033058 122.879949 
L 152.256198 112.920869 
L 161.479339 104.288973 
L 170.702479 103.241572 
L 179.92562 110.185175 
L 189.14876 125.539083 
L 198.371901 151.876453 
L 207.595041 184.395207 
L 216.818182 204.108949 
L 226.041322 209.315054 
L 235.264463 202.12086 
L 244.487603 186.285022 
L 253.710744 177.040899 
L 262.933884 180.352084 
L 272.157025 192.386896 
L 281.380165 203.330458 
L 290.603306 207.374844 
L 299.826446 207.893684 
L 309.049587 212.309517 
L 318.272727 223.57979 
L 327.495868 232.407658 
L 336.719008 227.387638 
L 345.942149 220.283138 
L 355.165289 222.504453 
L 364.38843 227.171794 
L 373.61157 232.13534 
L 382.834711 235.42018 
L 392.057851 233.875509 
L 401.280992 228.898098 
L 410.504132 226.709535 
L 419.727273 232.005427 
L 428.950413 237.426974 
L 438.173554 226.587923 
L 447.396694 194.21334 
L 456.619835 154.40502 
L 465.842975 122.23254 
L 475.066116 103.110378 
L 484.289256 93.633313 
L 493.512397 88.218618 
L 502.735537 84.347717 
L 511.958678 81.154417 
L 521.181818 78.507569 
L 530.404959 77.633439 
L 539.628099 81.228907 
L 548.85124 90.84179 
L 558.07438 103.768265 
L 567.297521 114.99721 
L 576.520661 120.95267 
L 585.743802 119.917533 
L 594.966942 110.649983 
L 604.190083 95.677157 
L 613.413223 81.451135 
L 622.636364 71.701665 
" clip-path="url(#p067d5328ad)" style="fill: none; stroke: #d3d3d3; stroke-width: 1.5; stroke-linecap: square"/>
   </g>
   <g id="line2d_33">
    <path d="M 115.363636 149.410781 
L 124.586777 162.827868 
L 133.809917 172.338169 
L 143.033058 171.691056 
L 152.256198 159.946008 
L 161.479339 141.05207 
L 170.702479 124.577371 
L 179.92562 120.67317 
L 189.14876 133.843987 
L 198.371901 163.60582 
L 207.595041 200.598823 
L 216.818182 226.0817 
L 226.041322 231.849465 
L 235.264463 220.925957 
L 244.487603 206.113393 
L 253.710744 200.7077 
L 262.933884 208.221264 
L 272.157025 222.937091 
L 281.380165 232.185299 
L 290.603306 233.270901 
L 299.826446 232.216681 
L 309.049587 231.654212 
L 318.272727 230.027444 
L 327.495868 218.961371 
L 336.719008 190.647764 
L 345.942149 170.424106 
L 355.165289 194.511386 
L 364.38843 228.930256 
L 373.61157 241.745552 
L 382.834711 240.526748 
L 392.057851 236.284 
L 401.280992 233.147766 
L 410.504132 233.179917 
L 419.727273 236.745029 
L 428.950413 235.905157 
L 438.173554 217.454011 
L 447.396694 197.954586 
L 456.619835 187.43883 
L 465.842975 138.082287 
L 475.066116 96.220536 
L 484.289256 77.593184 
L 493.512397 67.683985 
L 502.735537 59.939098 
L 511.958678 55.518256 
L 521.181818 57.645377 
L 530.404959 67.157683 
L 539.628099 81.632553 
L 548.85124 98.755772 
L 558.07438 117.163876 
L 567.297521 134.561936 
L 576.520661 148.064321 
L 585.743802 154.279307 
L 594.966942 148.867858 
L 604.190083 131.818319 
L 613.413223 112.032476 
L 622.636364 97.858842 
" clip-path="url(#p067d5328ad)" style="fill: none; stroke: #d3d3d3; stroke-width: 1.5; stroke-linecap: square"/>
   </g>
   <g id="line2d_34">
    <path d="M 115.363636 95.931965 
L 124.586777 92.348701 
L 133.809917 86.441963 
L 143.033058 79.306915 
L 152.256198 72.607785 
L 161.479339 67.804075 
L 170.702479 66.598092 
L 179.92562 69.596375 
L 189.14876 74.81597 
L 198.371901 80.363776 
L 207.595041 85.793785 
L 216.818182 87.932531 
L 226.041322 79.914577 
L 235.264463 69.423436 
L 244.487603 67.074004 
L 253.710744 70.569747 
L 262.933884 76.447654 
L 272.157025 81.6839 
L 281.380165 84.46135 
L 290.603306 85.484875 
L 299.826446 84.341911 
L 309.049587 80.978747 
L 318.272727 76.88155 
L 327.495868 75.850339 
L 336.719008 83.034357 
L 345.942149 99.827262 
L 355.165289 121.764338 
L 364.38843 140.476231 
L 373.61157 146.426127 
L 382.834711 137.303389 
L 392.057851 122.597386 
L 401.280992 115.866043 
L 410.504132 125.022289 
L 419.727273 146.289416 
L 428.950413 162.869801 
L 438.173554 162.624655 
L 447.396694 149.505481 
L 456.619835 132.116184 
L 465.842975 112.146204 
L 475.066116 91.54828 
L 484.289256 76.044316 
L 493.512397 67.432559 
L 502.735537 64.280731 
L 511.958678 64.848127 
L 521.181818 67.786608 
L 530.404959 70.806248 
L 539.628099 70.899506 
L 548.85124 67.853293 
L 558.07438 65.579581 
L 567.297521 67.838984 
L 576.520661 74.277039 
L 585.743802 81.052385 
L 594.966942 84.12284 
L 604.190083 82.55906 
L 613.413223 78.236016 
L 622.636364 73.321559 
" clip-path="url(#p067d5328ad)" style="fill: none; stroke: #d3d3d3; stroke-width: 1.5; stroke-linecap: square"/>
   </g>
   <g id="line2d_35"/>
   <g id="line2d_36"/>
   <g id="line2d_37"/>
   <g id="line2d_38"/>
   <g id="line2d_39"/>
   <g id="line2d_40"/>
   <g id="line2d_41"/>
   <g id="line2d_42"/>
   <g id="line2d_43"/>
   <g id="line2d_44"/>
   <g id="line2d_45"/>
   <g id="line2d_46"/>
   <g id="line2d_47"/>
   <g id="line2d_48"/>
   <g id="line2d_49"/>
   <g id="line2d_50"/>
   <g id="line2d_51"/>
   <g id="line2d_52"/>
   <g id="line2d_53"/>
   <g id="line2d_54"/>
   <g id="line2d_55"/>
   <g id="line2d_56"/>
   <g id="line2d_57"/>
   <g id="line2d_58"/>
   <g id="line2d_59"/>
   <g id="line2d_60"/>
   <g id="line2d_61"/>
   <g id="line2d_62"/>
   <g id="patch_3">
    <path d="M 90 252 
L 90 34.56 
" style="fill: none; stroke: #000000; stroke-width: 0.8; stroke-linejoin: miter; stroke-linecap: square"/>
   </g>
   <g id="patch_4">
    <path d="M 648 252 
L 648 34.56 
" style="fill: none; stroke: #000000; stroke-width: 0.8; stroke-linejoin: miter; stroke-linecap: square"/>
   </g>
   <g id="patch_5">
    <path d="M 90 252 
L 648 252 
" style="fill: none; stroke: #000000; stroke-width: 0.8; stroke-linejoin: miter; stroke-linecap: square"/>
   </g>
   <g id="patch_6">
    <path d="M 90 34.56 
L 648 34.56 
" style="fill: none; stroke: #000000; stroke-width: 0.8; stroke-linejoin: miter; stroke-linecap: square"/>
   </g>
   <g id="text_8">
    <!-- Coherence -->
    <g transform="translate(336.827812 28.56)scale(0.12 -0.12)">
     <defs>
      <path id="DejaVuSans-43" d="M 4122 4306 
L 4122 3641 
Q 3803 3938 3442 4084 
Q 3081 4231 2675 4231 
Q 1875 4231 1450 3742 
Q 1025 3253 1025 2328 
Q 1025 1406 1450 917 
Q 1875 428 2675 428 
Q 3081 428 3442 575 
Q 3803 722 4122 1019 
L 4122 359 
Q 3791 134 3420 21 
Q 3050 -91 2638 -91 
Q 1578 -91 968 557 
Q 359 1206 359 2328 
Q 359 3453 968 4101 
Q 1578 4750 2638 4750 
Q 3056 4750 3426 4639 
Q 3797 4528 4122 4306 
z
" transform="scale(0.015625)"/>
      <path id="DejaVuSans-6f" d="M 1959 3097 
Q 1497 3097 1228 2736 
Q 959 2375 959 1747 
Q 959 1119 1226 758 
Q 1494 397 1959 397 
Q 2419 397 2687 759 
Q 2956 1122 2956 1747 
Q 2956 2369 2687 2733 
Q 2419 3097 1959 3097 
z
M 1959 3584 
Q 2709 3584 3137 3096 
Q 3566 2609 3566 1747 
Q 3566 888 3137 398 
Q 2709 -91 1959 -91 
Q 1206 -91 779 398 
Q 353 888 353 1747 
Q 353 2609 779 3096 
Q 1206 3584 1959 3584 
z
" transform="scale(0.015625)"/>
      <path id="DejaVuSans-68" d="M 3513 2113 
L 3513 0 
L 2938 0 
L 2938 2094 
Q 2938 2591 2744 2837 
Q 2550 3084 2163 3084 
Q 1697 3084 1428 2787 
Q 1159 2491 1159 1978 
L 1159 0 
L 581 0 
L 581 4863 
L 1159 4863 
L 1159 2956 
Q 1366 3272 1645 3428 
Q 1925 3584 2291 3584 
Q 2894 3584 3203 3211 
Q 3513 2838 3513 2113 
z
" transform="scale(0.015625)"/>
     </defs>
     <use xlink:href="#DejaVuSans-43"/>
     <use xlink:href="#DejaVuSans-6f" x="69.824219"/>
     <use xlink:href="#DejaVuSans-68" x="131.005859"/>
     <use xlink:href="#DejaVuSans-65" x="194.384766"/>
     <use xlink:href="#DejaVuSans-72" x="255.908203"/>
     <use xlink:href="#DejaVuSans-65" x="294.771484"/>
     <use xlink:href="#DejaVuSans-6e" x="356.294922"/>
     <use xlink:href="#DejaVuSans-63" x="419.673828"/>
     <use xlink:href="#DejaVuSans-65" x="474.654297"/>
    </g>
   </g>
  </g>
 </g>
 <defs>
  <clipPath id="p067d5328ad">
   <rect x="90" y="34.56" width="558" height="217.44"/>
  </clipPath>
 </defs>
</svg>
