<?xml version="1.0" encoding="utf-8" standalone="no"?>
<!DOCTYPE svg PUBLIC "-//W3C//DTD SVG 1.1//EN"
  "http://www.w3.org/Graphics/SVG/1.1/DTD/svg11.dtd">
<svg xmlns:xlink="http://www.w3.org/1999/xlink" width="1728pt" height="432pt" viewBox="0 0 1728 432" xmlns="http://www.w3.org/2000/svg" version="1.1">
 <metadata>
  <rdf:RDF xmlns:dc="http://purl.org/dc/elements/1.1/" xmlns:cc="http://creativecommons.org/ns#" xmlns:rdf="http://www.w3.org/1999/02/22-rdf-syntax-ns#">
   <cc:Work>
    <dc:type rdf:resource="http://purl.org/dc/dcmitype/StillImage"/>
    <dc:date>2023-06-27T15:06:45.318145</dc:date>
    <dc:format>image/svg+xml</dc:format>
    <dc:creator>
     <cc:Agent>
      <dc:title>Matplotlib v3.5.3, https://matplotlib.org/</dc:title>
     </cc:Agent>
    </dc:creator>
   </cc:Work>
  </rdf:RDF>
 </metadata>
 <defs>
  <style type="text/css">*{stroke-linejoin: round; stroke-linecap: butt}</style>
 </defs>
 <g id="figure_1">
  <g id="patch_1">
   <path d="M 0 432 
L 1728 432 
L 1728 0 
L 0 0 
L 0 432 
z
" style="fill: none"/>
  </g>
  <g id="axes_1">
   <g id="patch_2">
    <path d="M 216 378 
L 1555.2 378 
L 1555.2 51.84 
L 216 51.84 
z
" style="fill: #ffffff"/>
   </g>
   <g id="patch_3">
    <path d="M 276.872727 378 
L 351.410761 378 
L 351.410761 193.115871 
L 276.872727 193.115871 
z
" clip-path="url(#pd1c7fe2dd5)" style="fill: #1f77b4; opacity: 0.5; stroke: #808080; stroke-linejoin: miter"/>
   </g>
   <g id="patch_4">
    <path d="M 773.79295 378 
L 848.330983 378 
L 848.330983 188.693726 
L 773.79295 188.693726 
z
" clip-path="url(#pd1c7fe2dd5)" style="fill: #1f77b4; opacity: 0.5; stroke: #808080; stroke-linejoin: miter"/>
   </g>
   <g id="patch_5">
    <path d="M 1270.713173 378 
L 1345.251206 378 
L 1345.251206 232.863489 
L 1270.713173 232.863489 
z
" clip-path="url(#pd1c7fe2dd5)" style="fill: #1f77b4; opacity: 0.5; stroke: #808080; stroke-linejoin: miter"/>
   </g>
   <g id="patch_6">
    <path d="M 351.410761 378 
L 425.948794 378 
L 425.948794 136.4904 
L 351.410761 136.4904 
z
" clip-path="url(#pd1c7fe2dd5)" style="fill: #ff7f0e; opacity: 0.5; stroke: #808080; stroke-linejoin: miter"/>
   </g>
   <g id="patch_7">
    <path d="M 848.330983 378 
L 922.869017 378 
L 922.869017 135.576454 
L 848.330983 135.576454 
z
" clip-path="url(#pd1c7fe2dd5)" style="fill: #ff7f0e; opacity: 0.5; stroke: #808080; stroke-linejoin: miter"/>
   </g>
   <g id="patch_8">
    <path d="M 1345.251206 378 
L 1419.789239 378 
L 1419.789239 212.203917 
L 1345.251206 212.203917 
z
" clip-path="url(#pd1c7fe2dd5)" style="fill: #ff7f0e; opacity: 0.5; stroke: #808080; stroke-linejoin: miter"/>
   </g>
   <g id="patch_9">
    <path d="M 425.948794 378 
L 500.486827 378 
L 500.486827 99.391503 
L 425.948794 99.391503 
z
" clip-path="url(#pd1c7fe2dd5)" style="fill: #2ca02c; opacity: 0.5; stroke: #808080; stroke-linejoin: miter"/>
   </g>
   <g id="patch_10">
    <path d="M 922.869017 378 
L 997.40705 378 
L 997.40705 110.713416 
L 922.869017 110.713416 
z
" clip-path="url(#pd1c7fe2dd5)" style="fill: #2ca02c; opacity: 0.5; stroke: #808080; stroke-linejoin: miter"/>
   </g>
   <g id="patch_11">
    <path d="M 1419.789239 378 
L 1494.327273 378 
L 1494.327273 171.251205 
L 1419.789239 171.251205 
z
" clip-path="url(#pd1c7fe2dd5)" style="fill: #2ca02c; opacity: 0.5; stroke: #808080; stroke-linejoin: miter"/>
   </g>
   <g id="PathCollection_1">
    <defs>
     <path id="mb3a13b1c5d" d="M 0 3 
C 0.795609 3 1.55874 2.683901 2.12132 2.12132 
C 2.683901 1.55874 3 0.795609 3 0 
C 3 -0.795609 2.683901 -1.55874 2.12132 -2.12132 
C 1.55874 -2.683901 0.795609 -3 0 -3 
C -0.795609 -3 -1.55874 -2.683901 -2.12132 -2.12132 
C -2.683901 -1.55874 -3 -0.795609 -3 0 
C -3 0.795609 -2.683901 1.55874 -2.12132 2.12132 
C -1.55874 2.683901 -0.795609 3 0 3 
z
" style="stroke: #000000"/>
    </defs>
    <g clip-path="url(#pd1c7fe2dd5)">
     <use xlink:href="#mb3a13b1c5d" x="314.141744" y="229.956259" style="stroke: #000000"/>
     <use xlink:href="#mb3a13b1c5d" x="314.141744" y="205.206283" style="stroke: #000000"/>
     <use xlink:href="#mb3a13b1c5d" x="314.141744" y="164.075447" style="stroke: #000000"/>
     <use xlink:href="#mb3a13b1c5d" x="314.141744" y="168.395122" style="stroke: #000000"/>
     <use xlink:href="#mb3a13b1c5d" x="314.141744" y="201.087929" style="stroke: #000000"/>
     <use xlink:href="#mb3a13b1c5d" x="314.141744" y="189.974185" style="stroke: #000000"/>
    </g>
   </g>
   <g id="PathCollection_2">
    <g clip-path="url(#pd1c7fe2dd5)">
     <use xlink:href="#mb3a13b1c5d" x="388.679777" y="144.167062" style="stroke: #000000"/>
     <use xlink:href="#mb3a13b1c5d" x="388.679777" y="78.658828" style="stroke: #000000"/>
     <use xlink:href="#mb3a13b1c5d" x="388.679777" y="81.697255" style="stroke: #000000"/>
     <use xlink:href="#mb3a13b1c5d" x="388.679777" y="149.681096" style="stroke: #000000"/>
     <use xlink:href="#mb3a13b1c5d" x="388.679777" y="149.782434" style="stroke: #000000"/>
     <use xlink:href="#mb3a13b1c5d" x="388.679777" y="86.853352" style="stroke: #000000"/>
     <use xlink:href="#mb3a13b1c5d" x="388.679777" y="195.89956" style="stroke: #000000"/>
     <use xlink:href="#mb3a13b1c5d" x="388.679777" y="142.108183" style="stroke: #000000"/>
     <use xlink:href="#mb3a13b1c5d" x="388.679777" y="154.384821" style="stroke: #000000"/>
     <use xlink:href="#mb3a13b1c5d" x="388.679777" y="132.712846" style="stroke: #000000"/>
     <use xlink:href="#mb3a13b1c5d" x="388.679777" y="185.448959" style="stroke: #000000"/>
    </g>
   </g>
   <g id="PathCollection_3">
    <g clip-path="url(#pd1c7fe2dd5)">
     <use xlink:href="#mb3a13b1c5d" x="463.217811" y="86.777147" style="stroke: #000000"/>
     <use xlink:href="#mb3a13b1c5d" x="463.217811" y="73.684771" style="stroke: #000000"/>
     <use xlink:href="#mb3a13b1c5d" x="463.217811" y="77.661375" style="stroke: #000000"/>
     <use xlink:href="#mb3a13b1c5d" x="463.217811" y="149.43608" style="stroke: #000000"/>
     <use xlink:href="#mb3a13b1c5d" x="463.217811" y="67.371429" style="stroke: #000000"/>
     <use xlink:href="#mb3a13b1c5d" x="463.217811" y="85.732744" style="stroke: #000000"/>
     <use xlink:href="#mb3a13b1c5d" x="463.217811" y="143.103325" style="stroke: #000000"/>
     <use xlink:href="#mb3a13b1c5d" x="463.217811" y="113.858848" style="stroke: #000000"/>
     <use xlink:href="#mb3a13b1c5d" x="463.217811" y="96.897812" style="stroke: #000000"/>
    </g>
   </g>
   <g id="PathCollection_4">
    <g clip-path="url(#pd1c7fe2dd5)">
     <use xlink:href="#mb3a13b1c5d" x="811.061967" y="246.009817" style="stroke: #000000"/>
     <use xlink:href="#mb3a13b1c5d" x="811.061967" y="176.515238" style="stroke: #000000"/>
     <use xlink:href="#mb3a13b1c5d" x="811.061967" y="164.324394" style="stroke: #000000"/>
     <use xlink:href="#mb3a13b1c5d" x="811.061967" y="178.053133" style="stroke: #000000"/>
     <use xlink:href="#mb3a13b1c5d" x="811.061967" y="195.979465" style="stroke: #000000"/>
     <use xlink:href="#mb3a13b1c5d" x="811.061967" y="171.280307" style="stroke: #000000"/>
    </g>
   </g>
   <g id="PathCollection_5">
    <g clip-path="url(#pd1c7fe2dd5)">
     <use xlink:href="#mb3a13b1c5d" x="885.6" y="138.724371" style="stroke: #000000"/>
     <use xlink:href="#mb3a13b1c5d" x="885.6" y="100.239801" style="stroke: #000000"/>
     <use xlink:href="#mb3a13b1c5d" x="885.6" y="87.467754" style="stroke: #000000"/>
     <use xlink:href="#mb3a13b1c5d" x="885.6" y="148.879919" style="stroke: #000000"/>
     <use xlink:href="#mb3a13b1c5d" x="885.6" y="167.825284" style="stroke: #000000"/>
     <use xlink:href="#mb3a13b1c5d" x="885.6" y="101.550086" style="stroke: #000000"/>
     <use xlink:href="#mb3a13b1c5d" x="885.6" y="160.811953" style="stroke: #000000"/>
     <use xlink:href="#mb3a13b1c5d" x="885.6" y="153.196135" style="stroke: #000000"/>
     <use xlink:href="#mb3a13b1c5d" x="885.6" y="138.301243" style="stroke: #000000"/>
     <use xlink:href="#mb3a13b1c5d" x="885.6" y="134.818957" style="stroke: #000000"/>
     <use xlink:href="#mb3a13b1c5d" x="885.6" y="159.525487" style="stroke: #000000"/>
    </g>
   </g>
   <g id="PathCollection_6">
    <g clip-path="url(#pd1c7fe2dd5)">
     <use xlink:href="#mb3a13b1c5d" x="960.138033" y="88.263339" style="stroke: #000000"/>
     <use xlink:href="#mb3a13b1c5d" x="960.138033" y="112.774492" style="stroke: #000000"/>
     <use xlink:href="#mb3a13b1c5d" x="960.138033" y="85.892072" style="stroke: #000000"/>
     <use xlink:href="#mb3a13b1c5d" x="960.138033" y="141.996437" style="stroke: #000000"/>
     <use xlink:href="#mb3a13b1c5d" x="960.138033" y="85.599618" style="stroke: #000000"/>
     <use xlink:href="#mb3a13b1c5d" x="960.138033" y="104.988625" style="stroke: #000000"/>
     <use xlink:href="#mb3a13b1c5d" x="960.138033" y="159.67672" style="stroke: #000000"/>
     <use xlink:href="#mb3a13b1c5d" x="960.138033" y="114.691945" style="stroke: #000000"/>
     <use xlink:href="#mb3a13b1c5d" x="960.138033" y="102.537497" style="stroke: #000000"/>
    </g>
   </g>
   <g id="PathCollection_7">
    <g clip-path="url(#pd1c7fe2dd5)">
     <use xlink:href="#mb3a13b1c5d" x="1307.982189" y="230.894027" style="stroke: #000000"/>
     <use xlink:href="#mb3a13b1c5d" x="1307.982189" y="231.425499" style="stroke: #000000"/>
     <use xlink:href="#mb3a13b1c5d" x="1307.982189" y="228.292198" style="stroke: #000000"/>
     <use xlink:href="#mb3a13b1c5d" x="1307.982189" y="243.635496" style="stroke: #000000"/>
     <use xlink:href="#mb3a13b1c5d" x="1307.982189" y="226.592943" style="stroke: #000000"/>
     <use xlink:href="#mb3a13b1c5d" x="1307.982189" y="236.340767" style="stroke: #000000"/>
    </g>
   </g>
   <g id="PathCollection_8">
    <g clip-path="url(#pd1c7fe2dd5)">
     <use xlink:href="#mb3a13b1c5d" x="1382.520223" y="234.150792" style="stroke: #000000"/>
     <use xlink:href="#mb3a13b1c5d" x="1382.520223" y="189.467314" style="stroke: #000000"/>
     <use xlink:href="#mb3a13b1c5d" x="1382.520223" y="220.362981" style="stroke: #000000"/>
     <use xlink:href="#mb3a13b1c5d" x="1382.520223" y="205.229885" style="stroke: #000000"/>
     <use xlink:href="#mb3a13b1c5d" x="1382.520223" y="207.999672" style="stroke: #000000"/>
     <use xlink:href="#mb3a13b1c5d" x="1382.520223" y="222.828886" style="stroke: #000000"/>
     <use xlink:href="#mb3a13b1c5d" x="1382.520223" y="224.441784" style="stroke: #000000"/>
     <use xlink:href="#mb3a13b1c5d" x="1382.520223" y="228.872856" style="stroke: #000000"/>
     <use xlink:href="#mb3a13b1c5d" x="1382.520223" y="175.422888" style="stroke: #000000"/>
     <use xlink:href="#mb3a13b1c5d" x="1382.520223" y="181.836178" style="stroke: #000000"/>
     <use xlink:href="#mb3a13b1c5d" x="1382.520223" y="243.629849" style="stroke: #000000"/>
    </g>
   </g>
   <g id="PathCollection_9">
    <g clip-path="url(#pd1c7fe2dd5)">
     <use xlink:href="#mb3a13b1c5d" x="1457.058256" y="137.236902" style="stroke: #000000"/>
     <use xlink:href="#mb3a13b1c5d" x="1457.058256" y="178.490431" style="stroke: #000000"/>
     <use xlink:href="#mb3a13b1c5d" x="1457.058256" y="147.209432" style="stroke: #000000"/>
     <use xlink:href="#mb3a13b1c5d" x="1457.058256" y="187.104885" style="stroke: #000000"/>
     <use xlink:href="#mb3a13b1c5d" x="1457.058256" y="160.028742" style="stroke: #000000"/>
     <use xlink:href="#mb3a13b1c5d" x="1457.058256" y="169.686932" style="stroke: #000000"/>
     <use xlink:href="#mb3a13b1c5d" x="1457.058256" y="195.430234" style="stroke: #000000"/>
     <use xlink:href="#mb3a13b1c5d" x="1457.058256" y="187.581269" style="stroke: #000000"/>
     <use xlink:href="#mb3a13b1c5d" x="1457.058256" y="178.492017" style="stroke: #000000"/>
    </g>
   </g>
   <g id="matplotlib.axis_1">
    <g id="xtick_1">
     <g id="line2d_1">
      <defs>
       <path id="m59fd576b96" d="M 0 0 
L 0 3.5 
" style="stroke: #000000; stroke-width: 0.8"/>
      </defs>
      <g>
       <use xlink:href="#m59fd576b96" x="388.679777" y="378" style="stroke: #000000; stroke-width: 0.8"/>
      </g>
     </g>
     <g id="text_1">
      <!-- 1 -->
      <g transform="translate(385.498527 392.598437)scale(0.1 -0.1)">
       <defs>
        <path id="DejaVuSans-31" d="M 794 531 
L 1825 531 
L 1825 4091 
L 703 3866 
L 703 4441 
L 1819 4666 
L 2450 4666 
L 2450 531 
L 3481 531 
L 3481 0 
L 794 0 
L 794 531 
z
" transform="scale(0.015625)"/>
       </defs>
       <use xlink:href="#DejaVuSans-31"/>
      </g>
     </g>
    </g>
    <g id="xtick_2">
     <g id="line2d_2">
      <g>
       <use xlink:href="#m59fd576b96" x="885.6" y="378" style="stroke: #000000; stroke-width: 0.8"/>
      </g>
     </g>
     <g id="text_2">
      <!-- 2 -->
      <g transform="translate(882.41875 392.598437)scale(0.1 -0.1)">
       <defs>
        <path id="DejaVuSans-32" d="M 1228 531 
L 3431 531 
L 3431 0 
L 469 0 
L 469 531 
Q 828 903 1448 1529 
Q 2069 2156 2228 2338 
Q 2531 2678 2651 2914 
Q 2772 3150 2772 3378 
Q 2772 3750 2511 3984 
Q 2250 4219 1831 4219 
Q 1534 4219 1204 4116 
Q 875 4013 500 3803 
L 500 4441 
Q 881 4594 1212 4672 
Q 1544 4750 1819 4750 
Q 2544 4750 2975 4387 
Q 3406 4025 3406 3419 
Q 3406 3131 3298 2873 
Q 3191 2616 2906 2266 
Q 2828 2175 2409 1742 
Q 1991 1309 1228 531 
z
" transform="scale(0.015625)"/>
       </defs>
       <use xlink:href="#DejaVuSans-32"/>
      </g>
     </g>
    </g>
    <g id="xtick_3">
     <g id="line2d_3">
      <g>
       <use xlink:href="#m59fd576b96" x="1382.520223" y="378" style="stroke: #000000; stroke-width: 0.8"/>
      </g>
     </g>
     <g id="text_3">
      <!-- 3 -->
      <g transform="translate(1379.338973 392.598437)scale(0.1 -0.1)">
       <defs>
        <path id="DejaVuSans-33" d="M 2597 2516 
Q 3050 2419 3304 2112 
Q 3559 1806 3559 1356 
Q 3559 666 3084 287 
Q 2609 -91 1734 -91 
Q 1441 -91 1130 -33 
Q 819 25 488 141 
L 488 750 
Q 750 597 1062 519 
Q 1375 441 1716 441 
Q 2309 441 2620 675 
Q 2931 909 2931 1356 
Q 2931 1769 2642 2001 
Q 2353 2234 1838 2234 
L 1294 2234 
L 1294 2753 
L 1863 2753 
Q 2328 2753 2575 2939 
Q 2822 3125 2822 3475 
Q 2822 3834 2567 4026 
Q 2313 4219 1838 4219 
Q 1578 4219 1281 4162 
Q 984 4106 628 3988 
L 628 4550 
Q 988 4650 1302 4700 
Q 1616 4750 1894 4750 
Q 2613 4750 3031 4423 
Q 3450 4097 3450 3541 
Q 3450 3153 3228 2886 
Q 3006 2619 2597 2516 
z
" transform="scale(0.015625)"/>
       </defs>
       <use xlink:href="#DejaVuSans-33"/>
      </g>
     </g>
    </g>
    <g id="text_4">
     <!-- Network -->
     <g transform="translate(864.723438 406.276563)scale(0.1 -0.1)">
      <defs>
       <path id="DejaVuSans-4e" d="M 628 4666 
L 1478 4666 
L 3547 763 
L 3547 4666 
L 4159 4666 
L 4159 0 
L 3309 0 
L 1241 3903 
L 1241 0 
L 628 0 
L 628 4666 
z
" transform="scale(0.015625)"/>
       <path id="DejaVuSans-65" d="M 3597 1894 
L 3597 1613 
L 953 1613 
Q 991 1019 1311 708 
Q 1631 397 2203 397 
Q 2534 397 2845 478 
Q 3156 559 3463 722 
L 3463 178 
Q 3153 47 2828 -22 
Q 2503 -91 2169 -91 
Q 1331 -91 842 396 
Q 353 884 353 1716 
Q 353 2575 817 3079 
Q 1281 3584 2069 3584 
Q 2775 3584 3186 3129 
Q 3597 2675 3597 1894 
z
M 3022 2063 
Q 3016 2534 2758 2815 
Q 2500 3097 2075 3097 
Q 1594 3097 1305 2825 
Q 1016 2553 972 2059 
L 3022 2063 
z
" transform="scale(0.015625)"/>
       <path id="DejaVuSans-74" d="M 1172 4494 
L 1172 3500 
L 2356 3500 
L 2356 3053 
L 1172 3053 
L 1172 1153 
Q 1172 725 1289 603 
Q 1406 481 1766 481 
L 2356 481 
L 2356 0 
L 1766 0 
Q 1100 0 847 248 
Q 594 497 594 1153 
L 594 3053 
L 172 3053 
L 172 3500 
L 594 3500 
L 594 4494 
L 1172 4494 
z
" transform="scale(0.015625)"/>
       <path id="DejaVuSans-77" d="M 269 3500 
L 844 3500 
L 1563 769 
L 2278 3500 
L 2956 3500 
L 3675 769 
L 4391 3500 
L 4966 3500 
L 4050 0 
L 3372 0 
L 2619 2869 
L 1863 0 
L 1184 0 
L 269 3500 
z
" transform="scale(0.015625)"/>
       <path id="DejaVuSans-6f" d="M 1959 3097 
Q 1497 3097 1228 2736 
Q 959 2375 959 1747 
Q 959 1119 1226 758 
Q 1494 397 1959 397 
Q 2419 397 2687 759 
Q 2956 1122 2956 1747 
Q 2956 2369 2687 2733 
Q 2419 3097 1959 3097 
z
M 1959 3584 
Q 2709 3584 3137 3096 
Q 3566 2609 3566 1747 
Q 3566 888 3137 398 
Q 2709 -91 1959 -91 
Q 1206 -91 779 398 
Q 353 888 353 1747 
Q 353 2609 779 3096 
Q 1206 3584 1959 3584 
z
" transform="scale(0.015625)"/>
       <path id="DejaVuSans-72" d="M 2631 2963 
Q 2534 3019 2420 3045 
Q 2306 3072 2169 3072 
Q 1681 3072 1420 2755 
Q 1159 2438 1159 1844 
L 1159 0 
L 581 0 
L 581 3500 
L 1159 3500 
L 1159 2956 
Q 1341 3275 1631 3429 
Q 1922 3584 2338 3584 
Q 2397 3584 2469 3576 
Q 2541 3569 2628 3553 
L 2631 2963 
z
" transform="scale(0.015625)"/>
       <path id="DejaVuSans-6b" d="M 581 4863 
L 1159 4863 
L 1159 1991 
L 2875 3500 
L 3609 3500 
L 1753 1863 
L 3688 0 
L 2938 0 
L 1159 1709 
L 1159 0 
L 581 0 
L 581 4863 
z
" transform="scale(0.015625)"/>
      </defs>
      <use xlink:href="#DejaVuSans-4e"/>
      <use xlink:href="#DejaVuSans-65" x="74.804688"/>
      <use xlink:href="#DejaVuSans-74" x="136.328125"/>
      <use xlink:href="#DejaVuSans-77" x="175.537109"/>
      <use xlink:href="#DejaVuSans-6f" x="257.324219"/>
      <use xlink:href="#DejaVuSans-72" x="318.505859"/>
      <use xlink:href="#DejaVuSans-6b" x="359.619141"/>
     </g>
    </g>
   </g>
   <g id="matplotlib.axis_2">
    <g id="ytick_1">
     <g id="line2d_4">
      <defs>
       <path id="md3ddc6e370" d="M 0 0 
L -3.5 0 
" style="stroke: #000000; stroke-width: 0.8"/>
      </defs>
      <g>
       <use xlink:href="#md3ddc6e370" x="216" y="378" style="stroke: #000000; stroke-width: 0.8"/>
      </g>
     </g>
     <g id="text_5">
      <!-- 0.0 -->
      <g transform="translate(193.096875 381.799219)scale(0.1 -0.1)">
       <defs>
        <path id="DejaVuSans-30" d="M 2034 4250 
Q 1547 4250 1301 3770 
Q 1056 3291 1056 2328 
Q 1056 1369 1301 889 
Q 1547 409 2034 409 
Q 2525 409 2770 889 
Q 3016 1369 3016 2328 
Q 3016 3291 2770 3770 
Q 2525 4250 2034 4250 
z
M 2034 4750 
Q 2819 4750 3233 4129 
Q 3647 3509 3647 2328 
Q 3647 1150 3233 529 
Q 2819 -91 2034 -91 
Q 1250 -91 836 529 
Q 422 1150 422 2328 
Q 422 3509 836 4129 
Q 1250 4750 2034 4750 
z
" transform="scale(0.015625)"/>
        <path id="DejaVuSans-2e" d="M 684 794 
L 1344 794 
L 1344 0 
L 684 0 
L 684 794 
z
" transform="scale(0.015625)"/>
       </defs>
       <use xlink:href="#DejaVuSans-30"/>
       <use xlink:href="#DejaVuSans-2e" x="63.623047"/>
       <use xlink:href="#DejaVuSans-30" x="95.410156"/>
      </g>
     </g>
    </g>
    <g id="ytick_2">
     <g id="line2d_5">
      <g>
       <use xlink:href="#md3ddc6e370" x="216" y="312.949716" style="stroke: #000000; stroke-width: 0.8"/>
      </g>
     </g>
     <g id="text_6">
      <!-- 0.2 -->
      <g transform="translate(193.096875 316.748935)scale(0.1 -0.1)">
       <use xlink:href="#DejaVuSans-30"/>
       <use xlink:href="#DejaVuSans-2e" x="63.623047"/>
       <use xlink:href="#DejaVuSans-32" x="95.410156"/>
      </g>
     </g>
    </g>
    <g id="ytick_3">
     <g id="line2d_6">
      <g>
       <use xlink:href="#md3ddc6e370" x="216" y="247.899433" style="stroke: #000000; stroke-width: 0.8"/>
      </g>
     </g>
     <g id="text_7">
      <!-- 0.4 -->
      <g transform="translate(193.096875 251.698651)scale(0.1 -0.1)">
       <defs>
        <path id="DejaVuSans-34" d="M 2419 4116 
L 825 1625 
L 2419 1625 
L 2419 4116 
z
M 2253 4666 
L 3047 4666 
L 3047 1625 
L 3713 1625 
L 3713 1100 
L 3047 1100 
L 3047 0 
L 2419 0 
L 2419 1100 
L 313 1100 
L 313 1709 
L 2253 4666 
z
" transform="scale(0.015625)"/>
       </defs>
       <use xlink:href="#DejaVuSans-30"/>
       <use xlink:href="#DejaVuSans-2e" x="63.623047"/>
       <use xlink:href="#DejaVuSans-34" x="95.410156"/>
      </g>
     </g>
    </g>
    <g id="ytick_4">
     <g id="line2d_7">
      <g>
       <use xlink:href="#md3ddc6e370" x="216" y="182.849149" style="stroke: #000000; stroke-width: 0.8"/>
      </g>
     </g>
     <g id="text_8">
      <!-- 0.6 -->
      <g transform="translate(193.096875 186.648368)scale(0.1 -0.1)">
       <defs>
        <path id="DejaVuSans-36" d="M 2113 2584 
Q 1688 2584 1439 2293 
Q 1191 2003 1191 1497 
Q 1191 994 1439 701 
Q 1688 409 2113 409 
Q 2538 409 2786 701 
Q 3034 994 3034 1497 
Q 3034 2003 2786 2293 
Q 2538 2584 2113 2584 
z
M 3366 4563 
L 3366 3988 
Q 3128 4100 2886 4159 
Q 2644 4219 2406 4219 
Q 1781 4219 1451 3797 
Q 1122 3375 1075 2522 
Q 1259 2794 1537 2939 
Q 1816 3084 2150 3084 
Q 2853 3084 3261 2657 
Q 3669 2231 3669 1497 
Q 3669 778 3244 343 
Q 2819 -91 2113 -91 
Q 1303 -91 875 529 
Q 447 1150 447 2328 
Q 447 3434 972 4092 
Q 1497 4750 2381 4750 
Q 2619 4750 2861 4703 
Q 3103 4656 3366 4563 
z
" transform="scale(0.015625)"/>
       </defs>
       <use xlink:href="#DejaVuSans-30"/>
       <use xlink:href="#DejaVuSans-2e" x="63.623047"/>
       <use xlink:href="#DejaVuSans-36" x="95.410156"/>
      </g>
     </g>
    </g>
    <g id="ytick_5">
     <g id="line2d_8">
      <g>
       <use xlink:href="#md3ddc6e370" x="216" y="117.798865" style="stroke: #000000; stroke-width: 0.8"/>
      </g>
     </g>
     <g id="text_9">
      <!-- 0.8 -->
      <g transform="translate(193.096875 121.598084)scale(0.1 -0.1)">
       <defs>
        <path id="DejaVuSans-38" d="M 2034 2216 
Q 1584 2216 1326 1975 
Q 1069 1734 1069 1313 
Q 1069 891 1326 650 
Q 1584 409 2034 409 
Q 2484 409 2743 651 
Q 3003 894 3003 1313 
Q 3003 1734 2745 1975 
Q 2488 2216 2034 2216 
z
M 1403 2484 
Q 997 2584 770 2862 
Q 544 3141 544 3541 
Q 544 4100 942 4425 
Q 1341 4750 2034 4750 
Q 2731 4750 3128 4425 
Q 3525 4100 3525 3541 
Q 3525 3141 3298 2862 
Q 3072 2584 2669 2484 
Q 3125 2378 3379 2068 
Q 3634 1759 3634 1313 
Q 3634 634 3220 271 
Q 2806 -91 2034 -91 
Q 1263 -91 848 271 
Q 434 634 434 1313 
Q 434 1759 690 2068 
Q 947 2378 1403 2484 
z
M 1172 3481 
Q 1172 3119 1398 2916 
Q 1625 2713 2034 2713 
Q 2441 2713 2670 2916 
Q 2900 3119 2900 3481 
Q 2900 3844 2670 4047 
Q 2441 4250 2034 4250 
Q 1625 4250 1398 4047 
Q 1172 3844 1172 3481 
z
" transform="scale(0.015625)"/>
       </defs>
       <use xlink:href="#DejaVuSans-30"/>
       <use xlink:href="#DejaVuSans-2e" x="63.623047"/>
       <use xlink:href="#DejaVuSans-38" x="95.410156"/>
      </g>
     </g>
    </g>
    <g id="ytick_6">
     <g id="line2d_9">
      <g>
       <use xlink:href="#md3ddc6e370" x="216" y="52.748582" style="stroke: #000000; stroke-width: 0.8"/>
      </g>
     </g>
     <g id="text_10">
      <!-- 1.0 -->
      <g transform="translate(193.096875 56.547801)scale(0.1 -0.1)">
       <use xlink:href="#DejaVuSans-31"/>
       <use xlink:href="#DejaVuSans-2e" x="63.623047"/>
       <use xlink:href="#DejaVuSans-30" x="95.410156"/>
      </g>
     </g>
    </g>
    <g id="text_11">
     <!-- Mean Mann-Whitney AUC -->
     <g transform="translate(187.017188 278.278594)rotate(-90)scale(0.1 -0.1)">
      <defs>
       <path id="DejaVuSans-4d" d="M 628 4666 
L 1569 4666 
L 2759 1491 
L 3956 4666 
L 4897 4666 
L 4897 0 
L 4281 0 
L 4281 4097 
L 3078 897 
L 2444 897 
L 1241 4097 
L 1241 0 
L 628 0 
L 628 4666 
z
" transform="scale(0.015625)"/>
       <path id="DejaVuSans-61" d="M 2194 1759 
Q 1497 1759 1228 1600 
Q 959 1441 959 1056 
Q 959 750 1161 570 
Q 1363 391 1709 391 
Q 2188 391 2477 730 
Q 2766 1069 2766 1631 
L 2766 1759 
L 2194 1759 
z
M 3341 1997 
L 3341 0 
L 2766 0 
L 2766 531 
Q 2569 213 2275 61 
Q 1981 -91 1556 -91 
Q 1019 -91 701 211 
Q 384 513 384 1019 
Q 384 1609 779 1909 
Q 1175 2209 1959 2209 
L 2766 2209 
L 2766 2266 
Q 2766 2663 2505 2880 
Q 2244 3097 1772 3097 
Q 1472 3097 1187 3025 
Q 903 2953 641 2809 
L 641 3341 
Q 956 3463 1253 3523 
Q 1550 3584 1831 3584 
Q 2591 3584 2966 3190 
Q 3341 2797 3341 1997 
z
" transform="scale(0.015625)"/>
       <path id="DejaVuSans-6e" d="M 3513 2113 
L 3513 0 
L 2938 0 
L 2938 2094 
Q 2938 2591 2744 2837 
Q 2550 3084 2163 3084 
Q 1697 3084 1428 2787 
Q 1159 2491 1159 1978 
L 1159 0 
L 581 0 
L 581 3500 
L 1159 3500 
L 1159 2956 
Q 1366 3272 1645 3428 
Q 1925 3584 2291 3584 
Q 2894 3584 3203 3211 
Q 3513 2838 3513 2113 
z
" transform="scale(0.015625)"/>
       <path id="DejaVuSans-20" transform="scale(0.015625)"/>
       <path id="DejaVuSans-2d" d="M 313 2009 
L 1997 2009 
L 1997 1497 
L 313 1497 
L 313 2009 
z
" transform="scale(0.015625)"/>
       <path id="DejaVuSans-57" d="M 213 4666 
L 850 4666 
L 1831 722 
L 2809 4666 
L 3519 4666 
L 4500 722 
L 5478 4666 
L 6119 4666 
L 4947 0 
L 4153 0 
L 3169 4050 
L 2175 0 
L 1381 0 
L 213 4666 
z
" transform="scale(0.015625)"/>
       <path id="DejaVuSans-68" d="M 3513 2113 
L 3513 0 
L 2938 0 
L 2938 2094 
Q 2938 2591 2744 2837 
Q 2550 3084 2163 3084 
Q 1697 3084 1428 2787 
Q 1159 2491 1159 1978 
L 1159 0 
L 581 0 
L 581 4863 
L 1159 4863 
L 1159 2956 
Q 1366 3272 1645 3428 
Q 1925 3584 2291 3584 
Q 2894 3584 3203 3211 
Q 3513 2838 3513 2113 
z
" transform="scale(0.015625)"/>
       <path id="DejaVuSans-69" d="M 603 3500 
L 1178 3500 
L 1178 0 
L 603 0 
L 603 3500 
z
M 603 4863 
L 1178 4863 
L 1178 4134 
L 603 4134 
L 603 4863 
z
" transform="scale(0.015625)"/>
       <path id="DejaVuSans-79" d="M 2059 -325 
Q 1816 -950 1584 -1140 
Q 1353 -1331 966 -1331 
L 506 -1331 
L 506 -850 
L 844 -850 
Q 1081 -850 1212 -737 
Q 1344 -625 1503 -206 
L 1606 56 
L 191 3500 
L 800 3500 
L 1894 763 
L 2988 3500 
L 3597 3500 
L 2059 -325 
z
" transform="scale(0.015625)"/>
       <path id="DejaVuSans-41" d="M 2188 4044 
L 1331 1722 
L 3047 1722 
L 2188 4044 
z
M 1831 4666 
L 2547 4666 
L 4325 0 
L 3669 0 
L 3244 1197 
L 1141 1197 
L 716 0 
L 50 0 
L 1831 4666 
z
" transform="scale(0.015625)"/>
       <path id="DejaVuSans-55" d="M 556 4666 
L 1191 4666 
L 1191 1831 
Q 1191 1081 1462 751 
Q 1734 422 2344 422 
Q 2950 422 3222 751 
Q 3494 1081 3494 1831 
L 3494 4666 
L 4128 4666 
L 4128 1753 
Q 4128 841 3676 375 
Q 3225 -91 2344 -91 
Q 1459 -91 1007 375 
Q 556 841 556 1753 
L 556 4666 
z
" transform="scale(0.015625)"/>
       <path id="DejaVuSans-43" d="M 4122 4306 
L 4122 3641 
Q 3803 3938 3442 4084 
Q 3081 4231 2675 4231 
Q 1875 4231 1450 3742 
Q 1025 3253 1025 2328 
Q 1025 1406 1450 917 
Q 1875 428 2675 428 
Q 3081 428 3442 575 
Q 3803 722 4122 1019 
L 4122 359 
Q 3791 134 3420 21 
Q 3050 -91 2638 -91 
Q 1578 -91 968 557 
Q 359 1206 359 2328 
Q 359 3453 968 4101 
Q 1578 4750 2638 4750 
Q 3056 4750 3426 4639 
Q 3797 4528 4122 4306 
z
" transform="scale(0.015625)"/>
      </defs>
      <use xlink:href="#DejaVuSans-4d"/>
      <use xlink:href="#DejaVuSans-65" x="86.279297"/>
      <use xlink:href="#DejaVuSans-61" x="147.802734"/>
      <use xlink:href="#DejaVuSans-6e" x="209.082031"/>
      <use xlink:href="#DejaVuSans-20" x="272.460938"/>
      <use xlink:href="#DejaVuSans-4d" x="304.248047"/>
      <use xlink:href="#DejaVuSans-61" x="390.527344"/>
      <use xlink:href="#DejaVuSans-6e" x="451.806641"/>
      <use xlink:href="#DejaVuSans-6e" x="515.185547"/>
      <use xlink:href="#DejaVuSans-2d" x="578.564453"/>
      <use xlink:href="#DejaVuSans-57" x="610.648438"/>
      <use xlink:href="#DejaVuSans-68" x="709.525391"/>
      <use xlink:href="#DejaVuSans-69" x="772.904297"/>
      <use xlink:href="#DejaVuSans-74" x="800.6875"/>
      <use xlink:href="#DejaVuSans-6e" x="839.896484"/>
      <use xlink:href="#DejaVuSans-65" x="903.275391"/>
      <use xlink:href="#DejaVuSans-79" x="964.798828"/>
      <use xlink:href="#DejaVuSans-20" x="1023.978516"/>
      <use xlink:href="#DejaVuSans-41" x="1055.765625"/>
      <use xlink:href="#DejaVuSans-55" x="1124.173828"/>
      <use xlink:href="#DejaVuSans-43" x="1197.367188"/>
     </g>
    </g>
   </g>
   <g id="LineCollection_1">
    <path d="M 314.141744 203.167865 
L 314.141744 183.063876 
" clip-path="url(#pd1c7fe2dd5)" style="fill: none; stroke: #000000; stroke-width: 1.5"/>
    <path d="M 811.061967 200.936881 
L 811.061967 176.45057 
" clip-path="url(#pd1c7fe2dd5)" style="fill: none; stroke: #000000; stroke-width: 1.5"/>
    <path d="M 1307.982189 235.408357 
L 1307.982189 230.31862 
" clip-path="url(#pd1c7fe2dd5)" style="fill: none; stroke: #000000; stroke-width: 1.5"/>
   </g>
   <g id="LineCollection_2">
    <path d="M 388.679777 148.365755 
L 388.679777 124.615044 
" clip-path="url(#pd1c7fe2dd5)" style="fill: none; stroke: #000000; stroke-width: 1.5"/>
    <path d="M 885.6 143.820811 
L 885.6 127.332097 
" clip-path="url(#pd1c7fe2dd5)" style="fill: none; stroke: #000000; stroke-width: 1.5"/>
    <path d="M 1382.520223 218.901707 
L 1382.520223 205.506127 
" clip-path="url(#pd1c7fe2dd5)" style="fill: none; stroke: #000000; stroke-width: 1.5"/>
   </g>
   <g id="LineCollection_3">
    <path d="M 463.217811 109.346059 
L 463.217811 89.436948 
" clip-path="url(#pd1c7fe2dd5)" style="fill: none; stroke: #000000; stroke-width: 1.5"/>
    <path d="M 960.138033 119.249724 
L 960.138033 102.177108 
" clip-path="url(#pd1c7fe2dd5)" style="fill: none; stroke: #000000; stroke-width: 1.5"/>
    <path d="M 1457.058256 177.781946 
L 1457.058256 164.720464 
" clip-path="url(#pd1c7fe2dd5)" style="fill: none; stroke: #000000; stroke-width: 1.5"/>
   </g>
   <g id="line2d_10">
    <path d="M -1 215.374291 
L 1729 215.374291 
" clip-path="url(#pd1c7fe2dd5)" style="fill: none; stroke-dasharray: 5.55,2.4; stroke-dashoffset: 0; stroke: #808080; stroke-width: 1.5"/>
   </g>
   <g id="patch_12">
    <path d="M 216 378 
L 216 51.84 
" style="fill: none; stroke: #000000; stroke-width: 0.8; stroke-linejoin: miter; stroke-linecap: square"/>
   </g>
   <g id="patch_13">
    <path d="M 1555.2 378 
L 1555.2 51.84 
" style="fill: none; stroke: #000000; stroke-width: 0.8; stroke-linejoin: miter; stroke-linecap: square"/>
   </g>
   <g id="patch_14">
    <path d="M 216 378 
L 1555.2 378 
" style="fill: none; stroke: #000000; stroke-width: 0.8; stroke-linejoin: miter; stroke-linecap: square"/>
   </g>
   <g id="patch_15">
    <path d="M 216 51.84 
L 1555.2 51.84 
" style="fill: none; stroke: #000000; stroke-width: 0.8; stroke-linejoin: miter; stroke-linecap: square"/>
   </g>
   <g id="text_12">
    <!-- Individual Network Mann-Whitney AUC -->
    <g transform="translate(769.737188 45.84)scale(0.12 -0.12)">
     <defs>
      <path id="DejaVuSans-49" d="M 628 4666 
L 1259 4666 
L 1259 0 
L 628 0 
L 628 4666 
z
" transform="scale(0.015625)"/>
      <path id="DejaVuSans-64" d="M 2906 2969 
L 2906 4863 
L 3481 4863 
L 3481 0 
L 2906 0 
L 2906 525 
Q 2725 213 2448 61 
Q 2172 -91 1784 -91 
Q 1150 -91 751 415 
Q 353 922 353 1747 
Q 353 2572 751 3078 
Q 1150 3584 1784 3584 
Q 2172 3584 2448 3432 
Q 2725 3281 2906 2969 
z
M 947 1747 
Q 947 1113 1208 752 
Q 1469 391 1925 391 
Q 2381 391 2643 752 
Q 2906 1113 2906 1747 
Q 2906 2381 2643 2742 
Q 2381 3103 1925 3103 
Q 1469 3103 1208 2742 
Q 947 2381 947 1747 
z
" transform="scale(0.015625)"/>
      <path id="DejaVuSans-76" d="M 191 3500 
L 800 3500 
L 1894 563 
L 2988 3500 
L 3597 3500 
L 2284 0 
L 1503 0 
L 191 3500 
z
" transform="scale(0.015625)"/>
      <path id="DejaVuSans-75" d="M 544 1381 
L 544 3500 
L 1119 3500 
L 1119 1403 
Q 1119 906 1312 657 
Q 1506 409 1894 409 
Q 2359 409 2629 706 
Q 2900 1003 2900 1516 
L 2900 3500 
L 3475 3500 
L 3475 0 
L 2900 0 
L 2900 538 
Q 2691 219 2414 64 
Q 2138 -91 1772 -91 
Q 1169 -91 856 284 
Q 544 659 544 1381 
z
M 1991 3584 
L 1991 3584 
z
" transform="scale(0.015625)"/>
      <path id="DejaVuSans-6c" d="M 603 4863 
L 1178 4863 
L 1178 0 
L 603 0 
L 603 4863 
z
" transform="scale(0.015625)"/>
     </defs>
     <use xlink:href="#DejaVuSans-49"/>
     <use xlink:href="#DejaVuSans-6e" x="29.492188"/>
     <use xlink:href="#DejaVuSans-64" x="92.871094"/>
     <use xlink:href="#DejaVuSans-69" x="156.347656"/>
     <use xlink:href="#DejaVuSans-76" x="184.130859"/>
     <use xlink:href="#DejaVuSans-69" x="243.310547"/>
     <use xlink:href="#DejaVuSans-64" x="271.09375"/>
     <use xlink:href="#DejaVuSans-75" x="334.570312"/>
     <use xlink:href="#DejaVuSans-61" x="397.949219"/>
     <use xlink:href="#DejaVuSans-6c" x="459.228516"/>
     <use xlink:href="#DejaVuSans-20" x="487.011719"/>
     <use xlink:href="#DejaVuSans-4e" x="518.798828"/>
     <use xlink:href="#DejaVuSans-65" x="593.603516"/>
     <use xlink:href="#DejaVuSans-74" x="655.126953"/>
     <use xlink:href="#DejaVuSans-77" x="694.335938"/>
     <use xlink:href="#DejaVuSans-6f" x="776.123047"/>
     <use xlink:href="#DejaVuSans-72" x="837.304688"/>
     <use xlink:href="#DejaVuSans-6b" x="878.417969"/>
     <use xlink:href="#DejaVuSans-20" x="936.328125"/>
     <use xlink:href="#DejaVuSans-4d" x="968.115234"/>
     <use xlink:href="#DejaVuSans-61" x="1054.394531"/>
     <use xlink:href="#DejaVuSans-6e" x="1115.673828"/>
     <use xlink:href="#DejaVuSans-6e" x="1179.052734"/>
     <use xlink:href="#DejaVuSans-2d" x="1242.431641"/>
     <use xlink:href="#DejaVuSans-57" x="1274.515625"/>
     <use xlink:href="#DejaVuSans-68" x="1373.392578"/>
     <use xlink:href="#DejaVuSans-69" x="1436.771484"/>
     <use xlink:href="#DejaVuSans-74" x="1464.554688"/>
     <use xlink:href="#DejaVuSans-6e" x="1503.763672"/>
     <use xlink:href="#DejaVuSans-65" x="1567.142578"/>
     <use xlink:href="#DejaVuSans-79" x="1628.666016"/>
     <use xlink:href="#DejaVuSans-20" x="1687.845703"/>
     <use xlink:href="#DejaVuSans-41" x="1719.632812"/>
     <use xlink:href="#DejaVuSans-55" x="1788.041016"/>
     <use xlink:href="#DejaVuSans-43" x="1861.234375"/>
    </g>
   </g>
   <g id="legend_1">
    <g id="patch_16">
     <path d="M 1493.957813 103.874375 
L 1548.2 103.874375 
Q 1550.2 103.874375 1550.2 101.874375 
L 1550.2 58.84 
Q 1550.2 56.84 1548.2 56.84 
L 1493.957813 56.84 
Q 1491.957813 56.84 1491.957813 58.84 
L 1491.957813 101.874375 
Q 1491.957813 103.874375 1493.957813 103.874375 
z
" style="fill: #ffffff; opacity: 0.8; stroke: #cccccc; stroke-linejoin: miter"/>
    </g>
    <g id="patch_17">
     <path d="M 1495.957813 68.438437 
L 1515.957813 68.438437 
L 1515.957813 61.438437 
L 1495.957813 61.438437 
z
" style="fill: #1f77b4; opacity: 0.5; stroke: #808080; stroke-linejoin: miter"/>
    </g>
    <g id="text_13">
     <!-- flx -->
     <g transform="translate(1523.957813 68.438437)scale(0.1 -0.1)">
      <defs>
       <path id="DejaVuSans-66" d="M 2375 4863 
L 2375 4384 
L 1825 4384 
Q 1516 4384 1395 4259 
Q 1275 4134 1275 3809 
L 1275 3500 
L 2222 3500 
L 2222 3053 
L 1275 3053 
L 1275 0 
L 697 0 
L 697 3053 
L 147 3053 
L 147 3500 
L 697 3500 
L 697 3744 
Q 697 4328 969 4595 
Q 1241 4863 1831 4863 
L 2375 4863 
z
" transform="scale(0.015625)"/>
       <path id="DejaVuSans-78" d="M 3513 3500 
L 2247 1797 
L 3578 0 
L 2900 0 
L 1881 1375 
L 863 0 
L 184 0 
L 1544 1831 
L 300 3500 
L 978 3500 
L 1906 2253 
L 2834 3500 
L 3513 3500 
z
" transform="scale(0.015625)"/>
      </defs>
      <use xlink:href="#DejaVuSans-66"/>
      <use xlink:href="#DejaVuSans-6c" x="35.205078"/>
      <use xlink:href="#DejaVuSans-78" x="62.988281"/>
     </g>
    </g>
    <g id="patch_18">
     <path d="M 1495.957813 83.116562 
L 1515.957813 83.116562 
L 1515.957813 76.116562 
L 1495.957813 76.116562 
z
" style="fill: #ff7f0e; opacity: 0.5; stroke: #808080; stroke-linejoin: miter"/>
    </g>
    <g id="text_14">
     <!-- epm -->
     <g transform="translate(1523.957813 83.116562)scale(0.1 -0.1)">
      <defs>
       <path id="DejaVuSans-70" d="M 1159 525 
L 1159 -1331 
L 581 -1331 
L 581 3500 
L 1159 3500 
L 1159 2969 
Q 1341 3281 1617 3432 
Q 1894 3584 2278 3584 
Q 2916 3584 3314 3078 
Q 3713 2572 3713 1747 
Q 3713 922 3314 415 
Q 2916 -91 2278 -91 
Q 1894 -91 1617 61 
Q 1341 213 1159 525 
z
M 3116 1747 
Q 3116 2381 2855 2742 
Q 2594 3103 2138 3103 
Q 1681 3103 1420 2742 
Q 1159 2381 1159 1747 
Q 1159 1113 1420 752 
Q 1681 391 2138 391 
Q 2594 391 2855 752 
Q 3116 1113 3116 1747 
z
" transform="scale(0.015625)"/>
       <path id="DejaVuSans-6d" d="M 3328 2828 
Q 3544 3216 3844 3400 
Q 4144 3584 4550 3584 
Q 5097 3584 5394 3201 
Q 5691 2819 5691 2113 
L 5691 0 
L 5113 0 
L 5113 2094 
Q 5113 2597 4934 2840 
Q 4756 3084 4391 3084 
Q 3944 3084 3684 2787 
Q 3425 2491 3425 1978 
L 3425 0 
L 2847 0 
L 2847 2094 
Q 2847 2600 2669 2842 
Q 2491 3084 2119 3084 
Q 1678 3084 1418 2786 
Q 1159 2488 1159 1978 
L 1159 0 
L 581 0 
L 581 3500 
L 1159 3500 
L 1159 2956 
Q 1356 3278 1631 3431 
Q 1906 3584 2284 3584 
Q 2666 3584 2933 3390 
Q 3200 3197 3328 2828 
z
" transform="scale(0.015625)"/>
      </defs>
      <use xlink:href="#DejaVuSans-65"/>
      <use xlink:href="#DejaVuSans-70" x="61.523438"/>
      <use xlink:href="#DejaVuSans-6d" x="125"/>
     </g>
    </g>
    <g id="patch_19">
     <path d="M 1495.957813 97.794687 
L 1515.957813 97.794687 
L 1515.957813 90.794687 
L 1495.957813 90.794687 
z
" style="fill: #2ca02c; opacity: 0.5; stroke: #808080; stroke-linejoin: miter"/>
    </g>
    <g id="text_15">
     <!-- oft -->
     <g transform="translate(1523.957813 97.794687)scale(0.1 -0.1)">
      <use xlink:href="#DejaVuSans-6f"/>
      <use xlink:href="#DejaVuSans-66" x="61.181641"/>
      <use xlink:href="#DejaVuSans-74" x="94.636719"/>
     </g>
    </g>
   </g>
  </g>
 </g>
 <defs>
  <clipPath id="pd1c7fe2dd5">
   <rect x="216" y="51.84" width="1339.2" height="326.16"/>
  </clipPath>
 </defs>
</svg>
