<?xml version="1.0" encoding="utf-8" standalone="no"?>
<!DOCTYPE svg PUBLIC "-//W3C//DTD SVG 1.1//EN"
  "http://www.w3.org/Graphics/SVG/1.1/DTD/svg11.dtd">
<svg xmlns:xlink="http://www.w3.org/1999/xlink" width="720pt" height="288pt" viewBox="0 0 720 288" xmlns="http://www.w3.org/2000/svg" version="1.1">
 <metadata>
  <rdf:RDF xmlns:dc="http://purl.org/dc/elements/1.1/" xmlns:cc="http://creativecommons.org/ns#" xmlns:rdf="http://www.w3.org/1999/02/22-rdf-syntax-ns#">
   <cc:Work>
    <dc:type rdf:resource="http://purl.org/dc/dcmitype/StillImage"/>
    <dc:date>2024-01-15T10:22:15.157245</dc:date>
    <dc:format>image/svg+xml</dc:format>
    <dc:creator>
     <cc:Agent>
      <dc:title>Matplotlib v3.5.3, https://matplotlib.org/</dc:title>
     </cc:Agent>
    </dc:creator>
   </cc:Work>
  </rdf:RDF>
 </metadata>
 <defs>
  <style type="text/css">*{stroke-linejoin: round; stroke-linecap: butt}</style>
 </defs>
 <g id="figure_1">
  <g id="patch_1">
   <path d="M 0 288 
L 720 288 
L 720 0 
L 0 0 
L 0 288 
z
" style="fill: none"/>
  </g>
  <g id="axes_1">
   <g id="patch_2">
    <path d="M 90 252 
L 648 252 
L 648 34.56 
L 90 34.56 
z
" style="fill: #ffffff"/>
   </g>
   <g id="matplotlib.axis_1">
    <g id="xtick_1">
     <g id="line2d_1">
      <defs>
       <path id="mf3860a9d34" d="M 0 0 
L 0 3.5 
" style="stroke: #000000; stroke-width: 0.8"/>
      </defs>
      <g>
       <use xlink:href="#mf3860a9d34" x="115.363636" y="252" style="stroke: #000000; stroke-width: 0.8"/>
      </g>
     </g>
     <g id="text_1">
      <!-- 0 -->
      <g transform="translate(112.182386 266.598437)scale(0.1 -0.1)">
       <defs>
        <path id="DejaVuSans-30" d="M 2034 4250 
Q 1547 4250 1301 3770 
Q 1056 3291 1056 2328 
Q 1056 1369 1301 889 
Q 1547 409 2034 409 
Q 2525 409 2770 889 
Q 3016 1369 3016 2328 
Q 3016 3291 2770 3770 
Q 2525 4250 2034 4250 
z
M 2034 4750 
Q 2819 4750 3233 4129 
Q 3647 3509 3647 2328 
Q 3647 1150 3233 529 
Q 2819 -91 2034 -91 
Q 1250 -91 836 529 
Q 422 1150 422 2328 
Q 422 3509 836 4129 
Q 1250 4750 2034 4750 
z
" transform="scale(0.015625)"/>
       </defs>
       <use xlink:href="#DejaVuSans-30"/>
      </g>
     </g>
    </g>
    <g id="xtick_2">
     <g id="line2d_2">
      <g>
       <use xlink:href="#mf3860a9d34" x="207.595041" y="252" style="stroke: #000000; stroke-width: 0.8"/>
      </g>
     </g>
     <g id="text_2">
      <!-- 10 -->
      <g transform="translate(201.232541 266.598437)scale(0.1 -0.1)">
       <defs>
        <path id="DejaVuSans-31" d="M 794 531 
L 1825 531 
L 1825 4091 
L 703 3866 
L 703 4441 
L 1819 4666 
L 2450 4666 
L 2450 531 
L 3481 531 
L 3481 0 
L 794 0 
L 794 531 
z
" transform="scale(0.015625)"/>
       </defs>
       <use xlink:href="#DejaVuSans-31"/>
       <use xlink:href="#DejaVuSans-30" x="63.623047"/>
      </g>
     </g>
    </g>
    <g id="xtick_3">
     <g id="line2d_3">
      <g>
       <use xlink:href="#mf3860a9d34" x="299.826446" y="252" style="stroke: #000000; stroke-width: 0.8"/>
      </g>
     </g>
     <g id="text_3">
      <!-- 20 -->
      <g transform="translate(293.463946 266.598437)scale(0.1 -0.1)">
       <defs>
        <path id="DejaVuSans-32" d="M 1228 531 
L 3431 531 
L 3431 0 
L 469 0 
L 469 531 
Q 828 903 1448 1529 
Q 2069 2156 2228 2338 
Q 2531 2678 2651 2914 
Q 2772 3150 2772 3378 
Q 2772 3750 2511 3984 
Q 2250 4219 1831 4219 
Q 1534 4219 1204 4116 
Q 875 4013 500 3803 
L 500 4441 
Q 881 4594 1212 4672 
Q 1544 4750 1819 4750 
Q 2544 4750 2975 4387 
Q 3406 4025 3406 3419 
Q 3406 3131 3298 2873 
Q 3191 2616 2906 2266 
Q 2828 2175 2409 1742 
Q 1991 1309 1228 531 
z
" transform="scale(0.015625)"/>
       </defs>
       <use xlink:href="#DejaVuSans-32"/>
       <use xlink:href="#DejaVuSans-30" x="63.623047"/>
      </g>
     </g>
    </g>
    <g id="xtick_4">
     <g id="line2d_4">
      <g>
       <use xlink:href="#mf3860a9d34" x="392.057851" y="252" style="stroke: #000000; stroke-width: 0.8"/>
      </g>
     </g>
     <g id="text_4">
      <!-- 30 -->
      <g transform="translate(385.695351 266.598437)scale(0.1 -0.1)">
       <defs>
        <path id="DejaVuSans-33" d="M 2597 2516 
Q 3050 2419 3304 2112 
Q 3559 1806 3559 1356 
Q 3559 666 3084 287 
Q 2609 -91 1734 -91 
Q 1441 -91 1130 -33 
Q 819 25 488 141 
L 488 750 
Q 750 597 1062 519 
Q 1375 441 1716 441 
Q 2309 441 2620 675 
Q 2931 909 2931 1356 
Q 2931 1769 2642 2001 
Q 2353 2234 1838 2234 
L 1294 2234 
L 1294 2753 
L 1863 2753 
Q 2328 2753 2575 2939 
Q 2822 3125 2822 3475 
Q 2822 3834 2567 4026 
Q 2313 4219 1838 4219 
Q 1578 4219 1281 4162 
Q 984 4106 628 3988 
L 628 4550 
Q 988 4650 1302 4700 
Q 1616 4750 1894 4750 
Q 2613 4750 3031 4423 
Q 3450 4097 3450 3541 
Q 3450 3153 3228 2886 
Q 3006 2619 2597 2516 
z
" transform="scale(0.015625)"/>
       </defs>
       <use xlink:href="#DejaVuSans-33"/>
       <use xlink:href="#DejaVuSans-30" x="63.623047"/>
      </g>
     </g>
    </g>
    <g id="xtick_5">
     <g id="line2d_5">
      <g>
       <use xlink:href="#mf3860a9d34" x="484.289256" y="252" style="stroke: #000000; stroke-width: 0.8"/>
      </g>
     </g>
     <g id="text_5">
      <!-- 40 -->
      <g transform="translate(477.926756 266.598437)scale(0.1 -0.1)">
       <defs>
        <path id="DejaVuSans-34" d="M 2419 4116 
L 825 1625 
L 2419 1625 
L 2419 4116 
z
M 2253 4666 
L 3047 4666 
L 3047 1625 
L 3713 1625 
L 3713 1100 
L 3047 1100 
L 3047 0 
L 2419 0 
L 2419 1100 
L 313 1100 
L 313 1709 
L 2253 4666 
z
" transform="scale(0.015625)"/>
       </defs>
       <use xlink:href="#DejaVuSans-34"/>
       <use xlink:href="#DejaVuSans-30" x="63.623047"/>
      </g>
     </g>
    </g>
    <g id="xtick_6">
     <g id="line2d_6">
      <g>
       <use xlink:href="#mf3860a9d34" x="576.520661" y="252" style="stroke: #000000; stroke-width: 0.8"/>
      </g>
     </g>
     <g id="text_6">
      <!-- 50 -->
      <g transform="translate(570.158161 266.598437)scale(0.1 -0.1)">
       <defs>
        <path id="DejaVuSans-35" d="M 691 4666 
L 3169 4666 
L 3169 4134 
L 1269 4134 
L 1269 2991 
Q 1406 3038 1543 3061 
Q 1681 3084 1819 3084 
Q 2600 3084 3056 2656 
Q 3513 2228 3513 1497 
Q 3513 744 3044 326 
Q 2575 -91 1722 -91 
Q 1428 -91 1123 -41 
Q 819 9 494 109 
L 494 744 
Q 775 591 1075 516 
Q 1375 441 1709 441 
Q 2250 441 2565 725 
Q 2881 1009 2881 1497 
Q 2881 1984 2565 2268 
Q 2250 2553 1709 2553 
Q 1456 2553 1204 2497 
Q 953 2441 691 2322 
L 691 4666 
z
" transform="scale(0.015625)"/>
       </defs>
       <use xlink:href="#DejaVuSans-35"/>
       <use xlink:href="#DejaVuSans-30" x="63.623047"/>
      </g>
     </g>
    </g>
    <g id="text_7">
     <!-- Frequency (Hz) -->
     <g transform="translate(331.295313 280.276563)scale(0.1 -0.1)">
      <defs>
       <path id="DejaVuSans-46" d="M 628 4666 
L 3309 4666 
L 3309 4134 
L 1259 4134 
L 1259 2759 
L 3109 2759 
L 3109 2228 
L 1259 2228 
L 1259 0 
L 628 0 
L 628 4666 
z
" transform="scale(0.015625)"/>
       <path id="DejaVuSans-72" d="M 2631 2963 
Q 2534 3019 2420 3045 
Q 2306 3072 2169 3072 
Q 1681 3072 1420 2755 
Q 1159 2438 1159 1844 
L 1159 0 
L 581 0 
L 581 3500 
L 1159 3500 
L 1159 2956 
Q 1341 3275 1631 3429 
Q 1922 3584 2338 3584 
Q 2397 3584 2469 3576 
Q 2541 3569 2628 3553 
L 2631 2963 
z
" transform="scale(0.015625)"/>
       <path id="DejaVuSans-65" d="M 3597 1894 
L 3597 1613 
L 953 1613 
Q 991 1019 1311 708 
Q 1631 397 2203 397 
Q 2534 397 2845 478 
Q 3156 559 3463 722 
L 3463 178 
Q 3153 47 2828 -22 
Q 2503 -91 2169 -91 
Q 1331 -91 842 396 
Q 353 884 353 1716 
Q 353 2575 817 3079 
Q 1281 3584 2069 3584 
Q 2775 3584 3186 3129 
Q 3597 2675 3597 1894 
z
M 3022 2063 
Q 3016 2534 2758 2815 
Q 2500 3097 2075 3097 
Q 1594 3097 1305 2825 
Q 1016 2553 972 2059 
L 3022 2063 
z
" transform="scale(0.015625)"/>
       <path id="DejaVuSans-71" d="M 947 1747 
Q 947 1113 1208 752 
Q 1469 391 1925 391 
Q 2381 391 2643 752 
Q 2906 1113 2906 1747 
Q 2906 2381 2643 2742 
Q 2381 3103 1925 3103 
Q 1469 3103 1208 2742 
Q 947 2381 947 1747 
z
M 2906 525 
Q 2725 213 2448 61 
Q 2172 -91 1784 -91 
Q 1150 -91 751 415 
Q 353 922 353 1747 
Q 353 2572 751 3078 
Q 1150 3584 1784 3584 
Q 2172 3584 2448 3432 
Q 2725 3281 2906 2969 
L 2906 3500 
L 3481 3500 
L 3481 -1331 
L 2906 -1331 
L 2906 525 
z
" transform="scale(0.015625)"/>
       <path id="DejaVuSans-75" d="M 544 1381 
L 544 3500 
L 1119 3500 
L 1119 1403 
Q 1119 906 1312 657 
Q 1506 409 1894 409 
Q 2359 409 2629 706 
Q 2900 1003 2900 1516 
L 2900 3500 
L 3475 3500 
L 3475 0 
L 2900 0 
L 2900 538 
Q 2691 219 2414 64 
Q 2138 -91 1772 -91 
Q 1169 -91 856 284 
Q 544 659 544 1381 
z
M 1991 3584 
L 1991 3584 
z
" transform="scale(0.015625)"/>
       <path id="DejaVuSans-6e" d="M 3513 2113 
L 3513 0 
L 2938 0 
L 2938 2094 
Q 2938 2591 2744 2837 
Q 2550 3084 2163 3084 
Q 1697 3084 1428 2787 
Q 1159 2491 1159 1978 
L 1159 0 
L 581 0 
L 581 3500 
L 1159 3500 
L 1159 2956 
Q 1366 3272 1645 3428 
Q 1925 3584 2291 3584 
Q 2894 3584 3203 3211 
Q 3513 2838 3513 2113 
z
" transform="scale(0.015625)"/>
       <path id="DejaVuSans-63" d="M 3122 3366 
L 3122 2828 
Q 2878 2963 2633 3030 
Q 2388 3097 2138 3097 
Q 1578 3097 1268 2742 
Q 959 2388 959 1747 
Q 959 1106 1268 751 
Q 1578 397 2138 397 
Q 2388 397 2633 464 
Q 2878 531 3122 666 
L 3122 134 
Q 2881 22 2623 -34 
Q 2366 -91 2075 -91 
Q 1284 -91 818 406 
Q 353 903 353 1747 
Q 353 2603 823 3093 
Q 1294 3584 2113 3584 
Q 2378 3584 2631 3529 
Q 2884 3475 3122 3366 
z
" transform="scale(0.015625)"/>
       <path id="DejaVuSans-79" d="M 2059 -325 
Q 1816 -950 1584 -1140 
Q 1353 -1331 966 -1331 
L 506 -1331 
L 506 -850 
L 844 -850 
Q 1081 -850 1212 -737 
Q 1344 -625 1503 -206 
L 1606 56 
L 191 3500 
L 800 3500 
L 1894 763 
L 2988 3500 
L 3597 3500 
L 2059 -325 
z
" transform="scale(0.015625)"/>
       <path id="DejaVuSans-20" transform="scale(0.015625)"/>
       <path id="DejaVuSans-28" d="M 1984 4856 
Q 1566 4138 1362 3434 
Q 1159 2731 1159 2009 
Q 1159 1288 1364 580 
Q 1569 -128 1984 -844 
L 1484 -844 
Q 1016 -109 783 600 
Q 550 1309 550 2009 
Q 550 2706 781 3412 
Q 1013 4119 1484 4856 
L 1984 4856 
z
" transform="scale(0.015625)"/>
       <path id="DejaVuSans-48" d="M 628 4666 
L 1259 4666 
L 1259 2753 
L 3553 2753 
L 3553 4666 
L 4184 4666 
L 4184 0 
L 3553 0 
L 3553 2222 
L 1259 2222 
L 1259 0 
L 628 0 
L 628 4666 
z
" transform="scale(0.015625)"/>
       <path id="DejaVuSans-7a" d="M 353 3500 
L 3084 3500 
L 3084 2975 
L 922 459 
L 3084 459 
L 3084 0 
L 275 0 
L 275 525 
L 2438 3041 
L 353 3041 
L 353 3500 
z
" transform="scale(0.015625)"/>
       <path id="DejaVuSans-29" d="M 513 4856 
L 1013 4856 
Q 1481 4119 1714 3412 
Q 1947 2706 1947 2009 
Q 1947 1309 1714 600 
Q 1481 -109 1013 -844 
L 513 -844 
Q 928 -128 1133 580 
Q 1338 1288 1338 2009 
Q 1338 2731 1133 3434 
Q 928 4138 513 4856 
z
" transform="scale(0.015625)"/>
      </defs>
      <use xlink:href="#DejaVuSans-46"/>
      <use xlink:href="#DejaVuSans-72" x="50.269531"/>
      <use xlink:href="#DejaVuSans-65" x="89.132812"/>
      <use xlink:href="#DejaVuSans-71" x="150.65625"/>
      <use xlink:href="#DejaVuSans-75" x="214.132812"/>
      <use xlink:href="#DejaVuSans-65" x="277.511719"/>
      <use xlink:href="#DejaVuSans-6e" x="339.035156"/>
      <use xlink:href="#DejaVuSans-63" x="402.414062"/>
      <use xlink:href="#DejaVuSans-79" x="457.394531"/>
      <use xlink:href="#DejaVuSans-20" x="516.574219"/>
      <use xlink:href="#DejaVuSans-28" x="548.361328"/>
      <use xlink:href="#DejaVuSans-48" x="587.375"/>
      <use xlink:href="#DejaVuSans-7a" x="662.570312"/>
      <use xlink:href="#DejaVuSans-29" x="715.060547"/>
     </g>
    </g>
   </g>
   <g id="matplotlib.axis_2"/>
   <g id="line2d_7">
    <path d="M 115.363636 126.100246 
L 124.586777 124.85281 
L 133.809917 123.18346 
L 143.033058 123.892442 
L 152.256198 131.328235 
L 161.479339 147.800426 
L 170.702479 170.947016 
L 179.92562 194.838519 
L 189.14876 213.82883 
L 198.371901 225.635129 
L 207.595041 231.372012 
L 216.818182 233.506422 
L 226.041322 234.021801 
L 235.264463 233.922246 
L 244.487603 233.543811 
L 253.710744 232.843029 
L 262.933884 231.572883 
L 272.157025 229.639569 
L 281.380165 227.523617 
L 290.603306 226.253119 
L 299.826446 226.749136 
L 309.049587 229.08218 
L 318.272727 232.365176 
L 327.495868 235.383004 
L 336.719008 237.342322 
L 345.942149 238.117173 
L 355.165289 237.988582 
L 364.38843 237.331255 
L 373.61157 236.531519 
L 382.834711 236.000328 
L 392.057851 236.062254 
L 401.280992 236.771953 
L 410.504132 237.881604 
L 419.727273 239.023081 
L 428.950413 239.92885 
L 438.173554 240.50078 
L 447.396694 240.718965 
L 456.619835 240.528001 
L 465.842975 239.823965 
L 475.066116 238.559105 
L 484.289256 236.881503 
L 493.512397 235.186238 
L 502.735537 233.998287 
L 511.958678 233.727222 
L 521.181818 234.452559 
L 530.404959 235.897624 
L 539.628099 237.60445 
L 548.85124 239.153799 
L 558.07438 240.259246 
L 567.297521 240.727821 
L 576.520661 240.437822 
L 585.743802 239.437358 
L 594.966942 238.062059 
L 604.190083 236.874902 
L 613.413223 236.395334 
L 622.636364 236.821655 
" clip-path="url(#pb868034b52)" style="fill: none; stroke: #d3d3d3; stroke-width: 1.5; stroke-linecap: square"/>
   </g>
   <g id="line2d_8">
    <path d="M 115.363636 81.696886 
L 124.586777 72.542057 
L 133.809917 61.40481 
L 143.033058 55.701802 
L 152.256198 63.723136 
L 161.479339 88.789436 
L 170.702479 125.989537 
L 179.92562 164.933512 
L 189.14876 196.155734 
L 198.371901 215.743723 
L 207.595041 225.214797 
L 216.818182 228.4031 
L 226.041322 228.7149 
L 235.264463 228.277429 
L 244.487603 228.241532 
L 253.710744 229.090147 
L 262.933884 230.718588 
L 272.157025 232.633037 
L 281.380165 234.354247 
L 290.603306 235.702598 
L 299.826446 236.735208 
L 309.049587 237.515683 
L 318.272727 238.039587 
L 327.495868 238.341248 
L 336.719008 238.52804 
L 345.942149 238.628418 
L 355.165289 238.474999 
L 364.38843 237.850735 
L 373.61157 236.776112 
L 382.834711 235.609538 
L 392.057851 234.850454 
L 401.280992 234.849479 
L 410.504132 235.651392 
L 419.727273 237.006579 
L 428.950413 238.490737 
L 438.173554 239.695219 
L 447.396694 240.413373 
L 456.619835 240.686092 
L 465.842975 240.658567 
L 475.066116 240.400558 
L 484.289256 239.884837 
L 493.512397 239.126512 
L 502.735537 238.300383 
L 511.958678 237.689778 
L 521.181818 237.506027 
L 530.404959 237.73997 
L 539.628099 238.173993 
L 548.85124 238.544789 
L 558.07438 238.714075 
L 567.297521 238.694575 
L 576.520661 238.530503 
L 585.743802 238.201754 
L 594.966942 237.692257 
L 604.190083 237.141809 
L 613.413223 236.864321 
L 622.636364 237.156734 
" clip-path="url(#pb868034b52)" style="fill: none; stroke: #d3d3d3; stroke-width: 1.5; stroke-linecap: square"/>
   </g>
   <g id="line2d_9">
    <path d="M 115.363636 201.487822 
L 124.586777 190.700107 
L 133.809917 177.950587 
L 143.033058 168.885832 
L 152.256198 167.586521 
L 161.479339 174.547345 
L 170.702479 186.689978 
L 179.92562 199.483002 
L 189.14876 209.557557 
L 198.371901 215.939035 
L 207.595041 219.397922 
L 216.818182 221.078466 
L 226.041322 221.750278 
L 235.264463 221.931185 
L 244.487603 222.15417 
L 253.710744 222.800807 
L 262.933884 223.744352 
L 272.157025 224.40508 
L 281.380165 224.328846 
L 290.603306 223.70902 
L 299.826446 223.250116 
L 309.049587 223.454049 
L 318.272727 224.0557 
L 327.495868 224.217803 
L 336.719008 223.327686 
L 345.942149 221.629325 
L 355.165289 220.10756 
L 364.38843 219.785832 
L 373.61157 221.104987 
L 382.834711 223.837873 
L 392.057851 227.413985 
L 401.280992 231.239435 
L 410.504132 234.799768 
L 419.727273 237.649049 
L 428.950413 239.449421 
L 438.173554 240.07763 
L 447.396694 239.70747 
L 456.619835 238.791877 
L 465.842975 237.917905 
L 475.066116 237.563983 
L 484.289256 237.876532 
L 493.512397 238.629257 
L 502.735537 239.418277 
L 511.958678 239.941752 
L 521.181818 240.137104 
L 530.404959 240.102961 
L 539.628099 239.941084 
L 548.85124 239.68753 
L 558.07438 239.353486 
L 567.297521 238.961862 
L 576.520661 238.502193 
L 585.743802 237.877224 
L 594.966942 236.978913 
L 604.190083 235.89199 
L 613.413223 235.014387 
L 622.636364 234.883606 
" clip-path="url(#pb868034b52)" style="fill: none; stroke: #d3d3d3; stroke-width: 1.5; stroke-linecap: square"/>
   </g>
   <g id="line2d_10">
    <path d="M 115.363636 91.538183 
L 124.586777 80.653409 
L 133.809917 67.243529 
L 143.033058 59.274164 
L 152.256198 65.359182 
L 161.479339 88.887696 
L 170.702479 124.907395 
L 179.92562 163.028995 
L 189.14876 193.92248 
L 198.371901 213.879053 
L 207.595041 224.484209 
L 216.818182 229.335078 
L 226.041322 231.32751 
L 235.264463 232.053824 
L 244.487603 232.375907 
L 253.710744 232.833113 
L 262.933884 233.612018 
L 272.157025 234.541876 
L 281.380165 235.362649 
L 290.603306 236.027683 
L 299.826446 236.739439 
L 309.049587 237.721406 
L 318.272727 238.978583 
L 327.495868 240.256179 
L 336.719008 241.19644 
L 345.942149 241.548383 
L 355.165289 241.296695 
L 364.38843 240.658973 
L 373.61157 239.966948 
L 382.834711 239.497383 
L 392.057851 239.357781 
L 401.280992 239.502829 
L 410.504132 239.843722 
L 419.727273 240.325552 
L 428.950413 240.903866 
L 438.173554 241.484397 
L 447.396694 241.926802 
L 456.619835 242.116364 
L 465.842975 242.020452 
L 475.066116 241.681473 
L 484.289256 241.18307 
L 493.512397 240.63528 
L 502.735537 240.163617 
L 511.958678 239.866228 
L 521.181818 239.759102 
L 530.404959 239.772536 
L 539.628099 239.818375 
L 548.85124 239.864451 
L 558.07438 239.937854 
L 567.297521 240.056398 
L 576.520661 240.169939 
L 585.743802 240.186377 
L 594.966942 240.06707 
L 604.190083 239.89739 
L 613.413223 239.853036 
L 622.636364 240.079295 
" clip-path="url(#pb868034b52)" style="fill: none; stroke: #d3d3d3; stroke-width: 1.5; stroke-linecap: square"/>
   </g>
   <g id="line2d_11">
    <path d="M 115.363636 77.927918 
L 124.586777 69.709774 
L 133.809917 58.95912 
L 143.033058 52.6481 
L 152.256198 59.538556 
L 161.479339 83.760652 
L 170.702479 120.798656 
L 179.92562 160.173498 
L 189.14876 192.296634 
L 198.371901 213.346812 
L 207.595041 224.895892 
L 216.818182 230.48433 
L 226.041322 232.945834 
L 235.264463 233.879886 
L 244.487603 234.156739 
L 253.710744 234.229083 
L 262.933884 234.207031 
L 272.157025 234.077191 
L 281.380165 233.993449 
L 290.603306 234.298237 
L 299.826446 235.24963 
L 309.049587 236.771115 
L 318.272727 238.472588 
L 327.495868 239.892467 
L 336.719008 240.7423 
L 345.942149 240.992973 
L 355.165289 240.803488 
L 364.38843 240.402104 
L 373.61157 240.010236 
L 382.834711 239.803171 
L 392.057851 239.864745 
L 401.280992 240.156023 
L 410.504132 240.556577 
L 419.727273 240.959675 
L 428.950413 241.319099 
L 438.173554 241.602868 
L 447.396694 241.737805 
L 456.619835 241.635715 
L 465.842975 241.264683 
L 475.066116 240.664799 
L 484.289256 239.900525 
L 493.512397 239.038009 
L 502.735537 238.182886 
L 511.958678 237.500599 
L 521.181818 237.151292 
L 530.404959 237.192356 
L 539.628099 237.554066 
L 548.85124 238.102298 
L 558.07438 238.70381 
L 567.297521 239.235326 
L 576.520661 239.576018 
L 585.743802 239.647316 
L 594.966942 239.48643 
L 604.190083 239.268929 
L 613.413223 239.228523 
L 622.636364 239.521151 
" clip-path="url(#pb868034b52)" style="fill: none; stroke: #d3d3d3; stroke-width: 1.5; stroke-linecap: square"/>
   </g>
   <g id="line2d_12">
    <path d="M 115.363636 100.001225 
L 124.586777 82.436281 
L 133.809917 60.216406 
L 143.033058 44.443636 
L 152.256198 46.635742 
L 161.479339 71.312526 
L 170.702479 112.222588 
L 179.92562 156.251437 
L 189.14876 191.696643 
L 198.371901 213.979042 
L 207.595041 225.156381 
L 216.818182 229.744976 
L 226.041322 231.304369 
L 235.264463 231.687392 
L 244.487603 231.787309 
L 253.710744 232.114239 
L 262.933884 232.832988 
L 272.157025 233.767364 
L 281.380165 234.648254 
L 290.603306 235.387749 
L 299.826446 236.115427 
L 309.049587 236.996333 
L 318.272727 238.043641 
L 327.495868 239.082318 
L 336.719008 239.848859 
L 345.942149 240.115839 
L 355.165289 239.773216 
L 364.38843 238.879057 
L 373.61157 237.689095 
L 382.834711 236.614716 
L 392.057851 236.071669 
L 401.280992 236.286266 
L 410.504132 237.19073 
L 419.727273 238.476687 
L 428.950413 239.758027 
L 438.173554 240.736967 
L 447.396694 241.286185 
L 456.619835 241.420013 
L 465.842975 241.201375 
L 475.066116 240.68265 
L 484.289256 239.939701 
L 493.512397 239.142205 
L 502.735537 238.540868 
L 511.958678 238.338226 
L 521.181818 238.554268 
L 530.404959 239.021411 
L 539.628099 239.516301 
L 548.85124 239.904932 
L 558.07438 240.180202 
L 567.297521 240.385149 
L 576.520661 240.518467 
L 585.743802 240.523102 
L 594.966942 240.36914 
L 604.190083 240.140263 
L 613.413223 240.019404 
L 622.636364 240.168336 
" clip-path="url(#pb868034b52)" style="fill: none; stroke: #d3d3d3; stroke-width: 1.5; stroke-linecap: square"/>
   </g>
   <g id="line2d_13">
    <path d="M 115.363636 78.209787 
L 124.586777 97.176397 
L 133.809917 121.435756 
L 143.033058 143.894782 
L 152.256198 160.750779 
L 161.479339 172.730512 
L 170.702479 183.164391 
L 179.92562 194.596371 
L 189.14876 206.994715 
L 198.371901 218.54626 
L 207.595041 227.415018 
L 216.818182 232.738314 
L 226.041322 234.702188 
L 235.264463 234.340578 
L 244.487603 233.154259 
L 253.710744 232.356583 
L 262.933884 232.186532 
L 272.157025 232.031231 
L 281.380165 231.316045 
L 290.603306 230.233416 
L 299.826446 229.581425 
L 309.049587 229.967743 
L 318.272727 231.24184 
L 327.495868 232.693218 
L 336.719008 233.747064 
L 345.942149 234.418178 
L 355.165289 235.096467 
L 364.38843 235.997883 
L 373.61157 236.952965 
L 382.834711 237.707501 
L 392.057851 238.24938 
L 401.280992 238.739081 
L 410.504132 239.237362 
L 419.727273 239.65528 
L 428.950413 239.933073 
L 438.173554 240.117586 
L 447.396694 240.236419 
L 456.619835 240.201062 
L 465.842975 239.881808 
L 475.066116 239.221294 
L 484.289256 238.258611 
L 493.512397 237.124302 
L 502.735537 236.063221 
L 511.958678 235.392775 
L 521.181818 235.333996 
L 530.404959 235.847987 
L 539.628099 236.656816 
L 548.85124 237.437816 
L 558.07438 238.006058 
L 567.297521 238.33652 
L 576.520661 238.45141 
L 585.743802 238.327511 
L 594.966942 237.948356 
L 604.190083 237.449854 
L 613.413223 237.160626 
L 622.636364 237.419324 
" clip-path="url(#pb868034b52)" style="fill: none; stroke: #d3d3d3; stroke-width: 1.5; stroke-linecap: square"/>
   </g>
   <g id="line2d_14">
    <path d="M 115.363636 156.000427 
L 124.586777 160.674194 
L 133.809917 169.955823 
L 143.033058 182.928202 
L 152.256198 196.528154 
L 161.479339 207.727953 
L 170.702479 215.550636 
L 179.92562 220.889268 
L 189.14876 224.993992 
L 198.371901 228.46978 
L 207.595041 231.307909 
L 216.818182 233.30301 
L 226.041322 234.371406 
L 235.264463 234.760113 
L 244.487603 235.044465 
L 253.710744 235.737812 
L 262.933884 236.786522 
L 272.157025 237.534334 
L 281.380165 237.297094 
L 290.603306 236.007067 
L 299.826446 234.321874 
L 309.049587 233.146266 
L 318.272727 233.024162 
L 327.495868 233.883227 
L 336.719008 235.242389 
L 345.942149 236.599847 
L 355.165289 237.65051 
L 364.38843 238.273732 
L 373.61157 238.493038 
L 382.834711 238.503677 
L 392.057851 238.616264 
L 401.280992 239.034506 
L 410.504132 239.687222 
L 419.727273 240.340224 
L 428.950413 240.843549 
L 438.173554 241.18573 
L 447.396694 241.325825 
L 456.619835 241.100086 
L 465.842975 240.371047 
L 475.066116 239.230156 
L 484.289256 237.999315 
L 493.512397 237.032752 
L 502.735537 236.512498 
L 511.958678 236.382092 
L 521.181818 236.432341 
L 530.404959 236.471651 
L 539.628099 236.467945 
L 548.85124 236.555229 
L 558.07438 236.902732 
L 567.297521 237.565665 
L 576.520661 238.437171 
L 585.743802 239.315904 
L 594.966942 240.024157 
L 604.190083 240.502116 
L 613.413223 240.822584 
L 622.636364 241.11322 
" clip-path="url(#pb868034b52)" style="fill: none; stroke: #d3d3d3; stroke-width: 1.5; stroke-linecap: square"/>
   </g>
   <g id="patch_3">
    <path d="M 90 252 
L 90 34.56 
" style="fill: none; stroke: #000000; stroke-width: 0.8; stroke-linejoin: miter; stroke-linecap: square"/>
   </g>
   <g id="patch_4">
    <path d="M 648 252 
L 648 34.56 
" style="fill: none; stroke: #000000; stroke-width: 0.8; stroke-linejoin: miter; stroke-linecap: square"/>
   </g>
   <g id="patch_5">
    <path d="M 90 252 
L 648 252 
" style="fill: none; stroke: #000000; stroke-width: 0.8; stroke-linejoin: miter; stroke-linecap: square"/>
   </g>
   <g id="patch_6">
    <path d="M 90 34.56 
L 648 34.56 
" style="fill: none; stroke: #000000; stroke-width: 0.8; stroke-linejoin: miter; stroke-linecap: square"/>
   </g>
   <g id="text_8">
    <!-- Power Spectral Density -->
    <g transform="translate(299.4675 28.56)scale(0.12 -0.12)">
     <defs>
      <path id="DejaVuSans-50" d="M 1259 4147 
L 1259 2394 
L 2053 2394 
Q 2494 2394 2734 2622 
Q 2975 2850 2975 3272 
Q 2975 3691 2734 3919 
Q 2494 4147 2053 4147 
L 1259 4147 
z
M 628 4666 
L 2053 4666 
Q 2838 4666 3239 4311 
Q 3641 3956 3641 3272 
Q 3641 2581 3239 2228 
Q 2838 1875 2053 1875 
L 1259 1875 
L 1259 0 
L 628 0 
L 628 4666 
z
" transform="scale(0.015625)"/>
      <path id="DejaVuSans-6f" d="M 1959 3097 
Q 1497 3097 1228 2736 
Q 959 2375 959 1747 
Q 959 1119 1226 758 
Q 1494 397 1959 397 
Q 2419 397 2687 759 
Q 2956 1122 2956 1747 
Q 2956 2369 2687 2733 
Q 2419 3097 1959 3097 
z
M 1959 3584 
Q 2709 3584 3137 3096 
Q 3566 2609 3566 1747 
Q 3566 888 3137 398 
Q 2709 -91 1959 -91 
Q 1206 -91 779 398 
Q 353 888 353 1747 
Q 353 2609 779 3096 
Q 1206 3584 1959 3584 
z
" transform="scale(0.015625)"/>
      <path id="DejaVuSans-77" d="M 269 3500 
L 844 3500 
L 1563 769 
L 2278 3500 
L 2956 3500 
L 3675 769 
L 4391 3500 
L 4966 3500 
L 4050 0 
L 3372 0 
L 2619 2869 
L 1863 0 
L 1184 0 
L 269 3500 
z
" transform="scale(0.015625)"/>
      <path id="DejaVuSans-53" d="M 3425 4513 
L 3425 3897 
Q 3066 4069 2747 4153 
Q 2428 4238 2131 4238 
Q 1616 4238 1336 4038 
Q 1056 3838 1056 3469 
Q 1056 3159 1242 3001 
Q 1428 2844 1947 2747 
L 2328 2669 
Q 3034 2534 3370 2195 
Q 3706 1856 3706 1288 
Q 3706 609 3251 259 
Q 2797 -91 1919 -91 
Q 1588 -91 1214 -16 
Q 841 59 441 206 
L 441 856 
Q 825 641 1194 531 
Q 1563 422 1919 422 
Q 2459 422 2753 634 
Q 3047 847 3047 1241 
Q 3047 1584 2836 1778 
Q 2625 1972 2144 2069 
L 1759 2144 
Q 1053 2284 737 2584 
Q 422 2884 422 3419 
Q 422 4038 858 4394 
Q 1294 4750 2059 4750 
Q 2388 4750 2728 4690 
Q 3069 4631 3425 4513 
z
" transform="scale(0.015625)"/>
      <path id="DejaVuSans-70" d="M 1159 525 
L 1159 -1331 
L 581 -1331 
L 581 3500 
L 1159 3500 
L 1159 2969 
Q 1341 3281 1617 3432 
Q 1894 3584 2278 3584 
Q 2916 3584 3314 3078 
Q 3713 2572 3713 1747 
Q 3713 922 3314 415 
Q 2916 -91 2278 -91 
Q 1894 -91 1617 61 
Q 1341 213 1159 525 
z
M 3116 1747 
Q 3116 2381 2855 2742 
Q 2594 3103 2138 3103 
Q 1681 3103 1420 2742 
Q 1159 2381 1159 1747 
Q 1159 1113 1420 752 
Q 1681 391 2138 391 
Q 2594 391 2855 752 
Q 3116 1113 3116 1747 
z
" transform="scale(0.015625)"/>
      <path id="DejaVuSans-74" d="M 1172 4494 
L 1172 3500 
L 2356 3500 
L 2356 3053 
L 1172 3053 
L 1172 1153 
Q 1172 725 1289 603 
Q 1406 481 1766 481 
L 2356 481 
L 2356 0 
L 1766 0 
Q 1100 0 847 248 
Q 594 497 594 1153 
L 594 3053 
L 172 3053 
L 172 3500 
L 594 3500 
L 594 4494 
L 1172 4494 
z
" transform="scale(0.015625)"/>
      <path id="DejaVuSans-61" d="M 2194 1759 
Q 1497 1759 1228 1600 
Q 959 1441 959 1056 
Q 959 750 1161 570 
Q 1363 391 1709 391 
Q 2188 391 2477 730 
Q 2766 1069 2766 1631 
L 2766 1759 
L 2194 1759 
z
M 3341 1997 
L 3341 0 
L 2766 0 
L 2766 531 
Q 2569 213 2275 61 
Q 1981 -91 1556 -91 
Q 1019 -91 701 211 
Q 384 513 384 1019 
Q 384 1609 779 1909 
Q 1175 2209 1959 2209 
L 2766 2209 
L 2766 2266 
Q 2766 2663 2505 2880 
Q 2244 3097 1772 3097 
Q 1472 3097 1187 3025 
Q 903 2953 641 2809 
L 641 3341 
Q 956 3463 1253 3523 
Q 1550 3584 1831 3584 
Q 2591 3584 2966 3190 
Q 3341 2797 3341 1997 
z
" transform="scale(0.015625)"/>
      <path id="DejaVuSans-6c" d="M 603 4863 
L 1178 4863 
L 1178 0 
L 603 0 
L 603 4863 
z
" transform="scale(0.015625)"/>
      <path id="DejaVuSans-44" d="M 1259 4147 
L 1259 519 
L 2022 519 
Q 2988 519 3436 956 
Q 3884 1394 3884 2338 
Q 3884 3275 3436 3711 
Q 2988 4147 2022 4147 
L 1259 4147 
z
M 628 4666 
L 1925 4666 
Q 3281 4666 3915 4102 
Q 4550 3538 4550 2338 
Q 4550 1131 3912 565 
Q 3275 0 1925 0 
L 628 0 
L 628 4666 
z
" transform="scale(0.015625)"/>
      <path id="DejaVuSans-73" d="M 2834 3397 
L 2834 2853 
Q 2591 2978 2328 3040 
Q 2066 3103 1784 3103 
Q 1356 3103 1142 2972 
Q 928 2841 928 2578 
Q 928 2378 1081 2264 
Q 1234 2150 1697 2047 
L 1894 2003 
Q 2506 1872 2764 1633 
Q 3022 1394 3022 966 
Q 3022 478 2636 193 
Q 2250 -91 1575 -91 
Q 1294 -91 989 -36 
Q 684 19 347 128 
L 347 722 
Q 666 556 975 473 
Q 1284 391 1588 391 
Q 1994 391 2212 530 
Q 2431 669 2431 922 
Q 2431 1156 2273 1281 
Q 2116 1406 1581 1522 
L 1381 1569 
Q 847 1681 609 1914 
Q 372 2147 372 2553 
Q 372 3047 722 3315 
Q 1072 3584 1716 3584 
Q 2034 3584 2315 3537 
Q 2597 3491 2834 3397 
z
" transform="scale(0.015625)"/>
      <path id="DejaVuSans-69" d="M 603 3500 
L 1178 3500 
L 1178 0 
L 603 0 
L 603 3500 
z
M 603 4863 
L 1178 4863 
L 1178 4134 
L 603 4134 
L 603 4863 
z
" transform="scale(0.015625)"/>
     </defs>
     <use xlink:href="#DejaVuSans-50"/>
     <use xlink:href="#DejaVuSans-6f" x="56.677734"/>
     <use xlink:href="#DejaVuSans-77" x="117.859375"/>
     <use xlink:href="#DejaVuSans-65" x="199.646484"/>
     <use xlink:href="#DejaVuSans-72" x="261.169922"/>
     <use xlink:href="#DejaVuSans-20" x="302.283203"/>
     <use xlink:href="#DejaVuSans-53" x="334.070312"/>
     <use xlink:href="#DejaVuSans-70" x="397.546875"/>
     <use xlink:href="#DejaVuSans-65" x="461.023438"/>
     <use xlink:href="#DejaVuSans-63" x="522.546875"/>
     <use xlink:href="#DejaVuSans-74" x="577.527344"/>
     <use xlink:href="#DejaVuSans-72" x="616.736328"/>
     <use xlink:href="#DejaVuSans-61" x="657.849609"/>
     <use xlink:href="#DejaVuSans-6c" x="719.128906"/>
     <use xlink:href="#DejaVuSans-20" x="746.912109"/>
     <use xlink:href="#DejaVuSans-44" x="778.699219"/>
     <use xlink:href="#DejaVuSans-65" x="855.701172"/>
     <use xlink:href="#DejaVuSans-6e" x="917.224609"/>
     <use xlink:href="#DejaVuSans-73" x="980.603516"/>
     <use xlink:href="#DejaVuSans-69" x="1032.703125"/>
     <use xlink:href="#DejaVuSans-74" x="1060.486328"/>
     <use xlink:href="#DejaVuSans-79" x="1099.695312"/>
    </g>
   </g>
  </g>
 </g>
 <defs>
  <clipPath id="pb868034b52">
   <rect x="90" y="34.56" width="558" height="217.44"/>
  </clipPath>
 </defs>
</svg>
