<?xml version="1.0" encoding="utf-8" standalone="no"?>
<!DOCTYPE svg PUBLIC "-//W3C//DTD SVG 1.1//EN"
  "http://www.w3.org/Graphics/SVG/1.1/DTD/svg11.dtd">
<svg xmlns:xlink="http://www.w3.org/1999/xlink" width="720pt" height="360pt" viewBox="0 0 720 360" xmlns="http://www.w3.org/2000/svg" version="1.1">
 <metadata>
  <rdf:RDF xmlns:dc="http://purl.org/dc/elements/1.1/" xmlns:cc="http://creativecommons.org/ns#" xmlns:rdf="http://www.w3.org/1999/02/22-rdf-syntax-ns#">
   <cc:Work>
    <dc:type rdf:resource="http://purl.org/dc/dcmitype/StillImage"/>
    <dc:date>2023-07-10T11:25:42.324263</dc:date>
    <dc:format>image/svg+xml</dc:format>
    <dc:creator>
     <cc:Agent>
      <dc:title>Matplotlib v3.5.3, https://matplotlib.org/</dc:title>
     </cc:Agent>
    </dc:creator>
   </cc:Work>
  </rdf:RDF>
 </metadata>
 <defs>
  <style type="text/css">*{stroke-linejoin: round; stroke-linecap: butt}</style>
 </defs>
 <g id="figure_1">
  <g id="patch_1">
   <path d="M 0 360 
L 720 360 
L 720 0 
L 0 0 
L 0 360 
z
" style="fill: none"/>
  </g>
  <g id="axes_1">
   <g id="patch_2">
    <path d="M 90 315 
L 648 315 
L 648 43.2 
L 90 43.2 
z
" style="fill: #ffffff"/>
   </g>
   <g id="matplotlib.axis_1">
    <g id="xtick_1">
     <g id="line2d_1">
      <defs>
       <path id="m809acdd85e" d="M 0 0 
L 0 3.5 
" style="stroke: #000000; stroke-width: 0.8"/>
      </defs>
      <g>
       <use xlink:href="#m809acdd85e" x="229.5" y="315" style="stroke: #000000; stroke-width: 0.8"/>
      </g>
     </g>
     <g id="text_1">
      <!-- Social -->
      <g transform="translate(214.675 329.598437)scale(0.1 -0.1)">
       <defs>
        <path id="DejaVuSans-53" d="M 3425 4513 
L 3425 3897 
Q 3066 4069 2747 4153 
Q 2428 4238 2131 4238 
Q 1616 4238 1336 4038 
Q 1056 3838 1056 3469 
Q 1056 3159 1242 3001 
Q 1428 2844 1947 2747 
L 2328 2669 
Q 3034 2534 3370 2195 
Q 3706 1856 3706 1288 
Q 3706 609 3251 259 
Q 2797 -91 1919 -91 
Q 1588 -91 1214 -16 
Q 841 59 441 206 
L 441 856 
Q 825 641 1194 531 
Q 1563 422 1919 422 
Q 2459 422 2753 634 
Q 3047 847 3047 1241 
Q 3047 1584 2836 1778 
Q 2625 1972 2144 2069 
L 1759 2144 
Q 1053 2284 737 2584 
Q 422 2884 422 3419 
Q 422 4038 858 4394 
Q 1294 4750 2059 4750 
Q 2388 4750 2728 4690 
Q 3069 4631 3425 4513 
z
" transform="scale(0.015625)"/>
        <path id="DejaVuSans-6f" d="M 1959 3097 
Q 1497 3097 1228 2736 
Q 959 2375 959 1747 
Q 959 1119 1226 758 
Q 1494 397 1959 397 
Q 2419 397 2687 759 
Q 2956 1122 2956 1747 
Q 2956 2369 2687 2733 
Q 2419 3097 1959 3097 
z
M 1959 3584 
Q 2709 3584 3137 3096 
Q 3566 2609 3566 1747 
Q 3566 888 3137 398 
Q 2709 -91 1959 -91 
Q 1206 -91 779 398 
Q 353 888 353 1747 
Q 353 2609 779 3096 
Q 1206 3584 1959 3584 
z
" transform="scale(0.015625)"/>
        <path id="DejaVuSans-63" d="M 3122 3366 
L 3122 2828 
Q 2878 2963 2633 3030 
Q 2388 3097 2138 3097 
Q 1578 3097 1268 2742 
Q 959 2388 959 1747 
Q 959 1106 1268 751 
Q 1578 397 2138 397 
Q 2388 397 2633 464 
Q 2878 531 3122 666 
L 3122 134 
Q 2881 22 2623 -34 
Q 2366 -91 2075 -91 
Q 1284 -91 818 406 
Q 353 903 353 1747 
Q 353 2603 823 3093 
Q 1294 3584 2113 3584 
Q 2378 3584 2631 3529 
Q 2884 3475 3122 3366 
z
" transform="scale(0.015625)"/>
        <path id="DejaVuSans-69" d="M 603 3500 
L 1178 3500 
L 1178 0 
L 603 0 
L 603 3500 
z
M 603 4863 
L 1178 4863 
L 1178 4134 
L 603 4134 
L 603 4863 
z
" transform="scale(0.015625)"/>
        <path id="DejaVuSans-61" d="M 2194 1759 
Q 1497 1759 1228 1600 
Q 959 1441 959 1056 
Q 959 750 1161 570 
Q 1363 391 1709 391 
Q 2188 391 2477 730 
Q 2766 1069 2766 1631 
L 2766 1759 
L 2194 1759 
z
M 3341 1997 
L 3341 0 
L 2766 0 
L 2766 531 
Q 2569 213 2275 61 
Q 1981 -91 1556 -91 
Q 1019 -91 701 211 
Q 384 513 384 1019 
Q 384 1609 779 1909 
Q 1175 2209 1959 2209 
L 2766 2209 
L 2766 2266 
Q 2766 2663 2505 2880 
Q 2244 3097 1772 3097 
Q 1472 3097 1187 3025 
Q 903 2953 641 2809 
L 641 3341 
Q 956 3463 1253 3523 
Q 1550 3584 1831 3584 
Q 2591 3584 2966 3190 
Q 3341 2797 3341 1997 
z
" transform="scale(0.015625)"/>
        <path id="DejaVuSans-6c" d="M 603 4863 
L 1178 4863 
L 1178 0 
L 603 0 
L 603 4863 
z
" transform="scale(0.015625)"/>
       </defs>
       <use xlink:href="#DejaVuSans-53"/>
       <use xlink:href="#DejaVuSans-6f" x="63.476562"/>
       <use xlink:href="#DejaVuSans-63" x="124.658203"/>
       <use xlink:href="#DejaVuSans-69" x="179.638672"/>
       <use xlink:href="#DejaVuSans-61" x="207.421875"/>
       <use xlink:href="#DejaVuSans-6c" x="268.701172"/>
      </g>
     </g>
    </g>
    <g id="xtick_2">
     <g id="line2d_2">
      <g>
       <use xlink:href="#m809acdd85e" x="508.5" y="315" style="stroke: #000000; stroke-width: 0.8"/>
      </g>
     </g>
     <g id="text_2">
      <!-- Object -->
      <g transform="translate(492.214844 329.598437)scale(0.1 -0.1)">
       <defs>
        <path id="DejaVuSans-4f" d="M 2522 4238 
Q 1834 4238 1429 3725 
Q 1025 3213 1025 2328 
Q 1025 1447 1429 934 
Q 1834 422 2522 422 
Q 3209 422 3611 934 
Q 4013 1447 4013 2328 
Q 4013 3213 3611 3725 
Q 3209 4238 2522 4238 
z
M 2522 4750 
Q 3503 4750 4090 4092 
Q 4678 3434 4678 2328 
Q 4678 1225 4090 567 
Q 3503 -91 2522 -91 
Q 1538 -91 948 565 
Q 359 1222 359 2328 
Q 359 3434 948 4092 
Q 1538 4750 2522 4750 
z
" transform="scale(0.015625)"/>
        <path id="DejaVuSans-62" d="M 3116 1747 
Q 3116 2381 2855 2742 
Q 2594 3103 2138 3103 
Q 1681 3103 1420 2742 
Q 1159 2381 1159 1747 
Q 1159 1113 1420 752 
Q 1681 391 2138 391 
Q 2594 391 2855 752 
Q 3116 1113 3116 1747 
z
M 1159 2969 
Q 1341 3281 1617 3432 
Q 1894 3584 2278 3584 
Q 2916 3584 3314 3078 
Q 3713 2572 3713 1747 
Q 3713 922 3314 415 
Q 2916 -91 2278 -91 
Q 1894 -91 1617 61 
Q 1341 213 1159 525 
L 1159 0 
L 581 0 
L 581 4863 
L 1159 4863 
L 1159 2969 
z
" transform="scale(0.015625)"/>
        <path id="DejaVuSans-6a" d="M 603 3500 
L 1178 3500 
L 1178 -63 
Q 1178 -731 923 -1031 
Q 669 -1331 103 -1331 
L -116 -1331 
L -116 -844 
L 38 -844 
Q 366 -844 484 -692 
Q 603 -541 603 -63 
L 603 3500 
z
M 603 4863 
L 1178 4863 
L 1178 4134 
L 603 4134 
L 603 4863 
z
" transform="scale(0.015625)"/>
        <path id="DejaVuSans-65" d="M 3597 1894 
L 3597 1613 
L 953 1613 
Q 991 1019 1311 708 
Q 1631 397 2203 397 
Q 2534 397 2845 478 
Q 3156 559 3463 722 
L 3463 178 
Q 3153 47 2828 -22 
Q 2503 -91 2169 -91 
Q 1331 -91 842 396 
Q 353 884 353 1716 
Q 353 2575 817 3079 
Q 1281 3584 2069 3584 
Q 2775 3584 3186 3129 
Q 3597 2675 3597 1894 
z
M 3022 2063 
Q 3016 2534 2758 2815 
Q 2500 3097 2075 3097 
Q 1594 3097 1305 2825 
Q 1016 2553 972 2059 
L 3022 2063 
z
" transform="scale(0.015625)"/>
        <path id="DejaVuSans-74" d="M 1172 4494 
L 1172 3500 
L 2356 3500 
L 2356 3053 
L 1172 3053 
L 1172 1153 
Q 1172 725 1289 603 
Q 1406 481 1766 481 
L 2356 481 
L 2356 0 
L 1766 0 
Q 1100 0 847 248 
Q 594 497 594 1153 
L 594 3053 
L 172 3053 
L 172 3500 
L 594 3500 
L 594 4494 
L 1172 4494 
z
" transform="scale(0.015625)"/>
       </defs>
       <use xlink:href="#DejaVuSans-4f"/>
       <use xlink:href="#DejaVuSans-62" x="78.710938"/>
       <use xlink:href="#DejaVuSans-6a" x="142.1875"/>
       <use xlink:href="#DejaVuSans-65" x="169.970703"/>
       <use xlink:href="#DejaVuSans-63" x="231.494141"/>
       <use xlink:href="#DejaVuSans-74" x="286.474609"/>
      </g>
     </g>
    </g>
   </g>
   <g id="matplotlib.axis_2">
    <g id="ytick_1">
     <g id="line2d_3">
      <defs>
       <path id="mab7f07c51b" d="M 0 0 
L -3.5 0 
" style="stroke: #000000; stroke-width: 0.8"/>
      </defs>
      <g>
       <use xlink:href="#mab7f07c51b" x="90" y="286.457324" style="stroke: #000000; stroke-width: 0.8"/>
      </g>
     </g>
     <g id="text_3">
      <!-- 1.5 -->
      <g transform="translate(67.096875 290.256543)scale(0.1 -0.1)">
       <defs>
        <path id="DejaVuSans-31" d="M 794 531 
L 1825 531 
L 1825 4091 
L 703 3866 
L 703 4441 
L 1819 4666 
L 2450 4666 
L 2450 531 
L 3481 531 
L 3481 0 
L 794 0 
L 794 531 
z
" transform="scale(0.015625)"/>
        <path id="DejaVuSans-2e" d="M 684 794 
L 1344 794 
L 1344 0 
L 684 0 
L 684 794 
z
" transform="scale(0.015625)"/>
        <path id="DejaVuSans-35" d="M 691 4666 
L 3169 4666 
L 3169 4134 
L 1269 4134 
L 1269 2991 
Q 1406 3038 1543 3061 
Q 1681 3084 1819 3084 
Q 2600 3084 3056 2656 
Q 3513 2228 3513 1497 
Q 3513 744 3044 326 
Q 2575 -91 1722 -91 
Q 1428 -91 1123 -41 
Q 819 9 494 109 
L 494 744 
Q 775 591 1075 516 
Q 1375 441 1709 441 
Q 2250 441 2565 725 
Q 2881 1009 2881 1497 
Q 2881 1984 2565 2268 
Q 2250 2553 1709 2553 
Q 1456 2553 1204 2497 
Q 953 2441 691 2322 
L 691 4666 
z
" transform="scale(0.015625)"/>
       </defs>
       <use xlink:href="#DejaVuSans-31"/>
       <use xlink:href="#DejaVuSans-2e" x="63.623047"/>
       <use xlink:href="#DejaVuSans-35" x="95.410156"/>
      </g>
     </g>
    </g>
    <g id="ytick_2">
     <g id="line2d_4">
      <g>
       <use xlink:href="#mab7f07c51b" x="90" y="236.904815" style="stroke: #000000; stroke-width: 0.8"/>
      </g>
     </g>
     <g id="text_4">
      <!-- 2.0 -->
      <g transform="translate(67.096875 240.704033)scale(0.1 -0.1)">
       <defs>
        <path id="DejaVuSans-32" d="M 1228 531 
L 3431 531 
L 3431 0 
L 469 0 
L 469 531 
Q 828 903 1448 1529 
Q 2069 2156 2228 2338 
Q 2531 2678 2651 2914 
Q 2772 3150 2772 3378 
Q 2772 3750 2511 3984 
Q 2250 4219 1831 4219 
Q 1534 4219 1204 4116 
Q 875 4013 500 3803 
L 500 4441 
Q 881 4594 1212 4672 
Q 1544 4750 1819 4750 
Q 2544 4750 2975 4387 
Q 3406 4025 3406 3419 
Q 3406 3131 3298 2873 
Q 3191 2616 2906 2266 
Q 2828 2175 2409 1742 
Q 1991 1309 1228 531 
z
" transform="scale(0.015625)"/>
        <path id="DejaVuSans-30" d="M 2034 4250 
Q 1547 4250 1301 3770 
Q 1056 3291 1056 2328 
Q 1056 1369 1301 889 
Q 1547 409 2034 409 
Q 2525 409 2770 889 
Q 3016 1369 3016 2328 
Q 3016 3291 2770 3770 
Q 2525 4250 2034 4250 
z
M 2034 4750 
Q 2819 4750 3233 4129 
Q 3647 3509 3647 2328 
Q 3647 1150 3233 529 
Q 2819 -91 2034 -91 
Q 1250 -91 836 529 
Q 422 1150 422 2328 
Q 422 3509 836 4129 
Q 1250 4750 2034 4750 
z
" transform="scale(0.015625)"/>
       </defs>
       <use xlink:href="#DejaVuSans-32"/>
       <use xlink:href="#DejaVuSans-2e" x="63.623047"/>
       <use xlink:href="#DejaVuSans-30" x="95.410156"/>
      </g>
     </g>
    </g>
    <g id="ytick_3">
     <g id="line2d_5">
      <g>
       <use xlink:href="#mab7f07c51b" x="90" y="187.352305" style="stroke: #000000; stroke-width: 0.8"/>
      </g>
     </g>
     <g id="text_5">
      <!-- 2.5 -->
      <g transform="translate(67.096875 191.151524)scale(0.1 -0.1)">
       <use xlink:href="#DejaVuSans-32"/>
       <use xlink:href="#DejaVuSans-2e" x="63.623047"/>
       <use xlink:href="#DejaVuSans-35" x="95.410156"/>
      </g>
     </g>
    </g>
    <g id="ytick_4">
     <g id="line2d_6">
      <g>
       <use xlink:href="#mab7f07c51b" x="90" y="137.799795" style="stroke: #000000; stroke-width: 0.8"/>
      </g>
     </g>
     <g id="text_6">
      <!-- 3.0 -->
      <g transform="translate(67.096875 141.599014)scale(0.1 -0.1)">
       <defs>
        <path id="DejaVuSans-33" d="M 2597 2516 
Q 3050 2419 3304 2112 
Q 3559 1806 3559 1356 
Q 3559 666 3084 287 
Q 2609 -91 1734 -91 
Q 1441 -91 1130 -33 
Q 819 25 488 141 
L 488 750 
Q 750 597 1062 519 
Q 1375 441 1716 441 
Q 2309 441 2620 675 
Q 2931 909 2931 1356 
Q 2931 1769 2642 2001 
Q 2353 2234 1838 2234 
L 1294 2234 
L 1294 2753 
L 1863 2753 
Q 2328 2753 2575 2939 
Q 2822 3125 2822 3475 
Q 2822 3834 2567 4026 
Q 2313 4219 1838 4219 
Q 1578 4219 1281 4162 
Q 984 4106 628 3988 
L 628 4550 
Q 988 4650 1302 4700 
Q 1616 4750 1894 4750 
Q 2613 4750 3031 4423 
Q 3450 4097 3450 3541 
Q 3450 3153 3228 2886 
Q 3006 2619 2597 2516 
z
" transform="scale(0.015625)"/>
       </defs>
       <use xlink:href="#DejaVuSans-33"/>
       <use xlink:href="#DejaVuSans-2e" x="63.623047"/>
       <use xlink:href="#DejaVuSans-30" x="95.410156"/>
      </g>
     </g>
    </g>
    <g id="ytick_5">
     <g id="line2d_7">
      <g>
       <use xlink:href="#mab7f07c51b" x="90" y="88.247286" style="stroke: #000000; stroke-width: 0.8"/>
      </g>
     </g>
     <g id="text_7">
      <!-- 3.5 -->
      <g transform="translate(67.096875 92.046504)scale(0.1 -0.1)">
       <use xlink:href="#DejaVuSans-33"/>
       <use xlink:href="#DejaVuSans-2e" x="63.623047"/>
       <use xlink:href="#DejaVuSans-35" x="95.410156"/>
      </g>
     </g>
    </g>
    <g id="text_8">
     <!-- Mean Network Score -->
     <g transform="translate(61.017187 230.780469)rotate(-90)scale(0.1 -0.1)">
      <defs>
       <path id="DejaVuSans-4d" d="M 628 4666 
L 1569 4666 
L 2759 1491 
L 3956 4666 
L 4897 4666 
L 4897 0 
L 4281 0 
L 4281 4097 
L 3078 897 
L 2444 897 
L 1241 4097 
L 1241 0 
L 628 0 
L 628 4666 
z
" transform="scale(0.015625)"/>
       <path id="DejaVuSans-6e" d="M 3513 2113 
L 3513 0 
L 2938 0 
L 2938 2094 
Q 2938 2591 2744 2837 
Q 2550 3084 2163 3084 
Q 1697 3084 1428 2787 
Q 1159 2491 1159 1978 
L 1159 0 
L 581 0 
L 581 3500 
L 1159 3500 
L 1159 2956 
Q 1366 3272 1645 3428 
Q 1925 3584 2291 3584 
Q 2894 3584 3203 3211 
Q 3513 2838 3513 2113 
z
" transform="scale(0.015625)"/>
       <path id="DejaVuSans-20" transform="scale(0.015625)"/>
       <path id="DejaVuSans-4e" d="M 628 4666 
L 1478 4666 
L 3547 763 
L 3547 4666 
L 4159 4666 
L 4159 0 
L 3309 0 
L 1241 3903 
L 1241 0 
L 628 0 
L 628 4666 
z
" transform="scale(0.015625)"/>
       <path id="DejaVuSans-77" d="M 269 3500 
L 844 3500 
L 1563 769 
L 2278 3500 
L 2956 3500 
L 3675 769 
L 4391 3500 
L 4966 3500 
L 4050 0 
L 3372 0 
L 2619 2869 
L 1863 0 
L 1184 0 
L 269 3500 
z
" transform="scale(0.015625)"/>
       <path id="DejaVuSans-72" d="M 2631 2963 
Q 2534 3019 2420 3045 
Q 2306 3072 2169 3072 
Q 1681 3072 1420 2755 
Q 1159 2438 1159 1844 
L 1159 0 
L 581 0 
L 581 3500 
L 1159 3500 
L 1159 2956 
Q 1341 3275 1631 3429 
Q 1922 3584 2338 3584 
Q 2397 3584 2469 3576 
Q 2541 3569 2628 3553 
L 2631 2963 
z
" transform="scale(0.015625)"/>
       <path id="DejaVuSans-6b" d="M 581 4863 
L 1159 4863 
L 1159 1991 
L 2875 3500 
L 3609 3500 
L 1753 1863 
L 3688 0 
L 2938 0 
L 1159 1709 
L 1159 0 
L 581 0 
L 581 4863 
z
" transform="scale(0.015625)"/>
      </defs>
      <use xlink:href="#DejaVuSans-4d"/>
      <use xlink:href="#DejaVuSans-65" x="86.279297"/>
      <use xlink:href="#DejaVuSans-61" x="147.802734"/>
      <use xlink:href="#DejaVuSans-6e" x="209.082031"/>
      <use xlink:href="#DejaVuSans-20" x="272.460938"/>
      <use xlink:href="#DejaVuSans-4e" x="304.248047"/>
      <use xlink:href="#DejaVuSans-65" x="379.052734"/>
      <use xlink:href="#DejaVuSans-74" x="440.576172"/>
      <use xlink:href="#DejaVuSans-77" x="479.785156"/>
      <use xlink:href="#DejaVuSans-6f" x="561.572266"/>
      <use xlink:href="#DejaVuSans-72" x="622.753906"/>
      <use xlink:href="#DejaVuSans-6b" x="663.867188"/>
      <use xlink:href="#DejaVuSans-20" x="721.777344"/>
      <use xlink:href="#DejaVuSans-53" x="753.564453"/>
      <use xlink:href="#DejaVuSans-63" x="817.041016"/>
      <use xlink:href="#DejaVuSans-6f" x="872.021484"/>
      <use xlink:href="#DejaVuSans-72" x="933.203125"/>
      <use xlink:href="#DejaVuSans-65" x="972.066406"/>
     </g>
    </g>
   </g>
   <g id="line2d_8">
    <path d="M 229.5 107.878605 
L 508.5 123.184188 
" clip-path="url(#p2318fc57b3)" style="fill: none; stroke: #1f77b4; stroke-width: 1.5; stroke-linecap: square"/>
    <defs>
     <path id="m1689e36431" d="M 0 3 
C 0.795609 3 1.55874 2.683901 2.12132 2.12132 
C 2.683901 1.55874 3 0.795609 3 0 
C 3 -0.795609 2.683901 -1.55874 2.12132 -2.12132 
C 1.55874 -2.683901 0.795609 -3 0 -3 
C -0.795609 -3 -1.55874 -2.683901 -2.12132 -2.12132 
C -2.683901 -1.55874 -3 -0.795609 -3 0 
C -3 0.795609 -2.683901 1.55874 -2.12132 2.12132 
C -1.55874 2.683901 -0.795609 3 0 3 
z
" style="stroke: #1f77b4"/>
    </defs>
    <g clip-path="url(#p2318fc57b3)">
     <use xlink:href="#m1689e36431" x="229.5" y="107.878605" style="fill: #1f77b4; stroke: #1f77b4"/>
     <use xlink:href="#m1689e36431" x="508.5" y="123.184188" style="fill: #1f77b4; stroke: #1f77b4"/>
    </g>
   </g>
   <g id="line2d_9">
    <path d="M 229.5 104.026052 
L 508.5 98.56466 
" clip-path="url(#p2318fc57b3)" style="fill: none; stroke: #ff7f0e; stroke-width: 1.5; stroke-linecap: square"/>
    <defs>
     <path id="mcf462cc22d" d="M 0 3 
C 0.795609 3 1.55874 2.683901 2.12132 2.12132 
C 2.683901 1.55874 3 0.795609 3 0 
C 3 -0.795609 2.683901 -1.55874 2.12132 -2.12132 
C 1.55874 -2.683901 0.795609 -3 0 -3 
C -0.795609 -3 -1.55874 -2.683901 -2.12132 -2.12132 
C -2.683901 -1.55874 -3 -0.795609 -3 0 
C -3 0.795609 -2.683901 1.55874 -2.12132 2.12132 
C -1.55874 2.683901 -0.795609 3 0 3 
z
" style="stroke: #ff7f0e"/>
    </defs>
    <g clip-path="url(#p2318fc57b3)">
     <use xlink:href="#mcf462cc22d" x="229.5" y="104.026052" style="fill: #ff7f0e; stroke: #ff7f0e"/>
     <use xlink:href="#mcf462cc22d" x="508.5" y="98.56466" style="fill: #ff7f0e; stroke: #ff7f0e"/>
    </g>
   </g>
   <g id="line2d_10">
    <path d="M 229.5 221.564096 
L 508.5 218.667387 
" clip-path="url(#p2318fc57b3)" style="fill: none; stroke: #2ca02c; stroke-width: 1.5; stroke-linecap: square"/>
    <defs>
     <path id="m1f5fbe5897" d="M 0 3 
C 0.795609 3 1.55874 2.683901 2.12132 2.12132 
C 2.683901 1.55874 3 0.795609 3 0 
C 3 -0.795609 2.683901 -1.55874 2.12132 -2.12132 
C 1.55874 -2.683901 0.795609 -3 0 -3 
C -0.795609 -3 -1.55874 -2.683901 -2.12132 -2.12132 
C -2.683901 -1.55874 -3 -0.795609 -3 0 
C -3 0.795609 -2.683901 1.55874 -2.12132 2.12132 
C -1.55874 2.683901 -0.795609 3 0 3 
z
" style="stroke: #2ca02c"/>
    </defs>
    <g clip-path="url(#p2318fc57b3)">
     <use xlink:href="#m1f5fbe5897" x="229.5" y="221.564096" style="fill: #2ca02c; stroke: #2ca02c"/>
     <use xlink:href="#m1f5fbe5897" x="508.5" y="218.667387" style="fill: #2ca02c; stroke: #2ca02c"/>
    </g>
   </g>
   <g id="line2d_11">
    <path d="M 229.5 151.927357 
L 508.5 140.089867 
" clip-path="url(#p2318fc57b3)" style="fill: none; stroke: #d62728; stroke-width: 1.5; stroke-linecap: square"/>
    <defs>
     <path id="m0c3319052d" d="M 0 3 
C 0.795609 3 1.55874 2.683901 2.12132 2.12132 
C 2.683901 1.55874 3 0.795609 3 0 
C 3 -0.795609 2.683901 -1.55874 2.12132 -2.12132 
C 1.55874 -2.683901 0.795609 -3 0 -3 
C -0.795609 -3 -1.55874 -2.683901 -2.12132 -2.12132 
C -2.683901 -1.55874 -3 -0.795609 -3 0 
C -3 0.795609 -2.683901 1.55874 -2.12132 2.12132 
C -1.55874 2.683901 -0.795609 3 0 3 
z
" style="stroke: #d62728"/>
    </defs>
    <g clip-path="url(#p2318fc57b3)">
     <use xlink:href="#m0c3319052d" x="229.5" y="151.927357" style="fill: #d62728; stroke: #d62728"/>
     <use xlink:href="#m0c3319052d" x="508.5" y="140.089867" style="fill: #d62728; stroke: #d62728"/>
    </g>
   </g>
   <g id="line2d_12">
    <path d="M 229.5 288.815565 
L 508.5 302.645455 
" clip-path="url(#p2318fc57b3)" style="fill: none; stroke: #9467bd; stroke-width: 1.5; stroke-linecap: square"/>
    <defs>
     <path id="mcc51931946" d="M 0 3 
C 0.795609 3 1.55874 2.683901 2.12132 2.12132 
C 2.683901 1.55874 3 0.795609 3 0 
C 3 -0.795609 2.683901 -1.55874 2.12132 -2.12132 
C 1.55874 -2.683901 0.795609 -3 0 -3 
C -0.795609 -3 -1.55874 -2.683901 -2.12132 -2.12132 
C -2.683901 -1.55874 -3 -0.795609 -3 0 
C -3 0.795609 -2.683901 1.55874 -2.12132 2.12132 
C -1.55874 2.683901 -0.795609 3 0 3 
z
" style="stroke: #9467bd"/>
    </defs>
    <g clip-path="url(#p2318fc57b3)">
     <use xlink:href="#mcc51931946" x="229.5" y="288.815565" style="fill: #9467bd; stroke: #9467bd"/>
     <use xlink:href="#mcc51931946" x="508.5" y="302.645455" style="fill: #9467bd; stroke: #9467bd"/>
    </g>
   </g>
   <g id="line2d_13">
    <path d="M 229.5 101.803463 
L 508.5 91.754886 
" clip-path="url(#p2318fc57b3)" style="fill: none; stroke: #8c564b; stroke-width: 1.5; stroke-linecap: square"/>
    <defs>
     <path id="mefe321cac3" d="M 0 3 
C 0.795609 3 1.55874 2.683901 2.12132 2.12132 
C 2.683901 1.55874 3 0.795609 3 0 
C 3 -0.795609 2.683901 -1.55874 2.12132 -2.12132 
C 1.55874 -2.683901 0.795609 -3 0 -3 
C -0.795609 -3 -1.55874 -2.683901 -2.12132 -2.12132 
C -2.683901 -1.55874 -3 -0.795609 -3 0 
C -3 0.795609 -2.683901 1.55874 -2.12132 2.12132 
C -1.55874 2.683901 -0.795609 3 0 3 
z
" style="stroke: #8c564b"/>
    </defs>
    <g clip-path="url(#p2318fc57b3)">
     <use xlink:href="#mefe321cac3" x="229.5" y="101.803463" style="fill: #8c564b; stroke: #8c564b"/>
     <use xlink:href="#mefe321cac3" x="508.5" y="91.754886" style="fill: #8c564b; stroke: #8c564b"/>
    </g>
   </g>
   <g id="line2d_14">
    <path d="M 229.5 55.554545 
L 508.5 64.076085 
" clip-path="url(#p2318fc57b3)" style="fill: none; stroke: #e377c2; stroke-width: 1.5; stroke-linecap: square"/>
    <defs>
     <path id="m7f77b99e47" d="M 0 3 
C 0.795609 3 1.55874 2.683901 2.12132 2.12132 
C 2.683901 1.55874 3 0.795609 3 0 
C 3 -0.795609 2.683901 -1.55874 2.12132 -2.12132 
C 1.55874 -2.683901 0.795609 -3 0 -3 
C -0.795609 -3 -1.55874 -2.683901 -2.12132 -2.12132 
C -2.683901 -1.55874 -3 -0.795609 -3 0 
C -3 0.795609 -2.683901 1.55874 -2.12132 2.12132 
C -1.55874 2.683901 -0.795609 3 0 3 
z
" style="stroke: #e377c2"/>
    </defs>
    <g clip-path="url(#p2318fc57b3)">
     <use xlink:href="#m7f77b99e47" x="229.5" y="55.554545" style="fill: #e377c2; stroke: #e377c2"/>
     <use xlink:href="#m7f77b99e47" x="508.5" y="64.076085" style="fill: #e377c2; stroke: #e377c2"/>
    </g>
   </g>
   <g id="line2d_15">
    <path d="M 229.5 117.150727 
L 508.5 116.650063 
" clip-path="url(#p2318fc57b3)" style="fill: none; stroke: #7f7f7f; stroke-width: 1.5; stroke-linecap: square"/>
    <defs>
     <path id="mfbe7ae0783" d="M 0 3 
C 0.795609 3 1.55874 2.683901 2.12132 2.12132 
C 2.683901 1.55874 3 0.795609 3 0 
C 3 -0.795609 2.683901 -1.55874 2.12132 -2.12132 
C 1.55874 -2.683901 0.795609 -3 0 -3 
C -0.795609 -3 -1.55874 -2.683901 -2.12132 -2.12132 
C -2.683901 -1.55874 -3 -0.795609 -3 0 
C -3 0.795609 -2.683901 1.55874 -2.12132 2.12132 
C -1.55874 2.683901 -0.795609 3 0 3 
z
" style="stroke: #7f7f7f"/>
    </defs>
    <g clip-path="url(#p2318fc57b3)">
     <use xlink:href="#mfbe7ae0783" x="229.5" y="117.150727" style="fill: #7f7f7f; stroke: #7f7f7f"/>
     <use xlink:href="#mfbe7ae0783" x="508.5" y="116.650063" style="fill: #7f7f7f; stroke: #7f7f7f"/>
    </g>
   </g>
   <g id="line2d_16">
    <path d="M 229.5 120.066504 
L 508.5 124.239932 
" clip-path="url(#p2318fc57b3)" style="fill: none; stroke: #bcbd22; stroke-width: 1.5; stroke-linecap: square"/>
    <defs>
     <path id="mc33d58522d" d="M 0 3 
C 0.795609 3 1.55874 2.683901 2.12132 2.12132 
C 2.683901 1.55874 3 0.795609 3 0 
C 3 -0.795609 2.683901 -1.55874 2.12132 -2.12132 
C 1.55874 -2.683901 0.795609 -3 0 -3 
C -0.795609 -3 -1.55874 -2.683901 -2.12132 -2.12132 
C -2.683901 -1.55874 -3 -0.795609 -3 0 
C -3 0.795609 -2.683901 1.55874 -2.12132 2.12132 
C -1.55874 2.683901 -0.795609 3 0 3 
z
" style="stroke: #bcbd22"/>
    </defs>
    <g clip-path="url(#p2318fc57b3)">
     <use xlink:href="#mc33d58522d" x="229.5" y="120.066504" style="fill: #bcbd22; stroke: #bcbd22"/>
     <use xlink:href="#mc33d58522d" x="508.5" y="124.239932" style="fill: #bcbd22; stroke: #bcbd22"/>
    </g>
   </g>
   <g id="line2d_17">
    <path d="M 229.5 63.739757 
L 508.5 55.971446 
" clip-path="url(#p2318fc57b3)" style="fill: none; stroke: #17becf; stroke-width: 1.5; stroke-linecap: square"/>
    <defs>
     <path id="m891155d203" d="M 0 3 
C 0.795609 3 1.55874 2.683901 2.12132 2.12132 
C 2.683901 1.55874 3 0.795609 3 0 
C 3 -0.795609 2.683901 -1.55874 2.12132 -2.12132 
C 1.55874 -2.683901 0.795609 -3 0 -3 
C -0.795609 -3 -1.55874 -2.683901 -2.12132 -2.12132 
C -2.683901 -1.55874 -3 -0.795609 -3 0 
C -3 0.795609 -2.683901 1.55874 -2.12132 2.12132 
C -1.55874 2.683901 -0.795609 3 0 3 
z
" style="stroke: #17becf"/>
    </defs>
    <g clip-path="url(#p2318fc57b3)">
     <use xlink:href="#m891155d203" x="229.5" y="63.739757" style="fill: #17becf; stroke: #17becf"/>
     <use xlink:href="#m891155d203" x="508.5" y="55.971446" style="fill: #17becf; stroke: #17becf"/>
    </g>
   </g>
   <g id="line2d_18">
    <path d="M 229.5 74.996057 
L 508.5 61.521681 
" clip-path="url(#p2318fc57b3)" style="fill: none; stroke: #1f77b4; stroke-width: 1.5; stroke-linecap: square"/>
    <g clip-path="url(#p2318fc57b3)">
     <use xlink:href="#m1689e36431" x="229.5" y="74.996057" style="fill: #1f77b4; stroke: #1f77b4"/>
     <use xlink:href="#m1689e36431" x="508.5" y="61.521681" style="fill: #1f77b4; stroke: #1f77b4"/>
    </g>
   </g>
   <g id="line2d_19">
    <path d="M 229.5 83.461125 
L 508.5 88.468472 
" clip-path="url(#p2318fc57b3)" style="fill: none; stroke: #ff7f0e; stroke-width: 1.5; stroke-linecap: square"/>
    <g clip-path="url(#p2318fc57b3)">
     <use xlink:href="#mcf462cc22d" x="229.5" y="83.461125" style="fill: #ff7f0e; stroke: #ff7f0e"/>
     <use xlink:href="#mcf462cc22d" x="508.5" y="88.468472" style="fill: #ff7f0e; stroke: #ff7f0e"/>
    </g>
   </g>
   <g id="patch_3">
    <path d="M 90 315 
L 90 43.2 
" style="fill: none; stroke: #000000; stroke-width: 0.8; stroke-linejoin: miter; stroke-linecap: square"/>
   </g>
   <g id="patch_4">
    <path d="M 648 315 
L 648 43.2 
" style="fill: none; stroke: #000000; stroke-width: 0.8; stroke-linejoin: miter; stroke-linecap: square"/>
   </g>
   <g id="patch_5">
    <path d="M 90 315 
L 648 315 
" style="fill: none; stroke: #000000; stroke-width: 0.8; stroke-linejoin: miter; stroke-linecap: square"/>
   </g>
   <g id="patch_6">
    <path d="M 90 43.2 
L 648 43.2 
" style="fill: none; stroke: #000000; stroke-width: 0.8; stroke-linejoin: miter; stroke-linecap: square"/>
   </g>
   <g id="text_9">
    <!-- Mean Social vs Object Score, uncorrected pval: 0.91 -->
    <g transform="translate(212.387812 37.2)scale(0.12 -0.12)">
     <defs>
      <path id="DejaVuSans-76" d="M 191 3500 
L 800 3500 
L 1894 563 
L 2988 3500 
L 3597 3500 
L 2284 0 
L 1503 0 
L 191 3500 
z
" transform="scale(0.015625)"/>
      <path id="DejaVuSans-73" d="M 2834 3397 
L 2834 2853 
Q 2591 2978 2328 3040 
Q 2066 3103 1784 3103 
Q 1356 3103 1142 2972 
Q 928 2841 928 2578 
Q 928 2378 1081 2264 
Q 1234 2150 1697 2047 
L 1894 2003 
Q 2506 1872 2764 1633 
Q 3022 1394 3022 966 
Q 3022 478 2636 193 
Q 2250 -91 1575 -91 
Q 1294 -91 989 -36 
Q 684 19 347 128 
L 347 722 
Q 666 556 975 473 
Q 1284 391 1588 391 
Q 1994 391 2212 530 
Q 2431 669 2431 922 
Q 2431 1156 2273 1281 
Q 2116 1406 1581 1522 
L 1381 1569 
Q 847 1681 609 1914 
Q 372 2147 372 2553 
Q 372 3047 722 3315 
Q 1072 3584 1716 3584 
Q 2034 3584 2315 3537 
Q 2597 3491 2834 3397 
z
" transform="scale(0.015625)"/>
      <path id="DejaVuSans-2c" d="M 750 794 
L 1409 794 
L 1409 256 
L 897 -744 
L 494 -744 
L 750 256 
L 750 794 
z
" transform="scale(0.015625)"/>
      <path id="DejaVuSans-75" d="M 544 1381 
L 544 3500 
L 1119 3500 
L 1119 1403 
Q 1119 906 1312 657 
Q 1506 409 1894 409 
Q 2359 409 2629 706 
Q 2900 1003 2900 1516 
L 2900 3500 
L 3475 3500 
L 3475 0 
L 2900 0 
L 2900 538 
Q 2691 219 2414 64 
Q 2138 -91 1772 -91 
Q 1169 -91 856 284 
Q 544 659 544 1381 
z
M 1991 3584 
L 1991 3584 
z
" transform="scale(0.015625)"/>
      <path id="DejaVuSans-64" d="M 2906 2969 
L 2906 4863 
L 3481 4863 
L 3481 0 
L 2906 0 
L 2906 525 
Q 2725 213 2448 61 
Q 2172 -91 1784 -91 
Q 1150 -91 751 415 
Q 353 922 353 1747 
Q 353 2572 751 3078 
Q 1150 3584 1784 3584 
Q 2172 3584 2448 3432 
Q 2725 3281 2906 2969 
z
M 947 1747 
Q 947 1113 1208 752 
Q 1469 391 1925 391 
Q 2381 391 2643 752 
Q 2906 1113 2906 1747 
Q 2906 2381 2643 2742 
Q 2381 3103 1925 3103 
Q 1469 3103 1208 2742 
Q 947 2381 947 1747 
z
" transform="scale(0.015625)"/>
      <path id="DejaVuSans-70" d="M 1159 525 
L 1159 -1331 
L 581 -1331 
L 581 3500 
L 1159 3500 
L 1159 2969 
Q 1341 3281 1617 3432 
Q 1894 3584 2278 3584 
Q 2916 3584 3314 3078 
Q 3713 2572 3713 1747 
Q 3713 922 3314 415 
Q 2916 -91 2278 -91 
Q 1894 -91 1617 61 
Q 1341 213 1159 525 
z
M 3116 1747 
Q 3116 2381 2855 2742 
Q 2594 3103 2138 3103 
Q 1681 3103 1420 2742 
Q 1159 2381 1159 1747 
Q 1159 1113 1420 752 
Q 1681 391 2138 391 
Q 2594 391 2855 752 
Q 3116 1113 3116 1747 
z
" transform="scale(0.015625)"/>
      <path id="DejaVuSans-3a" d="M 750 794 
L 1409 794 
L 1409 0 
L 750 0 
L 750 794 
z
M 750 3309 
L 1409 3309 
L 1409 2516 
L 750 2516 
L 750 3309 
z
" transform="scale(0.015625)"/>
      <path id="DejaVuSans-39" d="M 703 97 
L 703 672 
Q 941 559 1184 500 
Q 1428 441 1663 441 
Q 2288 441 2617 861 
Q 2947 1281 2994 2138 
Q 2813 1869 2534 1725 
Q 2256 1581 1919 1581 
Q 1219 1581 811 2004 
Q 403 2428 403 3163 
Q 403 3881 828 4315 
Q 1253 4750 1959 4750 
Q 2769 4750 3195 4129 
Q 3622 3509 3622 2328 
Q 3622 1225 3098 567 
Q 2575 -91 1691 -91 
Q 1453 -91 1209 -44 
Q 966 3 703 97 
z
M 1959 2075 
Q 2384 2075 2632 2365 
Q 2881 2656 2881 3163 
Q 2881 3666 2632 3958 
Q 2384 4250 1959 4250 
Q 1534 4250 1286 3958 
Q 1038 3666 1038 3163 
Q 1038 2656 1286 2365 
Q 1534 2075 1959 2075 
z
" transform="scale(0.015625)"/>
     </defs>
     <use xlink:href="#DejaVuSans-4d"/>
     <use xlink:href="#DejaVuSans-65" x="86.279297"/>
     <use xlink:href="#DejaVuSans-61" x="147.802734"/>
     <use xlink:href="#DejaVuSans-6e" x="209.082031"/>
     <use xlink:href="#DejaVuSans-20" x="272.460938"/>
     <use xlink:href="#DejaVuSans-53" x="304.248047"/>
     <use xlink:href="#DejaVuSans-6f" x="367.724609"/>
     <use xlink:href="#DejaVuSans-63" x="428.90625"/>
     <use xlink:href="#DejaVuSans-69" x="483.886719"/>
     <use xlink:href="#DejaVuSans-61" x="511.669922"/>
     <use xlink:href="#DejaVuSans-6c" x="572.949219"/>
     <use xlink:href="#DejaVuSans-20" x="600.732422"/>
     <use xlink:href="#DejaVuSans-76" x="632.519531"/>
     <use xlink:href="#DejaVuSans-73" x="691.699219"/>
     <use xlink:href="#DejaVuSans-20" x="743.798828"/>
     <use xlink:href="#DejaVuSans-4f" x="775.585938"/>
     <use xlink:href="#DejaVuSans-62" x="854.296875"/>
     <use xlink:href="#DejaVuSans-6a" x="917.773438"/>
     <use xlink:href="#DejaVuSans-65" x="945.556641"/>
     <use xlink:href="#DejaVuSans-63" x="1007.080078"/>
     <use xlink:href="#DejaVuSans-74" x="1062.060547"/>
     <use xlink:href="#DejaVuSans-20" x="1101.269531"/>
     <use xlink:href="#DejaVuSans-53" x="1133.056641"/>
     <use xlink:href="#DejaVuSans-63" x="1196.533203"/>
     <use xlink:href="#DejaVuSans-6f" x="1251.513672"/>
     <use xlink:href="#DejaVuSans-72" x="1312.695312"/>
     <use xlink:href="#DejaVuSans-65" x="1351.558594"/>
     <use xlink:href="#DejaVuSans-2c" x="1413.082031"/>
     <use xlink:href="#DejaVuSans-20" x="1444.869141"/>
     <use xlink:href="#DejaVuSans-75" x="1476.65625"/>
     <use xlink:href="#DejaVuSans-6e" x="1540.035156"/>
     <use xlink:href="#DejaVuSans-63" x="1603.414062"/>
     <use xlink:href="#DejaVuSans-6f" x="1658.394531"/>
     <use xlink:href="#DejaVuSans-72" x="1719.576172"/>
     <use xlink:href="#DejaVuSans-72" x="1758.939453"/>
     <use xlink:href="#DejaVuSans-65" x="1797.802734"/>
     <use xlink:href="#DejaVuSans-63" x="1859.326172"/>
     <use xlink:href="#DejaVuSans-74" x="1914.306641"/>
     <use xlink:href="#DejaVuSans-65" x="1953.515625"/>
     <use xlink:href="#DejaVuSans-64" x="2015.039062"/>
     <use xlink:href="#DejaVuSans-20" x="2078.515625"/>
     <use xlink:href="#DejaVuSans-70" x="2110.302734"/>
     <use xlink:href="#DejaVuSans-76" x="2173.779297"/>
     <use xlink:href="#DejaVuSans-61" x="2232.958984"/>
     <use xlink:href="#DejaVuSans-6c" x="2294.238281"/>
     <use xlink:href="#DejaVuSans-3a" x="2322.021484"/>
     <use xlink:href="#DejaVuSans-20" x="2355.712891"/>
     <use xlink:href="#DejaVuSans-30" x="2387.5"/>
     <use xlink:href="#DejaVuSans-2e" x="2451.123047"/>
     <use xlink:href="#DejaVuSans-39" x="2482.910156"/>
     <use xlink:href="#DejaVuSans-31" x="2546.533203"/>
    </g>
   </g>
   <g id="legend_1">
    <g id="patch_7">
     <path d="M 543.5 227.3375 
L 641 227.3375 
Q 643 227.3375 643 225.3375 
L 643 50.2 
Q 643 48.2 641 48.2 
L 543.5 48.2 
Q 541.5 48.2 541.5 50.2 
L 541.5 225.3375 
Q 541.5 227.3375 543.5 227.3375 
z
" style="fill: #ffffff; opacity: 0.8; stroke: #cccccc; stroke-linejoin: miter"/>
    </g>
    <g id="line2d_20">
     <path d="M 545.5 56.298437 
L 555.5 56.298437 
L 565.5 56.298437 
" style="fill: none; stroke: #1f77b4; stroke-width: 1.5; stroke-linecap: square"/>
     <g>
      <use xlink:href="#m1689e36431" x="555.5" y="56.298437" style="fill: #1f77b4; stroke: #1f77b4"/>
     </g>
    </g>
    <g id="text_10">
     <!-- MouseC5C12 -->
     <g transform="translate(573.5 59.798437)scale(0.1 -0.1)">
      <defs>
       <path id="DejaVuSans-43" d="M 4122 4306 
L 4122 3641 
Q 3803 3938 3442 4084 
Q 3081 4231 2675 4231 
Q 1875 4231 1450 3742 
Q 1025 3253 1025 2328 
Q 1025 1406 1450 917 
Q 1875 428 2675 428 
Q 3081 428 3442 575 
Q 3803 722 4122 1019 
L 4122 359 
Q 3791 134 3420 21 
Q 3050 -91 2638 -91 
Q 1578 -91 968 557 
Q 359 1206 359 2328 
Q 359 3453 968 4101 
Q 1578 4750 2638 4750 
Q 3056 4750 3426 4639 
Q 3797 4528 4122 4306 
z
" transform="scale(0.015625)"/>
      </defs>
      <use xlink:href="#DejaVuSans-4d"/>
      <use xlink:href="#DejaVuSans-6f" x="86.279297"/>
      <use xlink:href="#DejaVuSans-75" x="147.460938"/>
      <use xlink:href="#DejaVuSans-73" x="210.839844"/>
      <use xlink:href="#DejaVuSans-65" x="262.939453"/>
      <use xlink:href="#DejaVuSans-43" x="324.462891"/>
      <use xlink:href="#DejaVuSans-35" x="394.287109"/>
      <use xlink:href="#DejaVuSans-43" x="457.910156"/>
      <use xlink:href="#DejaVuSans-31" x="527.734375"/>
      <use xlink:href="#DejaVuSans-32" x="591.357422"/>
     </g>
    </g>
    <g id="line2d_21">
     <path d="M 545.5 70.976562 
L 555.5 70.976562 
L 565.5 70.976562 
" style="fill: none; stroke: #ff7f0e; stroke-width: 1.5; stroke-linecap: square"/>
     <g>
      <use xlink:href="#mcf462cc22d" x="555.5" y="70.976562" style="fill: #ff7f0e; stroke: #ff7f0e"/>
     </g>
    </g>
    <g id="text_11">
     <!-- MouseC5C13 -->
     <g transform="translate(573.5 74.476562)scale(0.1 -0.1)">
      <use xlink:href="#DejaVuSans-4d"/>
      <use xlink:href="#DejaVuSans-6f" x="86.279297"/>
      <use xlink:href="#DejaVuSans-75" x="147.460938"/>
      <use xlink:href="#DejaVuSans-73" x="210.839844"/>
      <use xlink:href="#DejaVuSans-65" x="262.939453"/>
      <use xlink:href="#DejaVuSans-43" x="324.462891"/>
      <use xlink:href="#DejaVuSans-35" x="394.287109"/>
      <use xlink:href="#DejaVuSans-43" x="457.910156"/>
      <use xlink:href="#DejaVuSans-31" x="527.734375"/>
      <use xlink:href="#DejaVuSans-33" x="591.357422"/>
     </g>
    </g>
    <g id="line2d_22">
     <path d="M 545.5 85.654688 
L 555.5 85.654688 
L 565.5 85.654688 
" style="fill: none; stroke: #2ca02c; stroke-width: 1.5; stroke-linecap: square"/>
     <g>
      <use xlink:href="#m1f5fbe5897" x="555.5" y="85.654688" style="fill: #2ca02c; stroke: #2ca02c"/>
     </g>
    </g>
    <g id="text_12">
     <!-- MouseC5C20 -->
     <g transform="translate(573.5 89.154688)scale(0.1 -0.1)">
      <use xlink:href="#DejaVuSans-4d"/>
      <use xlink:href="#DejaVuSans-6f" x="86.279297"/>
      <use xlink:href="#DejaVuSans-75" x="147.460938"/>
      <use xlink:href="#DejaVuSans-73" x="210.839844"/>
      <use xlink:href="#DejaVuSans-65" x="262.939453"/>
      <use xlink:href="#DejaVuSans-43" x="324.462891"/>
      <use xlink:href="#DejaVuSans-35" x="394.287109"/>
      <use xlink:href="#DejaVuSans-43" x="457.910156"/>
      <use xlink:href="#DejaVuSans-32" x="527.734375"/>
      <use xlink:href="#DejaVuSans-30" x="591.357422"/>
     </g>
    </g>
    <g id="line2d_23">
     <path d="M 545.5 100.332812 
L 555.5 100.332812 
L 565.5 100.332812 
" style="fill: none; stroke: #d62728; stroke-width: 1.5; stroke-linecap: square"/>
     <g>
      <use xlink:href="#m0c3319052d" x="555.5" y="100.332812" style="fill: #d62728; stroke: #d62728"/>
     </g>
    </g>
    <g id="text_13">
     <!-- MouseC5C22 -->
     <g transform="translate(573.5 103.832812)scale(0.1 -0.1)">
      <use xlink:href="#DejaVuSans-4d"/>
      <use xlink:href="#DejaVuSans-6f" x="86.279297"/>
      <use xlink:href="#DejaVuSans-75" x="147.460938"/>
      <use xlink:href="#DejaVuSans-73" x="210.839844"/>
      <use xlink:href="#DejaVuSans-65" x="262.939453"/>
      <use xlink:href="#DejaVuSans-43" x="324.462891"/>
      <use xlink:href="#DejaVuSans-35" x="394.287109"/>
      <use xlink:href="#DejaVuSans-43" x="457.910156"/>
      <use xlink:href="#DejaVuSans-32" x="527.734375"/>
      <use xlink:href="#DejaVuSans-32" x="591.357422"/>
     </g>
    </g>
    <g id="line2d_24">
     <path d="M 545.5 115.010938 
L 555.5 115.010938 
L 565.5 115.010938 
" style="fill: none; stroke: #9467bd; stroke-width: 1.5; stroke-linecap: square"/>
     <g>
      <use xlink:href="#mcc51931946" x="555.5" y="115.010938" style="fill: #9467bd; stroke: #9467bd"/>
     </g>
    </g>
    <g id="text_14">
     <!-- MouseC5C23 -->
     <g transform="translate(573.5 118.510938)scale(0.1 -0.1)">
      <use xlink:href="#DejaVuSans-4d"/>
      <use xlink:href="#DejaVuSans-6f" x="86.279297"/>
      <use xlink:href="#DejaVuSans-75" x="147.460938"/>
      <use xlink:href="#DejaVuSans-73" x="210.839844"/>
      <use xlink:href="#DejaVuSans-65" x="262.939453"/>
      <use xlink:href="#DejaVuSans-43" x="324.462891"/>
      <use xlink:href="#DejaVuSans-35" x="394.287109"/>
      <use xlink:href="#DejaVuSans-43" x="457.910156"/>
      <use xlink:href="#DejaVuSans-32" x="527.734375"/>
      <use xlink:href="#DejaVuSans-33" x="591.357422"/>
     </g>
    </g>
    <g id="line2d_25">
     <path d="M 545.5 129.689062 
L 555.5 129.689062 
L 565.5 129.689062 
" style="fill: none; stroke: #8c564b; stroke-width: 1.5; stroke-linecap: square"/>
     <g>
      <use xlink:href="#mefe321cac3" x="555.5" y="129.689062" style="fill: #8c564b; stroke: #8c564b"/>
     </g>
    </g>
    <g id="text_15">
     <!-- MouseC5C24 -->
     <g transform="translate(573.5 133.189062)scale(0.1 -0.1)">
      <defs>
       <path id="DejaVuSans-34" d="M 2419 4116 
L 825 1625 
L 2419 1625 
L 2419 4116 
z
M 2253 4666 
L 3047 4666 
L 3047 1625 
L 3713 1625 
L 3713 1100 
L 3047 1100 
L 3047 0 
L 2419 0 
L 2419 1100 
L 313 1100 
L 313 1709 
L 2253 4666 
z
" transform="scale(0.015625)"/>
      </defs>
      <use xlink:href="#DejaVuSans-4d"/>
      <use xlink:href="#DejaVuSans-6f" x="86.279297"/>
      <use xlink:href="#DejaVuSans-75" x="147.460938"/>
      <use xlink:href="#DejaVuSans-73" x="210.839844"/>
      <use xlink:href="#DejaVuSans-65" x="262.939453"/>
      <use xlink:href="#DejaVuSans-43" x="324.462891"/>
      <use xlink:href="#DejaVuSans-35" x="394.287109"/>
      <use xlink:href="#DejaVuSans-43" x="457.910156"/>
      <use xlink:href="#DejaVuSans-32" x="527.734375"/>
      <use xlink:href="#DejaVuSans-34" x="591.357422"/>
     </g>
    </g>
    <g id="line2d_26">
     <path d="M 545.5 144.367188 
L 555.5 144.367188 
L 565.5 144.367188 
" style="fill: none; stroke: #e377c2; stroke-width: 1.5; stroke-linecap: square"/>
     <g>
      <use xlink:href="#m7f77b99e47" x="555.5" y="144.367188" style="fill: #e377c2; stroke: #e377c2"/>
     </g>
    </g>
    <g id="text_16">
     <!-- MouseC5S10 -->
     <g transform="translate(573.5 147.867188)scale(0.1 -0.1)">
      <use xlink:href="#DejaVuSans-4d"/>
      <use xlink:href="#DejaVuSans-6f" x="86.279297"/>
      <use xlink:href="#DejaVuSans-75" x="147.460938"/>
      <use xlink:href="#DejaVuSans-73" x="210.839844"/>
      <use xlink:href="#DejaVuSans-65" x="262.939453"/>
      <use xlink:href="#DejaVuSans-43" x="324.462891"/>
      <use xlink:href="#DejaVuSans-35" x="394.287109"/>
      <use xlink:href="#DejaVuSans-53" x="457.910156"/>
      <use xlink:href="#DejaVuSans-31" x="521.386719"/>
      <use xlink:href="#DejaVuSans-30" x="585.009766"/>
     </g>
    </g>
    <g id="line2d_27">
     <path d="M 545.5 159.045312 
L 555.5 159.045312 
L 565.5 159.045312 
" style="fill: none; stroke: #7f7f7f; stroke-width: 1.5; stroke-linecap: square"/>
     <g>
      <use xlink:href="#mfbe7ae0783" x="555.5" y="159.045312" style="fill: #7f7f7f; stroke: #7f7f7f"/>
     </g>
    </g>
    <g id="text_17">
     <!-- MouseC5S11 -->
     <g transform="translate(573.5 162.545312)scale(0.1 -0.1)">
      <use xlink:href="#DejaVuSans-4d"/>
      <use xlink:href="#DejaVuSans-6f" x="86.279297"/>
      <use xlink:href="#DejaVuSans-75" x="147.460938"/>
      <use xlink:href="#DejaVuSans-73" x="210.839844"/>
      <use xlink:href="#DejaVuSans-65" x="262.939453"/>
      <use xlink:href="#DejaVuSans-43" x="324.462891"/>
      <use xlink:href="#DejaVuSans-35" x="394.287109"/>
      <use xlink:href="#DejaVuSans-53" x="457.910156"/>
      <use xlink:href="#DejaVuSans-31" x="521.386719"/>
      <use xlink:href="#DejaVuSans-31" x="585.009766"/>
     </g>
    </g>
    <g id="line2d_28">
     <path d="M 545.5 173.723437 
L 555.5 173.723437 
L 565.5 173.723437 
" style="fill: none; stroke: #bcbd22; stroke-width: 1.5; stroke-linecap: square"/>
     <g>
      <use xlink:href="#mc33d58522d" x="555.5" y="173.723437" style="fill: #bcbd22; stroke: #bcbd22"/>
     </g>
    </g>
    <g id="text_18">
     <!-- MouseC5S12 -->
     <g transform="translate(573.5 177.223437)scale(0.1 -0.1)">
      <use xlink:href="#DejaVuSans-4d"/>
      <use xlink:href="#DejaVuSans-6f" x="86.279297"/>
      <use xlink:href="#DejaVuSans-75" x="147.460938"/>
      <use xlink:href="#DejaVuSans-73" x="210.839844"/>
      <use xlink:href="#DejaVuSans-65" x="262.939453"/>
      <use xlink:href="#DejaVuSans-43" x="324.462891"/>
      <use xlink:href="#DejaVuSans-35" x="394.287109"/>
      <use xlink:href="#DejaVuSans-53" x="457.910156"/>
      <use xlink:href="#DejaVuSans-31" x="521.386719"/>
      <use xlink:href="#DejaVuSans-32" x="585.009766"/>
     </g>
    </g>
    <g id="line2d_29">
     <path d="M 545.5 188.401562 
L 555.5 188.401562 
L 565.5 188.401562 
" style="fill: none; stroke: #17becf; stroke-width: 1.5; stroke-linecap: square"/>
     <g>
      <use xlink:href="#m891155d203" x="555.5" y="188.401562" style="fill: #17becf; stroke: #17becf"/>
     </g>
    </g>
    <g id="text_19">
     <!-- MouseC5S13 -->
     <g transform="translate(573.5 191.901562)scale(0.1 -0.1)">
      <use xlink:href="#DejaVuSans-4d"/>
      <use xlink:href="#DejaVuSans-6f" x="86.279297"/>
      <use xlink:href="#DejaVuSans-75" x="147.460938"/>
      <use xlink:href="#DejaVuSans-73" x="210.839844"/>
      <use xlink:href="#DejaVuSans-65" x="262.939453"/>
      <use xlink:href="#DejaVuSans-43" x="324.462891"/>
      <use xlink:href="#DejaVuSans-35" x="394.287109"/>
      <use xlink:href="#DejaVuSans-53" x="457.910156"/>
      <use xlink:href="#DejaVuSans-31" x="521.386719"/>
      <use xlink:href="#DejaVuSans-33" x="585.009766"/>
     </g>
    </g>
    <g id="line2d_30">
     <path d="M 545.5 203.079687 
L 555.5 203.079687 
L 565.5 203.079687 
" style="fill: none; stroke: #1f77b4; stroke-width: 1.5; stroke-linecap: square"/>
     <g>
      <use xlink:href="#m1689e36431" x="555.5" y="203.079687" style="fill: #1f77b4; stroke: #1f77b4"/>
     </g>
    </g>
    <g id="text_20">
     <!-- MouseC5S14 -->
     <g transform="translate(573.5 206.579687)scale(0.1 -0.1)">
      <use xlink:href="#DejaVuSans-4d"/>
      <use xlink:href="#DejaVuSans-6f" x="86.279297"/>
      <use xlink:href="#DejaVuSans-75" x="147.460938"/>
      <use xlink:href="#DejaVuSans-73" x="210.839844"/>
      <use xlink:href="#DejaVuSans-65" x="262.939453"/>
      <use xlink:href="#DejaVuSans-43" x="324.462891"/>
      <use xlink:href="#DejaVuSans-35" x="394.287109"/>
      <use xlink:href="#DejaVuSans-53" x="457.910156"/>
      <use xlink:href="#DejaVuSans-31" x="521.386719"/>
      <use xlink:href="#DejaVuSans-34" x="585.009766"/>
     </g>
    </g>
    <g id="line2d_31">
     <path d="M 545.5 217.757812 
L 555.5 217.757812 
L 565.5 217.757812 
" style="fill: none; stroke: #ff7f0e; stroke-width: 1.5; stroke-linecap: square"/>
     <g>
      <use xlink:href="#mcf462cc22d" x="555.5" y="217.757812" style="fill: #ff7f0e; stroke: #ff7f0e"/>
     </g>
    </g>
    <g id="text_21">
     <!-- MouseC5S23 -->
     <g transform="translate(573.5 221.257812)scale(0.1 -0.1)">
      <use xlink:href="#DejaVuSans-4d"/>
      <use xlink:href="#DejaVuSans-6f" x="86.279297"/>
      <use xlink:href="#DejaVuSans-75" x="147.460938"/>
      <use xlink:href="#DejaVuSans-73" x="210.839844"/>
      <use xlink:href="#DejaVuSans-65" x="262.939453"/>
      <use xlink:href="#DejaVuSans-43" x="324.462891"/>
      <use xlink:href="#DejaVuSans-35" x="394.287109"/>
      <use xlink:href="#DejaVuSans-53" x="457.910156"/>
      <use xlink:href="#DejaVuSans-32" x="521.386719"/>
      <use xlink:href="#DejaVuSans-33" x="585.009766"/>
     </g>
    </g>
   </g>
  </g>
 </g>
 <defs>
  <clipPath id="p2318fc57b3">
   <rect x="90" y="43.2" width="558" height="271.8"/>
  </clipPath>
 </defs>
</svg>
