<?xml version="1.0" encoding="utf-8" standalone="no"?>
<!DOCTYPE svg PUBLIC "-//W3C//DTD SVG 1.1//EN"
  "http://www.w3.org/Graphics/SVG/1.1/DTD/svg11.dtd">
<svg xmlns:xlink="http://www.w3.org/1999/xlink" width="864pt" height="720pt" viewBox="0 0 864 720" xmlns="http://www.w3.org/2000/svg" version="1.1">
 <metadata>
  <rdf:RDF xmlns:dc="http://purl.org/dc/elements/1.1/" xmlns:cc="http://creativecommons.org/ns#" xmlns:rdf="http://www.w3.org/1999/02/22-rdf-syntax-ns#">
   <cc:Work>
    <dc:type rdf:resource="http://purl.org/dc/dcmitype/StillImage"/>
    <dc:date>2023-06-24T11:05:49.401823</dc:date>
    <dc:format>image/svg+xml</dc:format>
    <dc:creator>
     <cc:Agent>
      <dc:title>Matplotlib v3.5.3, https://matplotlib.org/</dc:title>
     </cc:Agent>
    </dc:creator>
   </cc:Work>
  </rdf:RDF>
 </metadata>
 <defs>
  <style type="text/css">*{stroke-linejoin: round; stroke-linecap: butt}</style>
 </defs>
 <g id="figure_1">
  <g id="patch_1">
   <path d="M 0 720 
L 864 720 
L 864 0 
L 0 0 
L 0 720 
z
" style="fill: none"/>
  </g>
  <g id="axes_1">
   <g id="patch_2">
    <path d="M 108 630 
L 777.6 630 
L 777.6 86.4 
L 108 86.4 
z
" style="fill: #ffffff"/>
   </g>
   <g id="PolyCollection_1">
    <defs>
     <path id="m2728cceebd" d="M 222.045547 -144.270571 
L 217.154453 -144.270571 
L 216.734563 -147.849065 
L 216.264316 -151.42756 
L 215.742009 -155.006054 
L 215.166742 -158.584548 
L 214.538554 -162.163042 
L 213.858556 -165.741537 
L 213.12904 -169.320031 
L 212.353554 -172.898525 
L 211.536953 -176.47702 
L 210.68539 -180.055514 
L 209.80627 -183.634008 
L 208.908147 -187.212502 
L 208.00056 -190.790997 
L 207.093819 -194.369491 
L 206.198738 -197.947985 
L 205.326315 -201.526479 
L 204.487378 -205.104974 
L 203.692204 -208.683468 
L 202.95012 -212.261962 
L 202.269103 -215.840456 
L 201.655399 -219.418951 
L 201.113175 -222.997445 
L 200.644212 -226.575939 
L 200.247667 -230.154433 
L 199.919904 -233.732928 
L 199.654415 -237.311422 
L 199.441828 -240.889916 
L 199.270006 -244.468411 
L 199.124248 -248.046905 
L 198.987573 -251.625399 
L 198.841087 -255.203893 
L 198.664422 -258.782388 
L 198.436235 -262.360882 
L 198.134745 -265.939376 
L 197.738303 -269.51787 
L 197.22597 -273.096365 
L 196.57809 -276.674859 
L 195.776839 -280.253353 
L 194.806749 -283.831847 
L 193.655169 -287.410342 
L 192.312688 -290.988836 
L 190.773474 -294.56733 
L 189.035554 -298.145824 
L 187.101016 -301.724319 
L 184.976128 -305.302813 
L 182.67138 -308.881307 
L 180.20145 -312.459801 
L 177.585085 -316.038296 
L 174.844911 -319.61679 
L 172.007159 -323.195284 
L 169.101325 -326.773779 
L 166.159758 -330.352273 
L 163.21718 -333.930767 
L 160.310147 -337.509261 
L 157.47645 -341.087756 
L 154.754474 -344.66625 
L 152.182514 -348.244744 
L 149.798069 -351.823238 
L 147.637114 -355.401733 
L 145.733387 -358.980227 
L 144.117681 -362.558721 
L 142.817187 -366.137215 
L 141.854881 -369.71571 
L 141.248995 -373.294204 
L 141.012578 -376.872698 
L 141.153165 -380.451192 
L 141.672569 -384.029687 
L 142.566811 -387.608181 
L 143.826176 -391.186675 
L 145.435422 -394.76517 
L 147.374113 -398.343664 
L 149.617087 -401.922158 
L 152.135033 -405.500652 
L 154.895167 -409.079147 
L 157.861976 -412.657641 
L 160.99802 -416.236135 
L 164.264759 -419.814629 
L 167.623371 -423.393124 
L 171.035558 -426.971618 
L 174.464292 -430.550112 
L 177.874495 -434.128606 
L 181.233634 -437.707101 
L 184.512214 -441.285595 
L 187.684157 -444.864089 
L 190.727075 -448.442583 
L 193.622424 -452.021078 
L 196.355545 -455.599572 
L 198.915611 -459.178066 
L 201.295474 -462.756561 
L 203.491439 -466.335055 
L 205.502969 -469.913549 
L 207.332346 -473.492043 
L 208.984296 -477.070538 
L 210.465601 -480.649032 
L 211.784698 -484.227526 
L 212.951299 -487.80602 
L 213.976017 -491.384515 
L 214.870031 -494.963009 
L 215.64478 -498.541503 
L 223.55522 -498.541503 
L 223.55522 -498.541503 
L 224.329969 -494.963009 
L 225.223983 -491.384515 
L 226.248701 -487.80602 
L 227.415302 -484.227526 
L 228.734399 -480.649032 
L 230.215704 -477.070538 
L 231.867654 -473.492043 
L 233.697031 -469.913549 
L 235.708561 -466.335055 
L 237.904526 -462.756561 
L 240.284389 -459.178066 
L 242.844455 -455.599572 
L 245.577576 -452.021078 
L 248.472925 -448.442583 
L 251.515843 -444.864089 
L 254.687786 -441.285595 
L 257.966366 -437.707101 
L 261.325505 -434.128606 
L 264.735708 -430.550112 
L 268.164442 -426.971618 
L 271.576629 -423.393124 
L 274.935241 -419.814629 
L 278.20198 -416.236135 
L 281.338024 -412.657641 
L 284.304833 -409.079147 
L 287.064967 -405.500652 
L 289.582913 -401.922158 
L 291.825887 -398.343664 
L 293.764578 -394.76517 
L 295.373824 -391.186675 
L 296.633189 -387.608181 
L 297.527431 -384.029687 
L 298.046835 -380.451192 
L 298.187422 -376.872698 
L 297.951005 -373.294204 
L 297.345119 -369.71571 
L 296.382813 -366.137215 
L 295.082319 -362.558721 
L 293.466613 -358.980227 
L 291.562886 -355.401733 
L 289.401931 -351.823238 
L 287.017486 -348.244744 
L 284.445526 -344.66625 
L 281.72355 -341.087756 
L 278.889853 -337.509261 
L 275.98282 -333.930767 
L 273.040242 -330.352273 
L 270.098675 -326.773779 
L 267.192841 -323.195284 
L 264.355089 -319.61679 
L 261.614915 -316.038296 
L 258.99855 -312.459801 
L 256.52862 -308.881307 
L 254.223872 -305.302813 
L 252.098984 -301.724319 
L 250.164446 -298.145824 
L 248.426526 -294.56733 
L 246.887312 -290.988836 
L 245.544831 -287.410342 
L 244.393251 -283.831847 
L 243.423161 -280.253353 
L 242.62191 -276.674859 
L 241.97403 -273.096365 
L 241.461697 -269.51787 
L 241.065255 -265.939376 
L 240.763765 -262.360882 
L 240.535578 -258.782388 
L 240.358913 -255.203893 
L 240.212427 -251.625399 
L 240.075752 -248.046905 
L 239.929994 -244.468411 
L 239.758172 -240.889916 
L 239.545585 -237.311422 
L 239.280096 -233.732928 
L 238.952333 -230.154433 
L 238.555788 -226.575939 
L 238.086825 -222.997445 
L 237.544601 -219.418951 
L 236.930897 -215.840456 
L 236.24988 -212.261962 
L 235.507796 -208.683468 
L 234.712622 -205.104974 
L 233.873685 -201.526479 
L 233.001262 -197.947985 
L 232.106181 -194.369491 
L 231.19944 -190.790997 
L 230.291853 -187.212502 
L 229.39373 -183.634008 
L 228.51461 -180.055514 
L 227.663047 -176.47702 
L 226.846446 -172.898525 
L 226.07096 -169.320031 
L 225.341444 -165.741537 
L 224.661446 -162.163042 
L 224.033258 -158.584548 
L 223.457991 -155.006054 
L 222.935684 -151.42756 
L 222.465437 -147.849065 
L 222.045547 -144.270571 
z
" style="stroke: #3d3d3d; stroke-width: 1.5"/>
    </defs>
    <g clip-path="url(#pe6795ec7fa)">
     <use xlink:href="#m2728cceebd" x="0" y="720" style="fill: #3274a1; stroke: #3d3d3d; stroke-width: 1.5"/>
    </g>
   </g>
   <g id="PathCollection_1">
    <defs>
     <path id="m763a0b65be" d="M 0 1.5 
C 0.397805 1.5 0.77937 1.341951 1.06066 1.06066 
C 1.341951 0.77937 1.5 0.397805 1.5 0 
C 1.5 -0.397805 1.341951 -0.77937 1.06066 -1.06066 
C 0.77937 -1.341951 0.397805 -1.5 0 -1.5 
C -0.397805 -1.5 -0.77937 -1.341951 -1.06066 -1.06066 
C -1.341951 -0.77937 -1.5 -0.397805 -1.5 0 
C -1.5 0.397805 -1.341951 0.77937 -1.06066 1.06066 
C -0.77937 1.341951 -0.397805 1.5 0 1.5 
z
" style="stroke: #3d3d3d"/>
    </defs>
    <g clip-path="url(#pe6795ec7fa)">
     <use xlink:href="#m763a0b65be" x="219.6" y="487.134975" style="fill: #3d3d3d; stroke: #3d3d3d"/>
     <use xlink:href="#m763a0b65be" x="219.6" y="353.610578" style="fill: #3d3d3d; stroke: #3d3d3d"/>
     <use xlink:href="#m763a0b65be" x="219.6" y="310.05295" style="fill: #3d3d3d; stroke: #3d3d3d"/>
     <use xlink:href="#m763a0b65be" x="219.6" y="336.840105" style="fill: #3d3d3d; stroke: #3d3d3d"/>
     <use xlink:href="#m763a0b65be" x="219.6" y="384.667038" style="fill: #3d3d3d; stroke: #3d3d3d"/>
     <use xlink:href="#m763a0b65be" x="219.6" y="335.084307" style="fill: #3d3d3d; stroke: #3d3d3d"/>
    </g>
   </g>
   <g id="PolyCollection_2">
    <defs>
     <path id="m91243d3cd0" d="M 446.944862 -320.601803 
L 438.655138 -320.601803 
L 437.846597 -323.913444 
L 436.919011 -327.225084 
L 435.862997 -330.536725 
L 434.66998 -333.848365 
L 433.332511 -337.160006 
L 431.844595 -340.471647 
L 430.201999 -343.783287 
L 428.402556 -347.094928 
L 426.44642 -350.406568 
L 424.336284 -353.718209 
L 422.077533 -357.029849 
L 419.678333 -360.34149 
L 417.149645 -363.65313 
L 414.505162 -366.964771 
L 411.761165 -370.276411 
L 408.936318 -373.588052 
L 406.051388 -376.899692 
L 403.12892 -380.211333 
L 400.192874 -383.522974 
L 397.268231 -386.834614 
L 394.3806 -390.146255 
L 391.555823 -393.457895 
L 388.819603 -396.769536 
L 386.19715 -400.081176 
L 383.712872 -403.392817 
L 381.390082 -406.704457 
L 379.250754 -410.016098 
L 377.31529 -413.327738 
L 375.602315 -416.639379 
L 374.128474 -419.951019 
L 372.908239 -423.26266 
L 371.953697 -426.574301 
L 371.274338 -429.885941 
L 370.876821 -433.197582 
L 370.764735 -436.509222 
L 370.93836 -439.820863 
L 371.394435 -443.132503 
L 372.125951 -446.444144 
L 373.122 -449.755784 
L 374.367678 -453.067425 
L 375.844081 -456.379065 
L 377.528406 -459.690706 
L 379.39417 -463.002346 
L 381.411559 -466.313987 
L 383.547906 -469.625628 
L 385.768302 -472.937268 
L 388.036325 -476.248909 
L 390.314864 -479.560549 
L 392.567023 -482.87219 
L 394.757068 -486.18383 
L 396.851385 -489.495471 
L 398.81941 -492.807111 
L 400.6345 -496.118752 
L 402.274702 -499.430392 
L 403.723391 -502.742033 
L 404.969746 -506.053673 
L 406.009051 -509.365314 
L 406.84279 -512.676954 
L 407.478546 -515.988595 
L 407.929693 -519.300236 
L 408.214899 -522.611876 
L 408.35745 -525.923517 
L 408.384432 -529.235157 
L 408.325782 -532.546798 
L 408.213268 -535.858438 
L 408.079414 -539.170079 
L 407.956426 -542.481719 
L 407.875153 -545.79336 
L 407.864122 -549.105 
L 407.948678 -552.416641 
L 408.15027 -555.728281 
L 408.485886 -559.039922 
L 408.967682 -562.351563 
L 409.602776 -565.663203 
L 410.39325 -568.974844 
L 411.336309 -572.286484 
L 412.424618 -575.598125 
L 413.646772 -578.909765 
L 414.987888 -582.221406 
L 416.430276 -585.533046 
L 417.95417 -588.844687 
L 419.538478 -592.156327 
L 421.161523 -595.467968 
L 422.801743 -598.779608 
L 424.43834 -602.091249 
L 426.051829 -605.40289 
L 427.624508 -608.71453 
L 429.140812 -612.026171 
L 430.587556 -615.337811 
L 431.954084 -618.649452 
L 433.232297 -621.961092 
L 434.416609 -625.272733 
L 435.503811 -628.584373 
L 436.492879 -631.896014 
L 437.384732 -635.207654 
L 438.181958 -638.519295 
L 438.888523 -641.830935 
L 439.509479 -645.142576 
L 440.050676 -648.454217 
L 445.549324 -648.454217 
L 445.549324 -648.454217 
L 446.090521 -645.142576 
L 446.711477 -641.830935 
L 447.418042 -638.519295 
L 448.215268 -635.207654 
L 449.107121 -631.896014 
L 450.096189 -628.584373 
L 451.183391 -625.272733 
L 452.367703 -621.961092 
L 453.645916 -618.649452 
L 455.012444 -615.337811 
L 456.459188 -612.026171 
L 457.975492 -608.71453 
L 459.548171 -605.40289 
L 461.16166 -602.091249 
L 462.798257 -598.779608 
L 464.438477 -595.467968 
L 466.061522 -592.156327 
L 467.64583 -588.844687 
L 469.169724 -585.533046 
L 470.612112 -582.221406 
L 471.953228 -578.909765 
L 473.175382 -575.598125 
L 474.263691 -572.286484 
L 475.20675 -568.974844 
L 475.997224 -565.663203 
L 476.632318 -562.351563 
L 477.114114 -559.039922 
L 477.44973 -555.728281 
L 477.651322 -552.416641 
L 477.735878 -549.105 
L 477.724847 -545.79336 
L 477.643574 -542.481719 
L 477.520586 -539.170079 
L 477.386732 -535.858438 
L 477.274218 -532.546798 
L 477.215568 -529.235157 
L 477.24255 -525.923517 
L 477.385101 -522.611876 
L 477.670307 -519.300236 
L 478.121454 -515.988595 
L 478.75721 -512.676954 
L 479.590949 -509.365314 
L 480.630254 -506.053673 
L 481.876609 -502.742033 
L 483.325298 -499.430392 
L 484.9655 -496.118752 
L 486.78059 -492.807111 
L 488.748615 -489.495471 
L 490.842932 -486.18383 
L 493.032977 -482.87219 
L 495.285136 -479.560549 
L 497.563675 -476.248909 
L 499.831698 -472.937268 
L 502.052094 -469.625628 
L 504.188441 -466.313987 
L 506.20583 -463.002346 
L 508.071594 -459.690706 
L 509.755919 -456.379065 
L 511.232322 -453.067425 
L 512.478 -449.755784 
L 513.474049 -446.444144 
L 514.205565 -443.132503 
L 514.66164 -439.820863 
L 514.835265 -436.509222 
L 514.723179 -433.197582 
L 514.325662 -429.885941 
L 513.646303 -426.574301 
L 512.691761 -423.26266 
L 511.471526 -419.951019 
L 509.997685 -416.639379 
L 508.28471 -413.327738 
L 506.349246 -410.016098 
L 504.209918 -406.704457 
L 501.887128 -403.392817 
L 499.40285 -400.081176 
L 496.780397 -396.769536 
L 494.044177 -393.457895 
L 491.2194 -390.146255 
L 488.331769 -386.834614 
L 485.407126 -383.522974 
L 482.47108 -380.211333 
L 479.548612 -376.899692 
L 476.663682 -373.588052 
L 473.838835 -370.276411 
L 471.094838 -366.964771 
L 468.450355 -363.65313 
L 465.921667 -360.34149 
L 463.522467 -357.029849 
L 461.263716 -353.718209 
L 459.15358 -350.406568 
L 457.197444 -347.094928 
L 455.398001 -343.783287 
L 453.755405 -340.471647 
L 452.267489 -337.160006 
L 450.93002 -333.848365 
L 449.737003 -330.536725 
L 448.680989 -327.225084 
L 447.753403 -323.913444 
L 446.944862 -320.601803 
z
" style="stroke: #3d3d3d; stroke-width: 1.5"/>
    </defs>
    <g clip-path="url(#pe6795ec7fa)">
     <use xlink:href="#m91243d3cd0" x="0" y="720" style="fill: #e1812c; stroke: #3d3d3d; stroke-width: 1.5"/>
    </g>
   </g>
   <g id="PathCollection_2">
    <g clip-path="url(#pe6795ec7fa)">
     <use xlink:href="#m763a0b65be" x="442.8" y="261.553049" style="fill: #3d3d3d; stroke: #3d3d3d"/>
     <use xlink:href="#m763a0b65be" x="442.8" y="159.999407" style="fill: #3d3d3d; stroke: #3d3d3d"/>
     <use xlink:href="#m763a0b65be" x="442.8" y="149.846703" style="fill: #3d3d3d; stroke: #3d3d3d"/>
     <use xlink:href="#m763a0b65be" x="442.8" y="276.785671" style="fill: #3d3d3d; stroke: #3d3d3d"/>
     <use xlink:href="#m763a0b65be" x="442.8" y="315.021097" style="fill: #3d3d3d; stroke: #3d3d3d"/>
     <use xlink:href="#m763a0b65be" x="442.8" y="173.621007" style="fill: #3d3d3d; stroke: #3d3d3d"/>
     <use xlink:href="#m763a0b65be" x="442.8" y="321.097277" style="fill: #3d3d3d; stroke: #3d3d3d"/>
     <use xlink:href="#m763a0b65be" x="442.8" y="284.461925" style="fill: #3d3d3d; stroke: #3d3d3d"/>
     <use xlink:href="#m763a0b65be" x="442.8" y="263.807663" style="fill: #3d3d3d; stroke: #3d3d3d"/>
     <use xlink:href="#m763a0b65be" x="442.8" y="248.795021" style="fill: #3d3d3d; stroke: #3d3d3d"/>
     <use xlink:href="#m763a0b65be" x="442.8" y="317.570706" style="fill: #3d3d3d; stroke: #3d3d3d"/>
    </g>
   </g>
   <g id="PolyCollection_3">
    <defs>
     <path id="m1612829ec1" d="M 668.365896 -355.134177 
L 663.634104 -355.134177 
L 663.174879 -358.151928 
L 662.649454 -361.169678 
L 662.053207 -364.187429 
L 661.382181 -367.20518 
L 660.633295 -370.22293 
L 659.80457 -373.240681 
L 658.895333 -376.258431 
L 657.906415 -379.276182 
L 656.840322 -382.293932 
L 655.701361 -385.311683 
L 654.495728 -388.329433 
L 653.23153 -391.347184 
L 651.918746 -394.364934 
L 650.569116 -397.382685 
L 649.19595 -400.400435 
L 647.813871 -403.418186 
L 646.438473 -406.435936 
L 645.085923 -409.453687 
L 643.772499 -412.471437 
L 642.514083 -415.489188 
L 641.325625 -418.506939 
L 640.220601 -421.524689 
L 639.210465 -424.54244 
L 638.304137 -427.56019 
L 637.507542 -430.577941 
L 636.823204 -433.595691 
L 636.249938 -436.613442 
L 635.782639 -439.631192 
L 635.412182 -442.648943 
L 635.125456 -445.666693 
L 634.905521 -448.684444 
L 634.7319 -451.702194 
L 634.581001 -454.719945 
L 634.426656 -457.737695 
L 634.24077 -460.755446 
L 633.994068 -463.773196 
L 633.656904 -466.790947 
L 633.200126 -469.808698 
L 632.595966 -472.826448 
L 631.818916 -475.844199 
L 630.846587 -478.861949 
L 629.660502 -481.8797 
L 628.246804 -484.89745 
L 626.596861 -487.915201 
L 624.707743 -490.932951 
L 622.582551 -493.950702 
L 620.230595 -496.968452 
L 617.667402 -499.986203 
L 614.914567 -503.003953 
L 611.999432 -506.021704 
L 608.954616 -509.039454 
L 605.817406 -512.057205 
L 602.629018 -515.074955 
L 599.433757 -518.092706 
L 596.278097 -521.110457 
L 593.209705 -524.128207 
L 590.276435 -527.145958 
L 587.525323 -530.163708 
L 585.001602 -533.181459 
L 582.747761 -536.199209 
L 580.802673 -539.21696 
L 579.200819 -542.23471 
L 577.971597 -545.252461 
L 577.138766 -548.270211 
L 576.72 -551.287962 
L 576.726582 -554.305712 
L 577.163233 -557.323463 
L 578.028075 -560.341213 
L 579.31273 -563.358964 
L 581.002551 -566.376714 
L 583.076979 -569.394465 
L 585.510007 -572.412216 
L 588.270765 -575.429966 
L 591.324185 -578.447717 
L 594.631752 -581.465467 
L 598.152307 -584.483218 
L 601.842902 -587.500968 
L 605.65967 -590.518719 
L 609.558694 -593.536469 
L 613.496859 -596.55422 
L 617.432652 -599.57197 
L 621.326902 -602.589721 
L 625.143431 -605.607471 
L 628.849607 -608.625222 
L 632.416779 -611.642972 
L 635.820595 -614.660723 
L 639.041186 -617.678473 
L 642.063227 -620.696224 
L 644.87588 -623.713975 
L 647.472616 -626.731725 
L 649.850948 -629.749476 
L 652.012077 -632.767226 
L 653.960473 -635.784977 
L 655.703414 -638.802727 
L 657.2505 -641.820478 
L 658.613156 -644.838228 
L 659.804152 -647.855979 
L 660.837143 -650.873729 
L 661.726249 -653.89148 
L 670.273751 -653.89148 
L 670.273751 -653.89148 
L 671.162857 -650.873729 
L 672.195848 -647.855979 
L 673.386844 -644.838228 
L 674.7495 -641.820478 
L 676.296586 -638.802727 
L 678.039527 -635.784977 
L 679.987923 -632.767226 
L 682.149052 -629.749476 
L 684.527384 -626.731725 
L 687.12412 -623.713975 
L 689.936773 -620.696224 
L 692.958814 -617.678473 
L 696.179405 -614.660723 
L 699.583221 -611.642972 
L 703.150393 -608.625222 
L 706.856569 -605.607471 
L 710.673098 -602.589721 
L 714.567348 -599.57197 
L 718.503141 -596.55422 
L 722.441306 -593.536469 
L 726.34033 -590.518719 
L 730.157098 -587.500968 
L 733.847693 -584.483218 
L 737.368248 -581.465467 
L 740.675815 -578.447717 
L 743.729235 -575.429966 
L 746.489993 -572.412216 
L 748.923021 -569.394465 
L 750.997449 -566.376714 
L 752.68727 -563.358964 
L 753.971925 -560.341213 
L 754.836767 -557.323463 
L 755.273418 -554.305712 
L 755.28 -551.287962 
L 754.861234 -548.270211 
L 754.028403 -545.252461 
L 752.799181 -542.23471 
L 751.197327 -539.21696 
L 749.252239 -536.199209 
L 746.998398 -533.181459 
L 744.474677 -530.163708 
L 741.723565 -527.145958 
L 738.790295 -524.128207 
L 735.721903 -521.110457 
L 732.566243 -518.092706 
L 729.370982 -515.074955 
L 726.182594 -512.057205 
L 723.045384 -509.039454 
L 720.000568 -506.021704 
L 717.085433 -503.003953 
L 714.332598 -499.986203 
L 711.769405 -496.968452 
L 709.417449 -493.950702 
L 707.292257 -490.932951 
L 705.403139 -487.915201 
L 703.753196 -484.89745 
L 702.339498 -481.8797 
L 701.153413 -478.861949 
L 700.181084 -475.844199 
L 699.404034 -472.826448 
L 698.799874 -469.808698 
L 698.343096 -466.790947 
L 698.005932 -463.773196 
L 697.75923 -460.755446 
L 697.573344 -457.737695 
L 697.418999 -454.719945 
L 697.2681 -451.702194 
L 697.094479 -448.684444 
L 696.874544 -445.666693 
L 696.587818 -442.648943 
L 696.217361 -439.631192 
L 695.750062 -436.613442 
L 695.176796 -433.595691 
L 694.492458 -430.577941 
L 693.695863 -427.56019 
L 692.789535 -424.54244 
L 691.779399 -421.524689 
L 690.674375 -418.506939 
L 689.485917 -415.489188 
L 688.227501 -412.471437 
L 686.914077 -409.453687 
L 685.561527 -406.435936 
L 684.186129 -403.418186 
L 682.80405 -400.400435 
L 681.430884 -397.382685 
L 680.081254 -394.364934 
L 678.76847 -391.347184 
L 677.504272 -388.329433 
L 676.298639 -385.311683 
L 675.159678 -382.293932 
L 674.093585 -379.276182 
L 673.104667 -376.258431 
L 672.19543 -373.240681 
L 671.366705 -370.22293 
L 670.617819 -367.20518 
L 669.946793 -364.187429 
L 669.350546 -361.169678 
L 668.825121 -358.151928 
L 668.365896 -355.134177 
z
" style="stroke: #3d3d3d; stroke-width: 1.5"/>
    </defs>
    <g clip-path="url(#pe6795ec7fa)">
     <use xlink:href="#m1612829ec1" x="0" y="720" style="fill: #3a923a; stroke: #3d3d3d; stroke-width: 1.5"/>
    </g>
   </g>
   <g id="PathCollection_3">
    <g clip-path="url(#pe6795ec7fa)">
     <use xlink:href="#m763a0b65be" x="666" y="151.647531" style="fill: #3d3d3d; stroke: #3d3d3d"/>
     <use xlink:href="#m763a0b65be" x="666" y="178.649029" style="fill: #3d3d3d; stroke: #3d3d3d"/>
     <use xlink:href="#m763a0b65be" x="666" y="146.110143" style="fill: #3d3d3d; stroke: #3d3d3d"/>
     <use xlink:href="#m763a0b65be" x="666" y="266.908357" style="fill: #3d3d3d; stroke: #3d3d3d"/>
     <use xlink:href="#m763a0b65be" x="666" y="136.340865" style="fill: #3d3d3d; stroke: #3d3d3d"/>
     <use xlink:href="#m763a0b65be" x="666" y="176.737201" style="fill: #3d3d3d; stroke: #3d3d3d"/>
     <use xlink:href="#m763a0b65be" x="666" y="294.633478" style="fill: #3d3d3d; stroke: #3d3d3d"/>
     <use xlink:href="#m763a0b65be" x="666" y="204.420166" style="fill: #3d3d3d; stroke: #3d3d3d"/>
     <use xlink:href="#m763a0b65be" x="666" y="177.252412" style="fill: #3d3d3d; stroke: #3d3d3d"/>
    </g>
   </g>
   <g id="matplotlib.axis_1">
    <g id="xtick_1">
     <g id="line2d_1">
      <defs>
       <path id="m44d41cd0f6" d="M 0 0 
L 0 3.5 
" style="stroke: #000000; stroke-width: 0.8"/>
      </defs>
      <g>
       <use xlink:href="#m44d41cd0f6" x="219.6" y="630" style="stroke: #000000; stroke-width: 0.8"/>
      </g>
     </g>
     <g id="text_1">
      <!-- FLX -->
      <g transform="translate(201.426562 652.196875)scale(0.2 -0.2)">
       <defs>
        <path id="DejaVuSans-46" d="M 628 4666 
L 3309 4666 
L 3309 4134 
L 1259 4134 
L 1259 2759 
L 3109 2759 
L 3109 2228 
L 1259 2228 
L 1259 0 
L 628 0 
L 628 4666 
z
" transform="scale(0.015625)"/>
        <path id="DejaVuSans-4c" d="M 628 4666 
L 1259 4666 
L 1259 531 
L 3531 531 
L 3531 0 
L 628 0 
L 628 4666 
z
" transform="scale(0.015625)"/>
        <path id="DejaVuSans-58" d="M 403 4666 
L 1081 4666 
L 2241 2931 
L 3406 4666 
L 4084 4666 
L 2584 2425 
L 4184 0 
L 3506 0 
L 2194 1984 
L 872 0 
L 191 0 
L 1856 2491 
L 403 4666 
z
" transform="scale(0.015625)"/>
       </defs>
       <use xlink:href="#DejaVuSans-46"/>
       <use xlink:href="#DejaVuSans-4c" x="57.519531"/>
       <use xlink:href="#DejaVuSans-58" x="113.232422"/>
      </g>
     </g>
    </g>
    <g id="xtick_2">
     <g id="line2d_2">
      <g>
       <use xlink:href="#m44d41cd0f6" x="442.8" y="630" style="stroke: #000000; stroke-width: 0.8"/>
      </g>
     </g>
     <g id="text_2">
      <!-- EPM -->
      <g transform="translate(421.823437 652.196875)scale(0.2 -0.2)">
       <defs>
        <path id="DejaVuSans-45" d="M 628 4666 
L 3578 4666 
L 3578 4134 
L 1259 4134 
L 1259 2753 
L 3481 2753 
L 3481 2222 
L 1259 2222 
L 1259 531 
L 3634 531 
L 3634 0 
L 628 0 
L 628 4666 
z
" transform="scale(0.015625)"/>
        <path id="DejaVuSans-50" d="M 1259 4147 
L 1259 2394 
L 2053 2394 
Q 2494 2394 2734 2622 
Q 2975 2850 2975 3272 
Q 2975 3691 2734 3919 
Q 2494 4147 2053 4147 
L 1259 4147 
z
M 628 4666 
L 2053 4666 
Q 2838 4666 3239 4311 
Q 3641 3956 3641 3272 
Q 3641 2581 3239 2228 
Q 2838 1875 2053 1875 
L 1259 1875 
L 1259 0 
L 628 0 
L 628 4666 
z
" transform="scale(0.015625)"/>
        <path id="DejaVuSans-4d" d="M 628 4666 
L 1569 4666 
L 2759 1491 
L 3956 4666 
L 4897 4666 
L 4897 0 
L 4281 0 
L 4281 4097 
L 3078 897 
L 2444 897 
L 1241 4097 
L 1241 0 
L 628 0 
L 628 4666 
z
" transform="scale(0.015625)"/>
       </defs>
       <use xlink:href="#DejaVuSans-45"/>
       <use xlink:href="#DejaVuSans-50" x="63.183594"/>
       <use xlink:href="#DejaVuSans-4d" x="123.486328"/>
      </g>
     </g>
    </g>
    <g id="xtick_3">
     <g id="line2d_3">
      <g>
       <use xlink:href="#m44d41cd0f6" x="666" y="630" style="stroke: #000000; stroke-width: 0.8"/>
      </g>
     </g>
     <g id="text_3">
      <!-- OFT -->
      <g transform="translate(646.44375 652.196875)scale(0.2 -0.2)">
       <defs>
        <path id="DejaVuSans-4f" d="M 2522 4238 
Q 1834 4238 1429 3725 
Q 1025 3213 1025 2328 
Q 1025 1447 1429 934 
Q 1834 422 2522 422 
Q 3209 422 3611 934 
Q 4013 1447 4013 2328 
Q 4013 3213 3611 3725 
Q 3209 4238 2522 4238 
z
M 2522 4750 
Q 3503 4750 4090 4092 
Q 4678 3434 4678 2328 
Q 4678 1225 4090 567 
Q 3503 -91 2522 -91 
Q 1538 -91 948 565 
Q 359 1222 359 2328 
Q 359 3434 948 4092 
Q 1538 4750 2522 4750 
z
" transform="scale(0.015625)"/>
        <path id="DejaVuSans-54" d="M -19 4666 
L 3928 4666 
L 3928 4134 
L 2272 4134 
L 2272 0 
L 1638 0 
L 1638 4134 
L -19 4134 
L -19 4666 
z
" transform="scale(0.015625)"/>
       </defs>
       <use xlink:href="#DejaVuSans-4f"/>
       <use xlink:href="#DejaVuSans-46" x="78.710938"/>
       <use xlink:href="#DejaVuSans-54" x="134.480469"/>
      </g>
     </g>
    </g>
   </g>
   <g id="matplotlib.axis_2">
    <g id="ytick_1">
     <g id="line2d_4">
      <defs>
       <path id="mbf2aaf5759" d="M 0 0 
L -3.5 0 
" style="stroke: #000000; stroke-width: 0.8"/>
      </defs>
      <g>
       <use xlink:href="#mbf2aaf5759" x="108" y="630" style="stroke: #000000; stroke-width: 0.8"/>
      </g>
     </g>
     <g id="text_4">
      <!-- 0.2 -->
      <g transform="translate(85.096875 633.799219)scale(0.1 -0.1)">
       <defs>
        <path id="DejaVuSans-30" d="M 2034 4250 
Q 1547 4250 1301 3770 
Q 1056 3291 1056 2328 
Q 1056 1369 1301 889 
Q 1547 409 2034 409 
Q 2525 409 2770 889 
Q 3016 1369 3016 2328 
Q 3016 3291 2770 3770 
Q 2525 4250 2034 4250 
z
M 2034 4750 
Q 2819 4750 3233 4129 
Q 3647 3509 3647 2328 
Q 3647 1150 3233 529 
Q 2819 -91 2034 -91 
Q 1250 -91 836 529 
Q 422 1150 422 2328 
Q 422 3509 836 4129 
Q 1250 4750 2034 4750 
z
" transform="scale(0.015625)"/>
        <path id="DejaVuSans-2e" d="M 684 794 
L 1344 794 
L 1344 0 
L 684 0 
L 684 794 
z
" transform="scale(0.015625)"/>
        <path id="DejaVuSans-32" d="M 1228 531 
L 3431 531 
L 3431 0 
L 469 0 
L 469 531 
Q 828 903 1448 1529 
Q 2069 2156 2228 2338 
Q 2531 2678 2651 2914 
Q 2772 3150 2772 3378 
Q 2772 3750 2511 3984 
Q 2250 4219 1831 4219 
Q 1534 4219 1204 4116 
Q 875 4013 500 3803 
L 500 4441 
Q 881 4594 1212 4672 
Q 1544 4750 1819 4750 
Q 2544 4750 2975 4387 
Q 3406 4025 3406 3419 
Q 3406 3131 3298 2873 
Q 3191 2616 2906 2266 
Q 2828 2175 2409 1742 
Q 1991 1309 1228 531 
z
" transform="scale(0.015625)"/>
       </defs>
       <use xlink:href="#DejaVuSans-30"/>
       <use xlink:href="#DejaVuSans-2e" x="63.623047"/>
       <use xlink:href="#DejaVuSans-32" x="95.410156"/>
      </g>
     </g>
    </g>
    <g id="ytick_2">
     <g id="line2d_5">
      <g>
       <use xlink:href="#mbf2aaf5759" x="108" y="562.05" style="stroke: #000000; stroke-width: 0.8"/>
      </g>
     </g>
     <g id="text_5">
      <!-- 0.3 -->
      <g transform="translate(85.096875 565.849219)scale(0.1 -0.1)">
       <defs>
        <path id="DejaVuSans-33" d="M 2597 2516 
Q 3050 2419 3304 2112 
Q 3559 1806 3559 1356 
Q 3559 666 3084 287 
Q 2609 -91 1734 -91 
Q 1441 -91 1130 -33 
Q 819 25 488 141 
L 488 750 
Q 750 597 1062 519 
Q 1375 441 1716 441 
Q 2309 441 2620 675 
Q 2931 909 2931 1356 
Q 2931 1769 2642 2001 
Q 2353 2234 1838 2234 
L 1294 2234 
L 1294 2753 
L 1863 2753 
Q 2328 2753 2575 2939 
Q 2822 3125 2822 3475 
Q 2822 3834 2567 4026 
Q 2313 4219 1838 4219 
Q 1578 4219 1281 4162 
Q 984 4106 628 3988 
L 628 4550 
Q 988 4650 1302 4700 
Q 1616 4750 1894 4750 
Q 2613 4750 3031 4423 
Q 3450 4097 3450 3541 
Q 3450 3153 3228 2886 
Q 3006 2619 2597 2516 
z
" transform="scale(0.015625)"/>
       </defs>
       <use xlink:href="#DejaVuSans-30"/>
       <use xlink:href="#DejaVuSans-2e" x="63.623047"/>
       <use xlink:href="#DejaVuSans-33" x="95.410156"/>
      </g>
     </g>
    </g>
    <g id="ytick_3">
     <g id="line2d_6">
      <g>
       <use xlink:href="#mbf2aaf5759" x="108" y="494.1" style="stroke: #000000; stroke-width: 0.8"/>
      </g>
     </g>
     <g id="text_6">
      <!-- 0.4 -->
      <g transform="translate(85.096875 497.899219)scale(0.1 -0.1)">
       <defs>
        <path id="DejaVuSans-34" d="M 2419 4116 
L 825 1625 
L 2419 1625 
L 2419 4116 
z
M 2253 4666 
L 3047 4666 
L 3047 1625 
L 3713 1625 
L 3713 1100 
L 3047 1100 
L 3047 0 
L 2419 0 
L 2419 1100 
L 313 1100 
L 313 1709 
L 2253 4666 
z
" transform="scale(0.015625)"/>
       </defs>
       <use xlink:href="#DejaVuSans-30"/>
       <use xlink:href="#DejaVuSans-2e" x="63.623047"/>
       <use xlink:href="#DejaVuSans-34" x="95.410156"/>
      </g>
     </g>
    </g>
    <g id="ytick_4">
     <g id="line2d_7">
      <g>
       <use xlink:href="#mbf2aaf5759" x="108" y="426.15" style="stroke: #000000; stroke-width: 0.8"/>
      </g>
     </g>
     <g id="text_7">
      <!-- 0.5 -->
      <g transform="translate(85.096875 429.949219)scale(0.1 -0.1)">
       <defs>
        <path id="DejaVuSans-35" d="M 691 4666 
L 3169 4666 
L 3169 4134 
L 1269 4134 
L 1269 2991 
Q 1406 3038 1543 3061 
Q 1681 3084 1819 3084 
Q 2600 3084 3056 2656 
Q 3513 2228 3513 1497 
Q 3513 744 3044 326 
Q 2575 -91 1722 -91 
Q 1428 -91 1123 -41 
Q 819 9 494 109 
L 494 744 
Q 775 591 1075 516 
Q 1375 441 1709 441 
Q 2250 441 2565 725 
Q 2881 1009 2881 1497 
Q 2881 1984 2565 2268 
Q 2250 2553 1709 2553 
Q 1456 2553 1204 2497 
Q 953 2441 691 2322 
L 691 4666 
z
" transform="scale(0.015625)"/>
       </defs>
       <use xlink:href="#DejaVuSans-30"/>
       <use xlink:href="#DejaVuSans-2e" x="63.623047"/>
       <use xlink:href="#DejaVuSans-35" x="95.410156"/>
      </g>
     </g>
    </g>
    <g id="ytick_5">
     <g id="line2d_8">
      <g>
       <use xlink:href="#mbf2aaf5759" x="108" y="358.2" style="stroke: #000000; stroke-width: 0.8"/>
      </g>
     </g>
     <g id="text_8">
      <!-- 0.6 -->
      <g transform="translate(85.096875 361.999219)scale(0.1 -0.1)">
       <defs>
        <path id="DejaVuSans-36" d="M 2113 2584 
Q 1688 2584 1439 2293 
Q 1191 2003 1191 1497 
Q 1191 994 1439 701 
Q 1688 409 2113 409 
Q 2538 409 2786 701 
Q 3034 994 3034 1497 
Q 3034 2003 2786 2293 
Q 2538 2584 2113 2584 
z
M 3366 4563 
L 3366 3988 
Q 3128 4100 2886 4159 
Q 2644 4219 2406 4219 
Q 1781 4219 1451 3797 
Q 1122 3375 1075 2522 
Q 1259 2794 1537 2939 
Q 1816 3084 2150 3084 
Q 2853 3084 3261 2657 
Q 3669 2231 3669 1497 
Q 3669 778 3244 343 
Q 2819 -91 2113 -91 
Q 1303 -91 875 529 
Q 447 1150 447 2328 
Q 447 3434 972 4092 
Q 1497 4750 2381 4750 
Q 2619 4750 2861 4703 
Q 3103 4656 3366 4563 
z
" transform="scale(0.015625)"/>
       </defs>
       <use xlink:href="#DejaVuSans-30"/>
       <use xlink:href="#DejaVuSans-2e" x="63.623047"/>
       <use xlink:href="#DejaVuSans-36" x="95.410156"/>
      </g>
     </g>
    </g>
    <g id="ytick_6">
     <g id="line2d_9">
      <g>
       <use xlink:href="#mbf2aaf5759" x="108" y="290.25" style="stroke: #000000; stroke-width: 0.8"/>
      </g>
     </g>
     <g id="text_9">
      <!-- 0.7 -->
      <g transform="translate(85.096875 294.049219)scale(0.1 -0.1)">
       <defs>
        <path id="DejaVuSans-37" d="M 525 4666 
L 3525 4666 
L 3525 4397 
L 1831 0 
L 1172 0 
L 2766 4134 
L 525 4134 
L 525 4666 
z
" transform="scale(0.015625)"/>
       </defs>
       <use xlink:href="#DejaVuSans-30"/>
       <use xlink:href="#DejaVuSans-2e" x="63.623047"/>
       <use xlink:href="#DejaVuSans-37" x="95.410156"/>
      </g>
     </g>
    </g>
    <g id="ytick_7">
     <g id="line2d_10">
      <g>
       <use xlink:href="#mbf2aaf5759" x="108" y="222.3" style="stroke: #000000; stroke-width: 0.8"/>
      </g>
     </g>
     <g id="text_10">
      <!-- 0.8 -->
      <g transform="translate(85.096875 226.099219)scale(0.1 -0.1)">
       <defs>
        <path id="DejaVuSans-38" d="M 2034 2216 
Q 1584 2216 1326 1975 
Q 1069 1734 1069 1313 
Q 1069 891 1326 650 
Q 1584 409 2034 409 
Q 2484 409 2743 651 
Q 3003 894 3003 1313 
Q 3003 1734 2745 1975 
Q 2488 2216 2034 2216 
z
M 1403 2484 
Q 997 2584 770 2862 
Q 544 3141 544 3541 
Q 544 4100 942 4425 
Q 1341 4750 2034 4750 
Q 2731 4750 3128 4425 
Q 3525 4100 3525 3541 
Q 3525 3141 3298 2862 
Q 3072 2584 2669 2484 
Q 3125 2378 3379 2068 
Q 3634 1759 3634 1313 
Q 3634 634 3220 271 
Q 2806 -91 2034 -91 
Q 1263 -91 848 271 
Q 434 634 434 1313 
Q 434 1759 690 2068 
Q 947 2378 1403 2484 
z
M 1172 3481 
Q 1172 3119 1398 2916 
Q 1625 2713 2034 2713 
Q 2441 2713 2670 2916 
Q 2900 3119 2900 3481 
Q 2900 3844 2670 4047 
Q 2441 4250 2034 4250 
Q 1625 4250 1398 4047 
Q 1172 3844 1172 3481 
z
" transform="scale(0.015625)"/>
       </defs>
       <use xlink:href="#DejaVuSans-30"/>
       <use xlink:href="#DejaVuSans-2e" x="63.623047"/>
       <use xlink:href="#DejaVuSans-38" x="95.410156"/>
      </g>
     </g>
    </g>
    <g id="ytick_8">
     <g id="line2d_11">
      <g>
       <use xlink:href="#mbf2aaf5759" x="108" y="154.35" style="stroke: #000000; stroke-width: 0.8"/>
      </g>
     </g>
     <g id="text_11">
      <!-- 0.9 -->
      <g transform="translate(85.096875 158.149219)scale(0.1 -0.1)">
       <defs>
        <path id="DejaVuSans-39" d="M 703 97 
L 703 672 
Q 941 559 1184 500 
Q 1428 441 1663 441 
Q 2288 441 2617 861 
Q 2947 1281 2994 2138 
Q 2813 1869 2534 1725 
Q 2256 1581 1919 1581 
Q 1219 1581 811 2004 
Q 403 2428 403 3163 
Q 403 3881 828 4315 
Q 1253 4750 1959 4750 
Q 2769 4750 3195 4129 
Q 3622 3509 3622 2328 
Q 3622 1225 3098 567 
Q 2575 -91 1691 -91 
Q 1453 -91 1209 -44 
Q 966 3 703 97 
z
M 1959 2075 
Q 2384 2075 2632 2365 
Q 2881 2656 2881 3163 
Q 2881 3666 2632 3958 
Q 2384 4250 1959 4250 
Q 1534 4250 1286 3958 
Q 1038 3666 1038 3163 
Q 1038 2656 1286 2365 
Q 1534 2075 1959 2075 
z
" transform="scale(0.015625)"/>
       </defs>
       <use xlink:href="#DejaVuSans-30"/>
       <use xlink:href="#DejaVuSans-2e" x="63.623047"/>
       <use xlink:href="#DejaVuSans-39" x="95.410156"/>
      </g>
     </g>
    </g>
    <g id="ytick_9">
     <g id="line2d_12">
      <g>
       <use xlink:href="#mbf2aaf5759" x="108" y="86.4" style="stroke: #000000; stroke-width: 0.8"/>
      </g>
     </g>
     <g id="text_12">
      <!-- 1.0 -->
      <g transform="translate(85.096875 90.199219)scale(0.1 -0.1)">
       <defs>
        <path id="DejaVuSans-31" d="M 794 531 
L 1825 531 
L 1825 4091 
L 703 3866 
L 703 4441 
L 1819 4666 
L 2450 4666 
L 2450 531 
L 3481 531 
L 3481 0 
L 794 0 
L 794 531 
z
" transform="scale(0.015625)"/>
       </defs>
       <use xlink:href="#DejaVuSans-31"/>
       <use xlink:href="#DejaVuSans-2e" x="63.623047"/>
       <use xlink:href="#DejaVuSans-30" x="95.410156"/>
      </g>
     </g>
    </g>
    <g id="text_13">
     <!-- Mouse AUC -->
     <g transform="translate(76.9375 414.967188)rotate(-90)scale(0.2 -0.2)">
      <defs>
       <path id="DejaVuSans-6f" d="M 1959 3097 
Q 1497 3097 1228 2736 
Q 959 2375 959 1747 
Q 959 1119 1226 758 
Q 1494 397 1959 397 
Q 2419 397 2687 759 
Q 2956 1122 2956 1747 
Q 2956 2369 2687 2733 
Q 2419 3097 1959 3097 
z
M 1959 3584 
Q 2709 3584 3137 3096 
Q 3566 2609 3566 1747 
Q 3566 888 3137 398 
Q 2709 -91 1959 -91 
Q 1206 -91 779 398 
Q 353 888 353 1747 
Q 353 2609 779 3096 
Q 1206 3584 1959 3584 
z
" transform="scale(0.015625)"/>
       <path id="DejaVuSans-75" d="M 544 1381 
L 544 3500 
L 1119 3500 
L 1119 1403 
Q 1119 906 1312 657 
Q 1506 409 1894 409 
Q 2359 409 2629 706 
Q 2900 1003 2900 1516 
L 2900 3500 
L 3475 3500 
L 3475 0 
L 2900 0 
L 2900 538 
Q 2691 219 2414 64 
Q 2138 -91 1772 -91 
Q 1169 -91 856 284 
Q 544 659 544 1381 
z
M 1991 3584 
L 1991 3584 
z
" transform="scale(0.015625)"/>
       <path id="DejaVuSans-73" d="M 2834 3397 
L 2834 2853 
Q 2591 2978 2328 3040 
Q 2066 3103 1784 3103 
Q 1356 3103 1142 2972 
Q 928 2841 928 2578 
Q 928 2378 1081 2264 
Q 1234 2150 1697 2047 
L 1894 2003 
Q 2506 1872 2764 1633 
Q 3022 1394 3022 966 
Q 3022 478 2636 193 
Q 2250 -91 1575 -91 
Q 1294 -91 989 -36 
Q 684 19 347 128 
L 347 722 
Q 666 556 975 473 
Q 1284 391 1588 391 
Q 1994 391 2212 530 
Q 2431 669 2431 922 
Q 2431 1156 2273 1281 
Q 2116 1406 1581 1522 
L 1381 1569 
Q 847 1681 609 1914 
Q 372 2147 372 2553 
Q 372 3047 722 3315 
Q 1072 3584 1716 3584 
Q 2034 3584 2315 3537 
Q 2597 3491 2834 3397 
z
" transform="scale(0.015625)"/>
       <path id="DejaVuSans-65" d="M 3597 1894 
L 3597 1613 
L 953 1613 
Q 991 1019 1311 708 
Q 1631 397 2203 397 
Q 2534 397 2845 478 
Q 3156 559 3463 722 
L 3463 178 
Q 3153 47 2828 -22 
Q 2503 -91 2169 -91 
Q 1331 -91 842 396 
Q 353 884 353 1716 
Q 353 2575 817 3079 
Q 1281 3584 2069 3584 
Q 2775 3584 3186 3129 
Q 3597 2675 3597 1894 
z
M 3022 2063 
Q 3016 2534 2758 2815 
Q 2500 3097 2075 3097 
Q 1594 3097 1305 2825 
Q 1016 2553 972 2059 
L 3022 2063 
z
" transform="scale(0.015625)"/>
       <path id="DejaVuSans-20" transform="scale(0.015625)"/>
       <path id="DejaVuSans-41" d="M 2188 4044 
L 1331 1722 
L 3047 1722 
L 2188 4044 
z
M 1831 4666 
L 2547 4666 
L 4325 0 
L 3669 0 
L 3244 1197 
L 1141 1197 
L 716 0 
L 50 0 
L 1831 4666 
z
" transform="scale(0.015625)"/>
       <path id="DejaVuSans-55" d="M 556 4666 
L 1191 4666 
L 1191 1831 
Q 1191 1081 1462 751 
Q 1734 422 2344 422 
Q 2950 422 3222 751 
Q 3494 1081 3494 1831 
L 3494 4666 
L 4128 4666 
L 4128 1753 
Q 4128 841 3676 375 
Q 3225 -91 2344 -91 
Q 1459 -91 1007 375 
Q 556 841 556 1753 
L 556 4666 
z
" transform="scale(0.015625)"/>
       <path id="DejaVuSans-43" d="M 4122 4306 
L 4122 3641 
Q 3803 3938 3442 4084 
Q 3081 4231 2675 4231 
Q 1875 4231 1450 3742 
Q 1025 3253 1025 2328 
Q 1025 1406 1450 917 
Q 1875 428 2675 428 
Q 3081 428 3442 575 
Q 3803 722 4122 1019 
L 4122 359 
Q 3791 134 3420 21 
Q 3050 -91 2638 -91 
Q 1578 -91 968 557 
Q 359 1206 359 2328 
Q 359 3453 968 4101 
Q 1578 4750 2638 4750 
Q 3056 4750 3426 4639 
Q 3797 4528 4122 4306 
z
" transform="scale(0.015625)"/>
      </defs>
      <use xlink:href="#DejaVuSans-4d"/>
      <use xlink:href="#DejaVuSans-6f" x="86.279297"/>
      <use xlink:href="#DejaVuSans-75" x="147.460938"/>
      <use xlink:href="#DejaVuSans-73" x="210.839844"/>
      <use xlink:href="#DejaVuSans-65" x="262.939453"/>
      <use xlink:href="#DejaVuSans-20" x="324.462891"/>
      <use xlink:href="#DejaVuSans-41" x="356.25"/>
      <use xlink:href="#DejaVuSans-55" x="424.658203"/>
      <use xlink:href="#DejaVuSans-43" x="497.851562"/>
     </g>
    </g>
   </g>
   <g id="line2d_13">
    <path d="M -1 426.15 
L 865 426.15 
" clip-path="url(#pe6795ec7fa)" style="fill: none; stroke-dasharray: 5.55,2.4; stroke-dashoffset: 0; stroke: #808080; stroke-width: 1.5"/>
   </g>
   <g id="patch_3">
    <path d="M 108 630 
L 108 86.4 
" style="fill: none; stroke: #000000; stroke-width: 0.8; stroke-linejoin: miter; stroke-linecap: square"/>
   </g>
   <g id="patch_4">
    <path d="M 777.6 630 
L 777.6 86.4 
" style="fill: none; stroke: #000000; stroke-width: 0.8; stroke-linejoin: miter; stroke-linecap: square"/>
   </g>
   <g id="patch_5">
    <path d="M 108 630 
L 777.6 630 
" style="fill: none; stroke: #000000; stroke-width: 0.8; stroke-linejoin: miter; stroke-linecap: square"/>
   </g>
   <g id="patch_6">
    <path d="M 108 86.4 
L 777.6 86.4 
" style="fill: none; stroke: #000000; stroke-width: 0.8; stroke-linejoin: miter; stroke-linecap: square"/>
   </g>
   <g id="text_14">
    <!-- Test Data AUCs -->
    <g transform="translate(366.525 80.4)scale(0.2 -0.2)">
     <defs>
      <path id="DejaVuSans-74" d="M 1172 4494 
L 1172 3500 
L 2356 3500 
L 2356 3053 
L 1172 3053 
L 1172 1153 
Q 1172 725 1289 603 
Q 1406 481 1766 481 
L 2356 481 
L 2356 0 
L 1766 0 
Q 1100 0 847 248 
Q 594 497 594 1153 
L 594 3053 
L 172 3053 
L 172 3500 
L 594 3500 
L 594 4494 
L 1172 4494 
z
" transform="scale(0.015625)"/>
      <path id="DejaVuSans-44" d="M 1259 4147 
L 1259 519 
L 2022 519 
Q 2988 519 3436 956 
Q 3884 1394 3884 2338 
Q 3884 3275 3436 3711 
Q 2988 4147 2022 4147 
L 1259 4147 
z
M 628 4666 
L 1925 4666 
Q 3281 4666 3915 4102 
Q 4550 3538 4550 2338 
Q 4550 1131 3912 565 
Q 3275 0 1925 0 
L 628 0 
L 628 4666 
z
" transform="scale(0.015625)"/>
      <path id="DejaVuSans-61" d="M 2194 1759 
Q 1497 1759 1228 1600 
Q 959 1441 959 1056 
Q 959 750 1161 570 
Q 1363 391 1709 391 
Q 2188 391 2477 730 
Q 2766 1069 2766 1631 
L 2766 1759 
L 2194 1759 
z
M 3341 1997 
L 3341 0 
L 2766 0 
L 2766 531 
Q 2569 213 2275 61 
Q 1981 -91 1556 -91 
Q 1019 -91 701 211 
Q 384 513 384 1019 
Q 384 1609 779 1909 
Q 1175 2209 1959 2209 
L 2766 2209 
L 2766 2266 
Q 2766 2663 2505 2880 
Q 2244 3097 1772 3097 
Q 1472 3097 1187 3025 
Q 903 2953 641 2809 
L 641 3341 
Q 956 3463 1253 3523 
Q 1550 3584 1831 3584 
Q 2591 3584 2966 3190 
Q 3341 2797 3341 1997 
z
" transform="scale(0.015625)"/>
     </defs>
     <use xlink:href="#DejaVuSans-54"/>
     <use xlink:href="#DejaVuSans-65" x="44.083984"/>
     <use xlink:href="#DejaVuSans-73" x="105.607422"/>
     <use xlink:href="#DejaVuSans-74" x="157.707031"/>
     <use xlink:href="#DejaVuSans-20" x="196.916016"/>
     <use xlink:href="#DejaVuSans-44" x="228.703125"/>
     <use xlink:href="#DejaVuSans-61" x="305.705078"/>
     <use xlink:href="#DejaVuSans-74" x="366.984375"/>
     <use xlink:href="#DejaVuSans-61" x="406.193359"/>
     <use xlink:href="#DejaVuSans-20" x="467.472656"/>
     <use xlink:href="#DejaVuSans-41" x="499.259766"/>
     <use xlink:href="#DejaVuSans-55" x="567.667969"/>
     <use xlink:href="#DejaVuSans-43" x="640.861328"/>
     <use xlink:href="#DejaVuSans-73" x="710.685547"/>
    </g>
   </g>
  </g>
 </g>
 <defs>
  <clipPath id="pe6795ec7fa">
   <rect x="108" y="86.4" width="669.6" height="543.6"/>
  </clipPath>
 </defs>
</svg>
